<svg xmlns="http://www.w3.org/2000/svg" xmlns:xlink="http://www.w3.org/1999/xlink" contentStyleType="text/css" data-diagram-type="CLASS" height="1440px" preserveAspectRatio="none" style="width:1597px;height:1440px;background:#EFF1F5;" version="1.1" viewBox="0 0 1597 1440" width="1597px" zoomAndPan="magnify"><title>Note Domain</title><defs/><g><rect fill="#EFF1F5" height="1440" style="stroke:none;stroke-width:1;" width="1597" x="0" y="0"/><g class="title" data-source-line="1"><text fill="#4C4F69" font-family="sans-serif" font-size="14" font-weight="bold" lengthAdjust="spacing" textLength="102.4365" x="740.5569" y="22.9951">Note Domain</text></g><!--class TrashedBy--><g class="entity" data-entity="TrashedBy" data-source-line="58" data-uid="ent0002" id="entity_TrashedBy"><rect fill="#EFF1F5" height="105.1563" rx="8" ry="8" style="stroke:#BCC0CC;stroke-width:0.5;" width="115.5146" x="58.59" y="93.1969"/><rect fill="#CCD0DA" height="40.2656" rx="8" ry="8" style="stroke:#CCD0DA;stroke-width:0.5;" width="115.5146" x="58.59" y="93.1969"/><rect fill="#CCD0DA" height="8" style="stroke:#CCD0DA;stroke-width:0.5;" width="115.5146" x="58.59" y="125.4625"/><rect fill="none" height="105.1563" rx="8" ry="8" style="stroke:#BCC0CC;stroke-width:0.5;" width="115.5146" x="58.59" y="93.1969"/><ellipse cx="73.59" cy="113.3297" fill="#DD7878" rx="11" ry="11" style="stroke:#181818;stroke-width:1;"/><path d="M77.6994,119.3297 L69.9806,119.3297 L69.9806,106.9391 L77.6994,106.9391 L77.6994,109.0953 L72.4338,109.0953 L72.4338,111.7672 L77.1994,111.7672 L77.1994,113.9234 L72.4338,113.9234 L72.4338,117.1734 L77.6994,117.1734 L77.6994,119.3297 Z " fill="#4C4F69"/><text fill="#4C4F69" font-family="sans-serif" font-size="12" font-style="italic" lengthAdjust="spacing" textLength="49.166" x="104.7643" y="109.3355">&#171;Enum&#187;</text><text fill="#4C4F69" font-family="sans-serif" font-size="14" font-weight="bold" lengthAdjust="spacing" textLength="83.5146" x="87.59" y="125.1607">TrashedBy</text><line style="stroke:#BCC0CC;stroke-width:0.5;" x1="59.59" x2="173.1046" y1="133.4625" y2="133.4625"/><text fill="#4C4F69" font-family="sans-serif" font-size="14" lengthAdjust="spacing" textLength="92.6064" x="64.59" y="150.4576">UNSPECIFIED</text><text fill="#4C4F69" font-family="sans-serif" font-size="14" lengthAdjust="spacing" textLength="65.6113" x="64.59" y="166.7545">PURPOSE</text><text fill="#4C4F69" font-family="sans-serif" font-size="14" lengthAdjust="spacing" textLength="55.6172" x="64.59" y="183.0514">PARENT</text><line style="stroke:#BCC0CC;stroke-width:0.5;" x1="59.59" x2="173.1046" y1="190.3531" y2="190.3531"/></g><!--class Workspace--><g class="entity" data-entity="Workspace" data-source-line="64" data-uid="ent0003" id="entity_Workspace"><rect fill="#EFF1F5" height="202.9375" rx="8" ry="8" style="stroke:#BCC0CC;stroke-width:0.5;" width="173.875" x="461.41" y="44.2969"/><rect fill="#CCD0DA" height="40.2656" rx="8" ry="8" style="stroke:#CCD0DA;stroke-width:0.5;" width="173.875" x="461.41" y="44.2969"/><rect fill="#CCD0DA" height="8" style="stroke:#CCD0DA;stroke-width:0.5;" width="173.875" x="461.41" y="76.5625"/><rect fill="none" height="202.9375" rx="8" ry="8" style="stroke:#BCC0CC;stroke-width:0.5;" width="173.875" x="461.41" y="44.2969"/><ellipse cx="492.9844" cy="64.4297" fill="#04A5E5" rx="11" ry="11" style="stroke:#181818;stroke-width:1;"/><path d="M492.4688,64.9922 Q490.6094,64.2891 489.9532,63.5234 Q489.3125,62.7422 489.3125,61.4297 Q489.3125,59.7422 490.3907,58.7734 Q491.4688,57.8047 493.3438,57.8047 Q494.2032,57.8047 495.0469,58.0078 Q495.9063,58.1953 496.75,58.5859 L496.75,60.9766 Q495.9688,60.4141 495.1407,60.1328 Q494.3282,59.8359 493.5313,59.8359 Q492.6563,59.8359 492.1719,60.1953 Q491.7032,60.5547 491.7032,61.2109 Q491.7032,61.7266 492.0469,62.0703 Q492.3907,62.3984 493.4844,62.8047 L494.5469,63.2109 Q496.0313,63.7578 496.7344,64.6641 Q497.4532,65.5703 497.4532,66.9453 Q497.4532,68.8203 496.3438,69.7422 Q495.2344,70.6641 492.9844,70.6641 Q492.0625,70.6641 491.1407,70.4453 Q490.2188,70.2266 489.3594,69.8047 L489.3594,67.2734 Q490.3282,67.9609 491.25,68.3047 Q492.1719,68.6484 493.0625,68.6484 Q493.9688,68.6484 494.4688,68.2422 Q494.9688,67.8203 494.9688,67.0859 Q494.9688,66.5234 494.625,66.1172 Q494.2969,65.6953 493.6719,65.4453 L492.4688,64.9922 Z " fill="#4C4F69"/><text fill="#4C4F69" font-family="sans-serif" font-size="12" font-style="italic" lengthAdjust="spacing" textLength="109.043" x="508.6676" y="60.4355">&#171;Aggregate Root&#187;</text><text fill="#4C4F69" font-family="sans-serif" font-size="14" font-weight="bold" lengthAdjust="spacing" textLength="86.8711" x="519.7536" y="76.2607">Workspace</text><line style="stroke:#BCC0CC;stroke-width:0.5;" x1="462.41" x2="634.285" y1="84.5625" y2="84.5625"/><text fill="#4C4F69" font-family="sans-serif" font-size="14" lengthAdjust="spacing" textLength="87.6025" x="467.41" y="101.5576">id uuid.UUID</text><text fill="#4C4F69" font-family="sans-serif" font-size="14" lengthAdjust="spacing" textLength="84.3418" x="467.41" y="117.8545">name string</text><text fill="#4C4F69" font-family="sans-serif" font-size="14" lengthAdjust="spacing" textLength="73.582" x="467.41" y="134.1514">slug string</text><text fill="#4C4F69" font-family="sans-serif" font-size="14" lengthAdjust="spacing" textLength="161.875" x="467.41" y="150.4482">rootFolderID uuid.UUID</text><text fill="#4C4F69" font-family="sans-serif" font-size="14" lengthAdjust="spacing" textLength="150.2813" x="467.41" y="166.7451">deletedAt *time.Time</text><text fill="#4C4F69" font-family="sans-serif" font-size="14" lengthAdjust="spacing" textLength="95.3545" x="467.41" y="183.042">event []Event</text><line style="stroke:#BCC0CC;stroke-width:0.5;" x1="462.41" x2="634.285" y1="190.3438" y2="190.3438"/><text fill="#4C4F69" font-family="sans-serif" font-size="14" lengthAdjust="spacing" textLength="68.9678" x="467.41" y="207.3389">Rename()</text><text fill="#4C4F69" font-family="sans-serif" font-size="14" lengthAdjust="spacing" textLength="56.9229" x="467.41" y="223.6357">Delete()</text><text fill="#4C4F69" font-family="sans-serif" font-size="14" lengthAdjust="spacing" textLength="84.2188" x="467.41" y="239.9326">PopEvents()</text></g><!--class Folder--><g class="entity" data-entity="Folder" data-source-line="77" data-uid="ent0004" id="entity_Folder"><rect fill="#EFF1F5" height="300.7188" rx="8" ry="8" style="stroke:#BCC0CC;stroke-width:0.5;" width="236.8066" x="429.94" y="506.9869"/><rect fill="#CCD0DA" height="40.2656" rx="8" ry="8" style="stroke:#CCD0DA;stroke-width:0.5;" width="236.8066" x="429.94" y="506.9869"/><rect fill="#CCD0DA" height="8" style="stroke:#CCD0DA;stroke-width:0.5;" width="236.8066" x="429.94" y="539.2525"/><rect fill="none" height="300.7188" rx="8" ry="8" style="stroke:#BCC0CC;stroke-width:0.5;" width="236.8066" x="429.94" y="506.9869"/><ellipse cx="491.5718" cy="527.1197" fill="#04A5E5" rx="11" ry="11" style="stroke:#181818;stroke-width:1;"/><path d="M491.0562,527.6822 Q489.1968,526.9791 488.5406,526.2134 Q487.9,525.4322 487.9,524.1197 Q487.9,522.4322 488.9781,521.4634 Q490.0562,520.4947 491.9312,520.4947 Q492.7906,520.4947 493.6343,520.6978 Q494.4937,520.8853 495.3375,521.2759 L495.3375,523.6666 Q494.5562,523.1041 493.7281,522.8228 Q492.9156,522.5259 492.1187,522.5259 Q491.2437,522.5259 490.7593,522.8853 Q490.2906,523.2447 490.2906,523.9009 Q490.2906,524.4166 490.6343,524.7603 Q490.9781,525.0884 492.0718,525.4947 L493.1343,525.9009 Q494.6187,526.4478 495.3218,527.3541 Q496.0406,528.2603 496.0406,529.6353 Q496.0406,531.5103 494.9312,532.4322 Q493.8218,533.3541 491.5718,533.3541 Q490.65,533.3541 489.7281,533.1353 Q488.8062,532.9166 487.9468,532.4947 L487.9468,529.9634 Q488.9156,530.6509 489.8375,530.9947 Q490.7593,531.3384 491.65,531.3384 Q492.5562,531.3384 493.0562,530.9322 Q493.5562,530.5103 493.5562,529.7759 Q493.5562,529.2134 493.2125,528.8072 Q492.8843,528.3853 492.2593,528.1353 L491.0562,527.6822 Z " fill="#4C4F69"/><text fill="#4C4F69" font-family="sans-serif" font-size="12" font-style="italic" lengthAdjust="spacing" textLength="109.043" x="510.0718" y="523.1255">&#171;Aggregate Root&#187;</text><text fill="#4C4F69" font-family="sans-serif" font-size="14" font-weight="bold" lengthAdjust="spacing" textLength="50.4014" x="539.3926" y="538.9507">Folder</text><line style="stroke:#BCC0CC;stroke-width:0.5;" x1="430.94" x2="665.7466" y1="547.2525" y2="547.2525"/><text fill="#4C4F69" font-family="sans-serif" font-size="14" lengthAdjust="spacing" textLength="87.6025" x="435.94" y="564.2476">id uuid.UUID</text><text fill="#4C4F69" font-family="sans-serif" font-size="14" lengthAdjust="spacing" textLength="84.3418" x="435.94" y="580.5445">name string</text><text fill="#4C4F69" font-family="sans-serif" font-size="14" lengthAdjust="spacing" textLength="73.6641" x="435.94" y="596.8414">icon string</text><text fill="#4C4F69" font-family="sans-serif" font-size="14" lengthAdjust="spacing" textLength="164.6846" x="435.94" y="613.1382">workspaceID uuid.UUID</text><text fill="#4C4F69" font-family="sans-serif" font-size="14" lengthAdjust="spacing" textLength="224.8066" x="435.94" y="629.4351">folderHierarchy FolderHierarchy</text><text fill="#4C4F69" font-family="sans-serif" font-size="14" lengthAdjust="spacing" textLength="121.4951" x="435.94" y="645.732">trashed *Trashed</text><text fill="#4C4F69" font-family="sans-serif" font-size="14" lengthAdjust="spacing" textLength="87.3496" x="435.94" y="662.0289">deleted bool</text><text fill="#4C4F69" font-family="sans-serif" font-size="14" lengthAdjust="spacing" textLength="102.6484" x="435.94" y="678.3257">events []Event</text><line style="stroke:#BCC0CC;stroke-width:0.5;" x1="430.94" x2="665.7466" y1="685.6275" y2="685.6275"/><text fill="#4C4F69" font-family="sans-serif" font-size="14" lengthAdjust="spacing" textLength="68.9678" x="435.94" y="702.6226">Rename()</text><text fill="#4C4F69" font-family="sans-serif" font-size="14" lengthAdjust="spacing" textLength="63.1777" x="435.94" y="718.9195">SetIcon()</text><text fill="#4C4F69" font-family="sans-serif" font-size="14" lengthAdjust="spacing" textLength="109.3477" x="435.94" y="735.2164">MoveToFolder()</text><text fill="#4C4F69" font-family="sans-serif" font-size="14" lengthAdjust="spacing" textLength="49.9775" x="435.94" y="751.5132">Trash()</text><text fill="#4C4F69" font-family="sans-serif" font-size="14" lengthAdjust="spacing" textLength="64.9824" x="435.94" y="767.8101">Restore()</text><text fill="#4C4F69" font-family="sans-serif" font-size="14" lengthAdjust="spacing" textLength="145.9746" x="435.94" y="784.107">PermanentlyDelete()</text><text fill="#4C4F69" font-family="sans-serif" font-size="14" lengthAdjust="spacing" textLength="84.2188" x="435.94" y="800.4039">PopEvents()</text></g><!--class FolderHierarchy--><g class="entity" data-entity="FolderHierarchy" data-source-line="96" data-uid="ent0005" id="entity_FolderHierarchy"><rect fill="#EFF1F5" height="105.1563" rx="8" ry="8" style="stroke:#BCC0CC;stroke-width:0.5;" width="159.0596" x="393.82" y="884.7069"/><rect fill="#CCD0DA" height="40.2656" rx="8" ry="8" style="stroke:#CCD0DA;stroke-width:0.5;" width="159.0596" x="393.82" y="884.7069"/><rect fill="#CCD0DA" height="8" style="stroke:#CCD0DA;stroke-width:0.5;" width="159.0596" x="393.82" y="916.9725"/><rect fill="none" height="105.1563" rx="8" ry="8" style="stroke:#BCC0CC;stroke-width:0.5;" width="159.0596" x="393.82" y="884.7069"/><ellipse cx="408.82" cy="904.8397" fill="#DF8E1D" rx="11" ry="11" style="stroke:#181818;stroke-width:1;"/><path d="M408.3044,905.4022 Q406.445,904.6991 405.7888,903.9334 Q405.1481,903.1522 405.1481,901.8397 Q405.1481,900.1522 406.2263,899.1834 Q407.3044,898.2147 409.1794,898.2147 Q410.0388,898.2147 410.8825,898.4178 Q411.7419,898.6053 412.5856,898.9959 L412.5856,901.3866 Q411.8044,900.8241 410.9763,900.5428 Q410.1638,900.2459 409.3669,900.2459 Q408.4919,900.2459 408.0075,900.6053 Q407.5388,900.9647 407.5388,901.6209 Q407.5388,902.1366 407.8825,902.4803 Q408.2263,902.8084 409.32,903.2147 L410.3825,903.6209 Q411.8669,904.1678 412.57,905.0741 Q413.2888,905.9803 413.2888,907.3553 Q413.2888,909.2303 412.1794,910.1522 Q411.07,911.0741 408.82,911.0741 Q407.8981,911.0741 406.9763,910.8553 Q406.0544,910.6366 405.195,910.2147 L405.195,907.6834 Q406.1638,908.3709 407.0856,908.7147 Q408.0075,909.0584 408.8981,909.0584 Q409.8044,909.0584 410.3044,908.6522 Q410.8044,908.2303 410.8044,907.4959 Q410.8044,906.9334 410.4606,906.5272 Q410.1325,906.1053 409.5075,905.8553 L408.3044,905.4022 Z " fill="#4C4F69"/><text fill="#4C4F69" font-family="sans-serif" font-size="12" font-style="italic" lengthAdjust="spacing" textLength="91.4648" x="440.6174" y="900.8455">&#171;Value Object&#187;</text><text fill="#4C4F69" font-family="sans-serif" font-size="14" font-weight="bold" lengthAdjust="spacing" textLength="127.0596" x="422.82" y="916.6707">FolderHierarchy</text><line style="stroke:#BCC0CC;stroke-width:0.5;" x1="394.82" x2="551.8796" y1="924.9725" y2="924.9725"/><text fill="#4C4F69" font-family="sans-serif" font-size="14" lengthAdjust="spacing" textLength="135.9326" x="399.82" y="941.9676">parentID uuid.UUID</text><line style="stroke:#BCC0CC;stroke-width:0.5;" x1="394.82" x2="551.8796" y1="949.2694" y2="949.2694"/><text fill="#4C4F69" font-family="sans-serif" font-size="14" lengthAdjust="spacing" textLength="71.5859" x="399.82" y="966.2645">ParentID()</text><text fill="#4C4F69" font-family="sans-serif" font-size="14" lengthAdjust="spacing" textLength="54.6943" x="399.82" y="982.5614">IsRoot()</text></g><!--class Note--><g class="entity" data-entity="Note" data-source-line="103" data-uid="ent0006" id="entity_Note"><rect fill="#EFF1F5" height="382.2031" rx="8" ry="8" style="stroke:#BCC0CC;stroke-width:0.5;" width="192.1133" x="527.29" y="1050.8669"/><rect fill="#CCD0DA" height="40.2656" rx="8" ry="8" style="stroke:#CCD0DA;stroke-width:0.5;" width="192.1133" x="527.29" y="1050.8669"/><rect fill="#CCD0DA" height="8" style="stroke:#CCD0DA;stroke-width:0.5;" width="192.1133" x="527.29" y="1083.1325"/><rect fill="none" height="382.2031" rx="8" ry="8" style="stroke:#BCC0CC;stroke-width:0.5;" width="192.1133" x="527.29" y="1050.8669"/><ellipse cx="567.0716" cy="1070.9997" fill="#04A5E5" rx="11" ry="11" style="stroke:#181818;stroke-width:1;"/><path d="M566.556,1071.5622 Q564.6966,1070.8591 564.0404,1070.0934 Q563.3998,1069.3122 563.3998,1067.9997 Q563.3998,1066.3122 564.4779,1065.3434 Q565.556,1064.3747 567.431,1064.3747 Q568.2904,1064.3747 569.1341,1064.5778 Q569.9935,1064.7653 570.8373,1065.1559 L570.8373,1067.5466 Q570.056,1066.9841 569.2279,1066.7028 Q568.4154,1066.4059 567.6185,1066.4059 Q566.7435,1066.4059 566.2591,1066.7653 Q565.7904,1067.1247 565.7904,1067.7809 Q565.7904,1068.2966 566.1341,1068.6403 Q566.4779,1068.9684 567.5716,1069.3747 L568.6341,1069.7809 Q570.1185,1070.3278 570.8216,1071.2341 Q571.5404,1072.1403 571.5404,1073.5153 Q571.5404,1075.3903 570.431,1076.3122 Q569.3216,1077.2341 567.0716,1077.2341 Q566.1498,1077.2341 565.2279,1077.0153 Q564.306,1076.7966 563.4466,1076.3747 L563.4466,1073.8434 Q564.4154,1074.5309 565.3373,1074.8747 Q566.2591,1075.2184 567.1498,1075.2184 Q568.056,1075.2184 568.556,1074.8122 Q569.056,1074.3903 569.056,1073.6559 Q569.056,1073.0934 568.7123,1072.6872 Q568.3841,1072.2653 567.7591,1072.0153 L566.556,1071.5622 Z " fill="#4C4F69"/><text fill="#4C4F69" font-family="sans-serif" font-size="12" font-style="italic" lengthAdjust="spacing" textLength="109.043" x="584.5787" y="1067.0055">&#171;Aggregate Root&#187;</text><text fill="#4C4F69" font-family="sans-serif" font-size="14" font-weight="bold" lengthAdjust="spacing" textLength="37.5225" x="620.3389" y="1082.8307">Note</text><line style="stroke:#BCC0CC;stroke-width:0.5;" x1="528.29" x2="718.4033" y1="1091.1325" y2="1091.1325"/><text fill="#4C4F69" font-family="sans-serif" font-size="14" lengthAdjust="spacing" textLength="87.6025" x="533.29" y="1108.1276">id uuid.UUID</text><text fill="#4C4F69" font-family="sans-serif" font-size="14" lengthAdjust="spacing" textLength="84.3418" x="533.29" y="1124.4245">name string</text><text fill="#4C4F69" font-family="sans-serif" font-size="14" lengthAdjust="spacing" textLength="73.6641" x="533.29" y="1140.7214">icon string</text><text fill="#4C4F69" font-family="sans-serif" font-size="14" lengthAdjust="spacing" textLength="85.8115" x="533.29" y="1157.0182">tags []string</text><text fill="#4C4F69" font-family="sans-serif" font-size="14" lengthAdjust="spacing" textLength="76.5352" x="533.29" y="1173.3151">size uint64</text><text fill="#4C4F69" font-family="sans-serif" font-size="14" lengthAdjust="spacing" textLength="130.375" x="533.29" y="1189.612">folderID uuid.UUID</text><text fill="#4C4F69" font-family="sans-serif" font-size="14" lengthAdjust="spacing" textLength="180.1133" x="533.29" y="1205.9089">outgoingLinks uuid.UUIDs</text><text fill="#4C4F69" font-family="sans-serif" font-size="14" lengthAdjust="spacing" textLength="121.4951" x="533.29" y="1222.2057">trashed *Trashed</text><text fill="#4C4F69" font-family="sans-serif" font-size="14" lengthAdjust="spacing" textLength="87.3496" x="533.29" y="1238.5026">deleted bool</text><text fill="#4C4F69" font-family="sans-serif" font-size="14" lengthAdjust="spacing" textLength="102.6484" x="533.29" y="1254.7995">events []Event</text><line style="stroke:#BCC0CC;stroke-width:0.5;" x1="528.29" x2="718.4033" y1="1262.1013" y2="1262.1013"/><text fill="#4C4F69" font-family="sans-serif" font-size="14" lengthAdjust="spacing" textLength="68.9678" x="533.29" y="1279.0964">Rename()</text><text fill="#4C4F69" font-family="sans-serif" font-size="14" lengthAdjust="spacing" textLength="63.1777" x="533.29" y="1295.3932">SetIcon()</text><text fill="#4C4F69" font-family="sans-serif" font-size="14" lengthAdjust="spacing" textLength="67.2246" x="533.29" y="1311.6901">SetTags()</text><text fill="#4C4F69" font-family="sans-serif" font-size="14" lengthAdjust="spacing" textLength="62.6514" x="533.29" y="1327.987">SetSize()</text><text fill="#4C4F69" font-family="sans-serif" font-size="14" lengthAdjust="spacing" textLength="109.3477" x="533.29" y="1344.2839">MoveToFolder()</text><text fill="#4C4F69" font-family="sans-serif" font-size="14" lengthAdjust="spacing" textLength="134.3604" x="533.29" y="1360.5807">SetOutgoingLinks()</text><text fill="#4C4F69" font-family="sans-serif" font-size="14" lengthAdjust="spacing" textLength="49.9775" x="533.29" y="1376.8776">Trash()</text><text fill="#4C4F69" font-family="sans-serif" font-size="14" lengthAdjust="spacing" textLength="64.9824" x="533.29" y="1393.1745">Restore()</text><text fill="#4C4F69" font-family="sans-serif" font-size="14" lengthAdjust="spacing" textLength="145.9746" x="533.29" y="1409.4714">PermanentlyDelete()</text><text fill="#4C4F69" font-family="sans-serif" font-size="14" lengthAdjust="spacing" textLength="84.2188" x="533.29" y="1425.7682">PopEvents()</text></g><!--class Trashed--><g class="entity" data-entity="Trashed" data-source-line="127" data-uid="ent0007" id="entity_Trashed"><rect fill="#EFF1F5" height="88.8594" rx="8" ry="8" style="stroke:#BCC0CC;stroke-width:0.5;" width="119.4648" x="208.61" y="101.3369"/><rect fill="#CCD0DA" height="40.2656" rx="8" ry="8" style="stroke:#CCD0DA;stroke-width:0.5;" width="119.4648" x="208.61" y="101.3369"/><rect fill="#CCD0DA" height="8" style="stroke:#CCD0DA;stroke-width:0.5;" width="119.4648" x="208.61" y="133.6025"/><rect fill="none" height="88.8594" rx="8" ry="8" style="stroke:#BCC0CC;stroke-width:0.5;" width="119.4648" x="208.61" y="101.3369"/><ellipse cx="223.61" cy="121.4697" fill="#DF8E1D" rx="11" ry="11" style="stroke:#181818;stroke-width:1;"/><path d="M223.0944,122.0322 Q221.235,121.3291 220.5788,120.5634 Q219.9381,119.7822 219.9381,118.4697 Q219.9381,116.7822 221.0163,115.8134 Q222.0944,114.8447 223.9694,114.8447 Q224.8288,114.8447 225.6725,115.0478 Q226.5319,115.2353 227.3756,115.6259 L227.3756,118.0166 Q226.5944,117.4541 225.7663,117.1728 Q224.9538,116.8759 224.1569,116.8759 Q223.2819,116.8759 222.7975,117.2353 Q222.3288,117.5947 222.3288,118.2509 Q222.3288,118.7666 222.6725,119.1103 Q223.0163,119.4384 224.11,119.8447 L225.1725,120.2509 Q226.6569,120.7978 227.36,121.7041 Q228.0788,122.6103 228.0788,123.9853 Q228.0788,125.8603 226.9694,126.7822 Q225.86,127.7041 223.61,127.7041 Q222.6881,127.7041 221.7663,127.4853 Q220.8444,127.2666 219.985,126.8447 L219.985,124.3134 Q220.9538,125.0009 221.8756,125.3447 Q222.7975,125.6884 223.6881,125.6884 Q224.5944,125.6884 225.0944,125.2822 Q225.5944,124.8603 225.5944,124.1259 Q225.5944,123.5634 225.2506,123.1572 Q224.9225,122.7353 224.2975,122.4853 L223.0944,122.0322 Z " fill="#4C4F69"/><text fill="#4C4F69" font-family="sans-serif" font-size="12" font-style="italic" lengthAdjust="spacing" textLength="91.4648" x="235.61" y="117.4755">&#171;Value Object&#187;</text><text fill="#4C4F69" font-family="sans-serif" font-size="14" font-weight="bold" lengthAdjust="spacing" textLength="63.7178" x="249.4835" y="133.3007">Trashed</text><line style="stroke:#BCC0CC;stroke-width:0.5;" x1="209.61" x2="327.0748" y1="141.6025" y2="141.6025"/><text fill="#4C4F69" font-family="sans-serif" font-size="14" lengthAdjust="spacing" textLength="96.0654" x="214.61" y="158.5976">by TrashedBy</text><text fill="#4C4F69" font-family="sans-serif" font-size="14" lengthAdjust="spacing" textLength="89.291" x="214.61" y="174.8945">at time.Time</text><line style="stroke:#BCC0CC;stroke-width:0.5;" x1="209.61" x2="327.0748" y1="182.1962" y2="182.1962"/></g><!--class TrashService--><g class="entity" data-entity="TrashService" data-source-line="132" data-uid="ent0008" id="entity_TrashService"><rect fill="#EFF1F5" height="121.4531" rx="8" ry="8" style="stroke:#BCC0CC;stroke-width:0.5;" width="218.6914" x="7" y="316.3869"/><rect fill="#CCD0DA" height="40.2656" rx="8" ry="8" style="stroke:#CCD0DA;stroke-width:0.5;" width="218.6914" x="7" y="316.3869"/><rect fill="#CCD0DA" height="8" style="stroke:#CCD0DA;stroke-width:0.5;" width="218.6914" x="7" y="348.6525"/><rect fill="none" height="121.4531" rx="8" ry="8" style="stroke:#BCC0CC;stroke-width:0.5;" width="218.6914" x="7" y="316.3869"/><ellipse cx="60.8945" cy="336.5197" fill="#DC8A78" rx="11" ry="11" style="stroke:#181818;stroke-width:1;"/><path d="M56.8164,332.2853 L56.8164,330.1291 L64.207,330.1291 L64.207,332.2853 L61.7383,332.2853 L61.7383,340.3634 L64.207,340.3634 L64.207,342.5197 L56.8164,342.5197 L56.8164,340.3634 L59.2852,340.3634 L59.2852,332.2853 L56.8164,332.2853 Z " fill="#4C4F69"/><text fill="#4C4F69" font-family="sans-serif" font-size="12" font-style="italic" lengthAdjust="spacing" textLength="59.0332" x="103.0791" y="332.5255">&#171;Service&#187;</text><text fill="#4C4F69" font-family="sans-serif" font-size="14" font-style="italic" font-weight="bold" lengthAdjust="spacing" textLength="102.4023" x="81.3945" y="348.3507">TrashService</text><line style="stroke:#BCC0CC;stroke-width:0.5;" x1="8" x2="224.6914" y1="356.6525" y2="356.6525"/><line style="stroke:#BCC0CC;stroke-width:0.5;" x1="8" x2="224.6914" y1="364.6525" y2="364.6525"/><text fill="#4C4F69" font-family="sans-serif" font-size="14" lengthAdjust="spacing" textLength="90.4121" x="13" y="381.6476">TrashNotes()</text><text fill="#4C4F69" font-family="sans-serif" font-size="14" lengthAdjust="spacing" textLength="191.6865" x="13" y="397.9445">TrashFoldersWithChildren()</text><text fill="#4C4F69" font-family="sans-serif" font-size="14" lengthAdjust="spacing" textLength="105.417" x="13" y="414.2414">RestoreNotes()</text><text fill="#4C4F69" font-family="sans-serif" font-size="14" lengthAdjust="spacing" textLength="206.6914" x="13" y="430.5382">RestoreFoldersWithChildren()</text></g><!--class UpdateNoteSizeService--><g class="entity" data-entity="UpdateNoteSizeService" data-source-line="139" data-uid="ent0009" id="entity_UpdateNoteSizeService"><rect fill="#EFF1F5" height="72.5625" rx="8" ry="8" style="stroke:#BCC0CC;stroke-width:0.5;" width="217.2949" x="260.7" y="340.8369"/><rect fill="#CCD0DA" height="40.2656" rx="8" ry="8" style="stroke:#CCD0DA;stroke-width:0.5;" width="217.2949" x="260.7" y="340.8369"/><rect fill="#CCD0DA" height="8" style="stroke:#CCD0DA;stroke-width:0.5;" width="217.2949" x="260.7" y="373.1025"/><rect fill="none" height="72.5625" rx="8" ry="8" style="stroke:#BCC0CC;stroke-width:0.5;" width="217.2949" x="260.7" y="340.8369"/><ellipse cx="275.7" cy="360.9697" fill="#DC8A78" rx="11" ry="11" style="stroke:#181818;stroke-width:1;"/><path d="M271.6219,356.7353 L271.6219,354.5791 L279.0125,354.5791 L279.0125,356.7353 L276.5438,356.7353 L276.5438,364.8134 L279.0125,364.8134 L279.0125,366.9697 L271.6219,366.9697 L271.6219,364.8134 L274.0906,364.8134 L274.0906,356.7353 L271.6219,356.7353 Z " fill="#4C4F69"/><text fill="#4C4F69" font-family="sans-serif" font-size="12" font-style="italic" lengthAdjust="spacing" textLength="59.0332" x="352.8309" y="356.9755">&#171;Service&#187;</text><text fill="#4C4F69" font-family="sans-serif" font-size="14" font-style="italic" font-weight="bold" lengthAdjust="spacing" textLength="185.2949" x="289.7" y="372.8007">UpdateNoteSizeService</text><line style="stroke:#BCC0CC;stroke-width:0.5;" x1="261.7" x2="476.9949" y1="381.1025" y2="381.1025"/><line style="stroke:#BCC0CC;stroke-width:0.5;" x1="261.7" x2="476.9949" y1="389.1025" y2="389.1025"/><text fill="#4C4F69" font-family="sans-serif" font-size="14" lengthAdjust="spacing" textLength="60.293" x="266.7" y="406.0976">Handle()</text></g><!--class NoteRepoGetManyParams--><g class="entity" data-entity="NoteRepoGetManyParams" data-source-line="148" data-uid="ent0014" id="entity_NoteRepoGetManyParams"><rect fill="#EFF1F5" height="137.75" rx="8" ry="8" style="stroke:#BCC0CC;stroke-width:0.5;" width="238.5684" x="678.06" y="308.2369"/><rect fill="#CCD0DA" height="40.2656" rx="8" ry="8" style="stroke:#CCD0DA;stroke-width:0.5;" width="238.5684" x="678.06" y="308.2369"/><rect fill="#CCD0DA" height="8" style="stroke:#CCD0DA;stroke-width:0.5;" width="238.5684" x="678.06" y="340.5025"/><rect fill="none" height="137.75" rx="8" ry="8" style="stroke:#BCC0CC;stroke-width:0.5;" width="238.5684" x="678.06" y="308.2369"/><ellipse cx="693.06" cy="328.3697" fill="#40A02B" rx="11" ry="11" style="stroke:#181818;stroke-width:1;"/><path d="M692.5444,328.9322 Q690.685,328.2291 690.0288,327.4634 Q689.3881,326.6822 689.3881,325.3697 Q689.3881,323.6822 690.4663,322.7134 Q691.5444,321.7447 693.4194,321.7447 Q694.2788,321.7447 695.1225,321.9478 Q695.9819,322.1353 696.8256,322.5259 L696.8256,324.9166 Q696.0444,324.3541 695.2163,324.0728 Q694.4038,323.7759 693.6069,323.7759 Q692.7319,323.7759 692.2475,324.1353 Q691.7788,324.4947 691.7788,325.1509 Q691.7788,325.6666 692.1225,326.0103 Q692.4663,326.3384 693.56,326.7447 L694.6225,327.1509 Q696.1069,327.6978 696.81,328.6041 Q697.5288,329.5103 697.5288,330.8853 Q697.5288,332.7603 696.4194,333.6822 Q695.31,334.6041 693.06,334.6041 Q692.1381,334.6041 691.2163,334.3853 Q690.2944,334.1666 689.435,333.7447 L689.435,331.2134 Q690.4038,331.9009 691.3256,332.2447 Q692.2475,332.5884 693.1381,332.5884 Q694.0444,332.5884 694.5444,332.1822 Q695.0444,331.7603 695.0444,331.0259 Q695.0444,330.4634 694.7006,330.0572 Q694.3725,329.6353 693.7475,329.3853 L692.5444,328.9322 Z " fill="#4C4F69"/><text fill="#4C4F69" font-family="sans-serif" font-size="12" font-style="italic" lengthAdjust="spacing" textLength="87.7441" x="766.4721" y="324.3755">&#171;Repo Param&#187;</text><text fill="#4C4F69" font-family="sans-serif" font-size="14" font-weight="bold" lengthAdjust="spacing" textLength="206.5684" x="707.06" y="340.2007">NoteRepoGetManyParams</text><line style="stroke:#BCC0CC;stroke-width:0.5;" x1="679.06" x2="915.6284" y1="348.5025" y2="348.5025"/><text fill="#4C4F69" font-family="sans-serif" font-size="14" lengthAdjust="spacing" textLength="167.0771" x="684.06" y="365.4976">WorkspaceID uuid.UUID</text><text fill="#4C4F69" font-family="sans-serif" font-size="14" lengthAdjust="spacing" textLength="107.9531" x="684.06" y="381.7945">IDs []uuid.UUID</text><text fill="#4C4F69" font-family="sans-serif" font-size="14" lengthAdjust="spacing" textLength="153.3369" x="684.06" y="398.0914">TrashedBy TrashedBy</text><text fill="#4C4F69" font-family="sans-serif" font-size="14" lengthAdjust="spacing" textLength="105.4785" x="684.06" y="414.3882">TrashOnly bool</text><text fill="#4C4F69" font-family="sans-serif" font-size="14" lengthAdjust="spacing" textLength="107.4336" x="684.06" y="430.6851">ForUpdate bool</text><line style="stroke:#BCC0CC;stroke-width:0.5;" x1="679.06" x2="915.6284" y1="437.9869" y2="437.9869"/></g><!--class FolderRepoGetManyParams--><g class="entity" data-entity="FolderRepoGetManyParams" data-source-line="156" data-uid="ent0015" id="entity_FolderRepoGetManyParams"><rect fill="#EFF1F5" height="137.75" rx="8" ry="8" style="stroke:#BCC0CC;stroke-width:0.5;" width="251.4473" x="951.62" y="308.2369"/><rect fill="#CCD0DA" height="40.2656" rx="8" ry="8" style="stroke:#CCD0DA;stroke-width:0.5;" width="251.4473" x="951.62" y="308.2369"/><rect fill="#CCD0DA" height="8" style="stroke:#CCD0DA;stroke-width:0.5;" width="251.4473" x="951.62" y="340.5025"/><rect fill="none" height="137.75" rx="8" ry="8" style="stroke:#BCC0CC;stroke-width:0.5;" width="251.4473" x="951.62" y="308.2369"/><ellipse cx="966.62" cy="328.3697" fill="#40A02B" rx="11" ry="11" style="stroke:#181818;stroke-width:1;"/><path d="M966.1044,328.9322 Q964.245,328.2291 963.5888,327.4634 Q962.9481,326.6822 962.9481,325.3697 Q962.9481,323.6822 964.0263,322.7134 Q965.1044,321.7447 966.9794,321.7447 Q967.8388,321.7447 968.6825,321.9478 Q969.5419,322.1353 970.3856,322.5259 L970.3856,324.9166 Q969.6044,324.3541 968.7763,324.0728 Q967.9638,323.7759 967.1669,323.7759 Q966.2919,323.7759 965.8075,324.1353 Q965.3388,324.4947 965.3388,325.1509 Q965.3388,325.6666 965.6825,326.0103 Q966.0263,326.3384 967.12,326.7447 L968.1825,327.1509 Q969.6669,327.6978 970.37,328.6041 Q971.0888,329.5103 971.0888,330.8853 Q971.0888,332.7603 969.9794,333.6822 Q968.87,334.6041 966.62,334.6041 Q965.6981,334.6041 964.7763,334.3853 Q963.8544,334.1666 962.995,333.7447 L962.995,331.2134 Q963.9638,331.9009 964.8856,332.2447 Q965.8075,332.5884 966.6981,332.5884 Q967.6044,332.5884 968.1044,332.1822 Q968.6044,331.7603 968.6044,331.0259 Q968.6044,330.4634 968.2606,330.0572 Q967.9325,329.6353 967.3075,329.3853 L966.1044,328.9322 Z " fill="#4C4F69"/><text fill="#4C4F69" font-family="sans-serif" font-size="12" font-style="italic" lengthAdjust="spacing" textLength="87.7441" x="1046.4716" y="324.3755">&#171;Repo Param&#187;</text><text fill="#4C4F69" font-family="sans-serif" font-size="14" font-weight="bold" lengthAdjust="spacing" textLength="219.4473" x="980.62" y="340.2007">FolderRepoGetManyParams</text><line style="stroke:#BCC0CC;stroke-width:0.5;" x1="952.62" x2="1202.0673" y1="348.5025" y2="348.5025"/><text fill="#4C4F69" font-family="sans-serif" font-size="14" lengthAdjust="spacing" textLength="167.0771" x="957.62" y="365.4976">WorkspaceID uuid.UUID</text><text fill="#4C4F69" font-family="sans-serif" font-size="14" lengthAdjust="spacing" textLength="107.9531" x="957.62" y="381.7945">IDs []uuid.UUID</text><text fill="#4C4F69" font-family="sans-serif" font-size="14" lengthAdjust="spacing" textLength="153.3369" x="957.62" y="398.0914">TrashedBy TrashedBy</text><text fill="#4C4F69" font-family="sans-serif" font-size="14" lengthAdjust="spacing" textLength="105.4785" x="957.62" y="414.3882">TrashOnly bool</text><text fill="#4C4F69" font-family="sans-serif" font-size="14" lengthAdjust="spacing" textLength="107.4336" x="957.62" y="430.6851">ForUpdate bool</text><line style="stroke:#BCC0CC;stroke-width:0.5;" x1="952.62" x2="1202.0673" y1="437.9869" y2="437.9869"/></g><!--class FolderRepoGetRecursiveChildrenParams--><g class="entity" data-entity="FolderRepoGetRecursiveChildrenParams" data-source-line="164" data-uid="ent0016" id="entity_FolderRepoGetRecursiveChildrenParams"><rect fill="#EFF1F5" height="105.1563" rx="8" ry="8" style="stroke:#BCC0CC;stroke-width:0.5;" width="352.4004" x="1238.15" y="324.5369"/><rect fill="#CCD0DA" height="40.2656" rx="8" ry="8" style="stroke:#CCD0DA;stroke-width:0.5;" width="352.4004" x="1238.15" y="324.5369"/><rect fill="#CCD0DA" height="8" style="stroke:#CCD0DA;stroke-width:0.5;" width="352.4004" x="1238.15" y="356.8025"/><rect fill="none" height="105.1563" rx="8" ry="8" style="stroke:#BCC0CC;stroke-width:0.5;" width="352.4004" x="1238.15" y="324.5369"/><ellipse cx="1253.15" cy="344.6697" fill="#40A02B" rx="11" ry="11" style="stroke:#181818;stroke-width:1;"/><path d="M1252.6344,345.2322 Q1250.775,344.5291 1250.1188,343.7634 Q1249.4781,342.9822 1249.4781,341.6697 Q1249.4781,339.9822 1250.5563,339.0134 Q1251.6344,338.0447 1253.5094,338.0447 Q1254.3688,338.0447 1255.2125,338.2478 Q1256.0719,338.4353 1256.9156,338.8259 L1256.9156,341.2166 Q1256.1344,340.6541 1255.3063,340.3728 Q1254.4938,340.0759 1253.6969,340.0759 Q1252.8219,340.0759 1252.3375,340.4353 Q1251.8688,340.7947 1251.8688,341.4509 Q1251.8688,341.9666 1252.2125,342.3103 Q1252.5563,342.6384 1253.65,343.0447 L1254.7125,343.4509 Q1256.1969,343.9978 1256.9,344.9041 Q1257.6188,345.8103 1257.6188,347.1853 Q1257.6188,349.0603 1256.5094,349.9822 Q1255.4,350.9041 1253.15,350.9041 Q1252.2281,350.9041 1251.3063,350.6853 Q1250.3844,350.4666 1249.525,350.0447 L1249.525,347.5134 Q1250.4938,348.2009 1251.4156,348.5447 Q1252.3375,348.8884 1253.2281,348.8884 Q1254.1344,348.8884 1254.6344,348.4822 Q1255.1344,348.0603 1255.1344,347.3259 Q1255.1344,346.7634 1254.7906,346.3572 Q1254.4625,345.9353 1253.8375,345.6853 L1252.6344,345.2322 Z " fill="#4C4F69"/><text fill="#4C4F69" font-family="sans-serif" font-size="12" font-style="italic" lengthAdjust="spacing" textLength="87.7441" x="1383.4781" y="340.6755">&#171;Repo Param&#187;</text><text fill="#4C4F69" font-family="sans-serif" font-size="14" font-weight="bold" lengthAdjust="spacing" textLength="320.4004" x="1267.15" y="356.5007">FolderRepoGetRecursiveChildrenParams</text><line style="stroke:#BCC0CC;stroke-width:0.5;" x1="1239.15" x2="1589.5504" y1="364.8025" y2="364.8025"/><text fill="#4C4F69" font-family="sans-serif" font-size="14" lengthAdjust="spacing" textLength="89.7354" x="1244.15" y="381.7976">ID uuid.UUID</text><text fill="#4C4F69" font-family="sans-serif" font-size="14" lengthAdjust="spacing" textLength="117.667" x="1244.15" y="398.0945">IncludeRoot bool</text><text fill="#4C4F69" font-family="sans-serif" font-size="14" lengthAdjust="spacing" textLength="107.4336" x="1244.15" y="414.3914">ForUpdate bool</text><line style="stroke:#BCC0CC;stroke-width:0.5;" x1="1239.15" x2="1589.5504" y1="421.6931" y2="421.6931"/></g><!--class WorkspaceRepo--><g class="entity" data-entity="WorkspaceRepo" data-source-line="170" data-uid="ent0017" id="entity_WorkspaceRepo"><rect fill="#EFF1F5" height="137.75" rx="8" ry="8" style="stroke:#BCC0CC;stroke-width:0.5;" width="158.7861" x="1368.95" y="76.8969"/><rect fill="#CCD0DA" height="40.2656" rx="8" ry="8" style="stroke:#CCD0DA;stroke-width:0.5;" width="158.7861" x="1368.95" y="76.8969"/><rect fill="#CCD0DA" height="8" style="stroke:#CCD0DA;stroke-width:0.5;" width="158.7861" x="1368.95" y="109.1625"/><rect fill="none" height="137.75" rx="8" ry="8" style="stroke:#BCC0CC;stroke-width:0.5;" width="158.7861" x="1368.95" y="76.8969"/><ellipse cx="1383.95" cy="97.0297" fill="#EA76CB" rx="11" ry="11" style="stroke:#181818;stroke-width:1;"/><path d="M1379.8719,92.7953 L1379.8719,90.6391 L1387.2625,90.6391 L1387.2625,92.7953 L1384.7938,92.7953 L1384.7938,100.8734 L1387.2625,100.8734 L1387.2625,103.0297 L1379.8719,103.0297 L1379.8719,100.8734 L1382.3406,100.8734 L1382.3406,92.7953 L1379.8719,92.7953 Z " fill="#4C4F69"/><text fill="#4C4F69" font-family="sans-serif" font-size="12" font-style="italic" lengthAdjust="spacing" textLength="45.3633" x="1438.6614" y="93.0355">&#171;Repo&#187;</text><text fill="#4C4F69" font-family="sans-serif" font-size="14" font-style="italic" font-weight="bold" lengthAdjust="spacing" textLength="126.7861" x="1397.95" y="108.8607">WorkspaceRepo</text><line style="stroke:#BCC0CC;stroke-width:0.5;" x1="1369.95" x2="1526.7361" y1="117.1625" y2="117.1625"/><line style="stroke:#BCC0CC;stroke-width:0.5;" x1="1369.95" x2="1526.7361" y1="125.1625" y2="125.1625"/><text fill="#4C4F69" font-family="sans-serif" font-size="14" lengthAdjust="spacing" textLength="84.3008" x="1374.95" y="142.1576">GetBySlug()</text><text fill="#4C4F69" font-family="sans-serif" font-size="14" lengthAdjust="spacing" textLength="68.6738" x="1374.95" y="158.4545">GetByID()</text><text fill="#4C4F69" font-family="sans-serif" font-size="14" lengthAdjust="spacing" textLength="99.21" x="1374.95" y="174.7514">GetIDBySlug()</text><text fill="#4C4F69" font-family="sans-serif" font-size="14" lengthAdjust="spacing" textLength="125.624" x="1374.95" y="191.0482">CheckSlugExists()</text><text fill="#4C4F69" font-family="sans-serif" font-size="14" lengthAdjust="spacing" textLength="45.2881" x="1374.95" y="207.3451">Save()</text></g><!--class FolderRepo--><g class="entity" data-entity="FolderRepo" data-source-line="178" data-uid="ent0018" id="entity_FolderRepo"><rect fill="#EFF1F5" height="202.9375" rx="8" ry="8" style="stroke:#BCC0CC;stroke-width:0.5;" width="175.1807" x="1158.76" y="44.2969"/><rect fill="#CCD0DA" height="40.2656" rx="8" ry="8" style="stroke:#CCD0DA;stroke-width:0.5;" width="175.1807" x="1158.76" y="44.2969"/><rect fill="#CCD0DA" height="8" style="stroke:#CCD0DA;stroke-width:0.5;" width="175.1807" x="1158.76" y="76.5625"/><rect fill="none" height="202.9375" rx="8" ry="8" style="stroke:#BCC0CC;stroke-width:0.5;" width="175.1807" x="1158.76" y="44.2969"/><ellipse cx="1197.5489" cy="64.4297" fill="#EA76CB" rx="11" ry="11" style="stroke:#181818;stroke-width:1;"/><path d="M1193.4708,60.1953 L1193.4708,58.0391 L1200.8614,58.0391 L1200.8614,60.1953 L1198.3927,60.1953 L1198.3927,68.2734 L1200.8614,68.2734 L1200.8614,70.4297 L1193.4708,70.4297 L1193.4708,68.2734 L1195.9395,68.2734 L1195.9395,60.1953 L1193.4708,60.1953 Z " fill="#4C4F69"/><text fill="#4C4F69" font-family="sans-serif" font-size="12" font-style="italic" lengthAdjust="spacing" textLength="45.3633" x="1239.3119" y="60.4355">&#171;Repo&#187;</text><text fill="#4C4F69" font-family="sans-serif" font-size="14" font-style="italic" font-weight="bold" lengthAdjust="spacing" textLength="90.3164" x="1216.8353" y="76.2607">FolderRepo</text><line style="stroke:#BCC0CC;stroke-width:0.5;" x1="1159.76" x2="1332.9407" y1="84.5625" y2="84.5625"/><line style="stroke:#BCC0CC;stroke-width:0.5;" x1="1159.76" x2="1332.9407" y1="92.5625" y2="92.5625"/><text fill="#4C4F69" font-family="sans-serif" font-size="14" lengthAdjust="spacing" textLength="68.6738" x="1164.76" y="109.5576">GetByID()</text><text fill="#4C4F69" font-family="sans-serif" font-size="14" lengthAdjust="spacing" textLength="73.6914" x="1164.76" y="125.8545">GetMany()</text><text fill="#4C4F69" font-family="sans-serif" font-size="14" lengthAdjust="spacing" textLength="163.1807" x="1164.76" y="142.1514">GetRecursiveChildren()</text><text fill="#4C4F69" font-family="sans-serif" font-size="14" lengthAdjust="spacing" textLength="160.9248" x="1164.76" y="158.4482">GetWorkspaceIDByID()</text><text fill="#4C4F69" font-family="sans-serif" font-size="14" lengthAdjust="spacing" textLength="45.2881" x="1164.76" y="174.7451">Save()</text><text fill="#4C4F69" font-family="sans-serif" font-size="14" lengthAdjust="spacing" textLength="83.1045" x="1164.76" y="191.042">SaveMany()</text><text fill="#4C4F69" font-family="sans-serif" font-size="14" lengthAdjust="spacing" textLength="142.5703" x="1164.76" y="207.3389">AreAllInWorkspace()</text><text fill="#4C4F69" font-family="sans-serif" font-size="14" lengthAdjust="spacing" textLength="103.8311" x="1164.76" y="223.6357">GetParentIDs()</text><text fill="#4C4F69" font-family="sans-serif" font-size="14" lengthAdjust="spacing" textLength="95.0879" x="1164.76" y="239.9326">CheckExists()</text></g><!--class NoteRepo--><g class="entity" data-entity="NoteRepo" data-source-line="190" data-uid="ent0019" id="entity_NoteRepo"><rect fill="#EFF1F5" height="170.3438" rx="8" ry="8" style="stroke:#BCC0CC;stroke-width:0.5;" width="254.9561" x="669.87" y="60.5969"/><rect fill="#CCD0DA" height="40.2656" rx="8" ry="8" style="stroke:#CCD0DA;stroke-width:0.5;" width="254.9561" x="669.87" y="60.5969"/><rect fill="#CCD0DA" height="8" style="stroke:#CCD0DA;stroke-width:0.5;" width="254.9561" x="669.87" y="92.8625"/><rect fill="none" height="170.3438" rx="8" ry="8" style="stroke:#BCC0CC;stroke-width:0.5;" width="254.9561" x="669.87" y="60.5969"/><ellipse cx="754.3793" cy="80.7297" fill="#EA76CB" rx="11" ry="11" style="stroke:#181818;stroke-width:1;"/><path d="M750.3012,76.4953 L750.3012,74.3391 L757.6918,74.3391 L757.6918,76.4953 L755.223,76.4953 L755.223,84.5734 L757.6918,84.5734 L757.6918,86.7297 L750.3012,86.7297 L750.3012,84.5734 L752.7699,84.5734 L752.7699,76.4953 L750.3012,76.4953 Z " fill="#4C4F69"/><text fill="#4C4F69" font-family="sans-serif" font-size="12" font-style="italic" lengthAdjust="spacing" textLength="45.3633" x="790.9164" y="76.7355">&#171;Repo&#187;</text><text fill="#4C4F69" font-family="sans-serif" font-size="14" font-style="italic" font-weight="bold" lengthAdjust="spacing" textLength="77.4375" x="774.8793" y="92.5607">NoteRepo</text><line style="stroke:#BCC0CC;stroke-width:0.5;" x1="670.87" x2="923.8261" y1="100.8625" y2="100.8625"/><line style="stroke:#BCC0CC;stroke-width:0.5;" x1="670.87" x2="923.8261" y1="108.8625" y2="108.8625"/><text fill="#4C4F69" font-family="sans-serif" font-size="14" lengthAdjust="spacing" textLength="68.6738" x="675.87" y="125.8576">GetByID()</text><text fill="#4C4F69" font-family="sans-serif" font-size="14" lengthAdjust="spacing" textLength="73.6914" x="675.87" y="142.1545">GetMany()</text><text fill="#4C4F69" font-family="sans-serif" font-size="14" lengthAdjust="spacing" textLength="242.9561" x="675.87" y="158.4514">GetRecursiveChildrenFromFolder()</text><text fill="#4C4F69" font-family="sans-serif" font-size="14" lengthAdjust="spacing" textLength="160.9248" x="675.87" y="174.7482">GetWorkspaceIDByID()</text><text fill="#4C4F69" font-family="sans-serif" font-size="14" lengthAdjust="spacing" textLength="45.2881" x="675.87" y="191.0451">Save()</text><text fill="#4C4F69" font-family="sans-serif" font-size="14" lengthAdjust="spacing" textLength="83.1045" x="675.87" y="207.342">SaveMany()</text><text fill="#4C4F69" font-family="sans-serif" font-size="14" lengthAdjust="spacing" textLength="142.5703" x="675.87" y="223.6389">AreAllInWorkspace()</text></g><!--reverse link Workspace to Folder--><g class="link" data-entity-1="Workspace" data-entity-2="Folder" data-source-line="143" data-uid="lnk10" id="link_Workspace_Folder"><path codeLine="143" d="M548.35,259.4469 C548.35,333.4069 548.35,423.1269 548.35,506.6069" fill="none" id="Workspace-backto-Folder" style="stroke:#6C6F85;stroke-width:1;stroke-dasharray:7,7;"/><polygon fill="#6C6F85" points="548.35,247.4469,544.35,253.4469,548.35,259.4469,552.35,253.4469,548.35,247.4469" style="stroke:#6C6F85;stroke-width:1;"/><text fill="#4C4F69" font-family="sans-serif" font-size="13" lengthAdjust="spacing" textLength="55.0278" x="549.35" y="381.6838">contains</text><text fill="#4C4F69" font-family="sans-serif" font-size="13" lengthAdjust="spacing" textLength="8.271" x="540.0785" y="267.1952">1</text><text fill="#4C4F69" font-family="sans-serif" font-size="13" lengthAdjust="spacing" textLength="23.0356" x="524.7942" y="496.0123">1..*</text></g><!--reverse link Folder to FolderHierarchy--><g class="link" data-entity-1="Folder" data-entity-2="FolderHierarchy" data-source-line="144" data-uid="lnk11" id="link_Folder_FolderHierarchy"><path codeLine="144" d="M504.8629,819.4823 C497.4429,846.9723 493.3,862.3269 487.35,884.3769" fill="none" id="Folder-backto-FolderHierarchy" style="stroke:#6C6F85;stroke-width:1;"/><polygon fill="#6C6F85" points="507.99,807.8969,502.5647,812.6472,504.8629,819.4823,510.2883,814.7319,507.99,807.8969" style="stroke:#6C6F85;stroke-width:1;"/><text fill="#4C4F69" font-family="sans-serif" font-size="13" lengthAdjust="spacing" textLength="22.9785" x="501.35" y="850.7738">has</text><text fill="#4C4F69" font-family="sans-serif" font-size="13" lengthAdjust="spacing" textLength="8.271" x="497.8482" y="827.6226">1</text><text fill="#4C4F69" font-family="sans-serif" font-size="13" lengthAdjust="spacing" textLength="8.271" x="480.6486" y="873.7125">1</text></g><!--reverse link Folder to Note--><g class="link" data-entity-1="Folder" data-entity-2="Note" data-source-line="145" data-uid="lnk12" id="link_Folder_Note"><path codeLine="145" d="M569.1428,819.9086 C578.6528,893.7486 588.69,971.7269 598.82,1050.4269" fill="none" id="Folder-backto-Note" style="stroke:#6C6F85;stroke-width:1;stroke-dasharray:7,7;"/><polygon fill="#6C6F85" points="567.61,808.0069,564.4092,814.4687,569.1428,819.9086,572.3437,813.4468,567.61,808.0069" style="stroke:#6C6F85;stroke-width:1;"/><text fill="#4C4F69" font-family="sans-serif" font-size="13" lengthAdjust="spacing" textLength="55.0278" x="592.35" y="941.8538">contains</text><text fill="#4C4F69" font-family="sans-serif" font-size="13" lengthAdjust="spacing" textLength="8.271" x="560.356" y="827.7379">1</text><text fill="#4C4F69" font-family="sans-serif" font-size="13" lengthAdjust="spacing" textLength="23.0356" x="574.4134" y="1039.7213">0..*</text></g><!--link Note to Note--><g class="link" data-entity-1="Note" data-entity-2="Note" data-source-line="146" data-uid="lnk13" id="link_Note_Note"><path codeLine="146" d="M719.64,1201.8169 C739.84,1205.9669 754.4,1219.3469 754.4,1241.9669 C754.4,1264.5769 739.84,1277.9669 719.64,1282.1169" fill="none" id="Note-Note" style="stroke:#6C6F85;stroke-width:1;stroke-dasharray:7,7;"/><text fill="#4C4F69" font-family="sans-serif" font-size="13" lengthAdjust="spacing" textLength="29.7642" x="760.4" y="1246.5338">links</text><text fill="#4C4F69" font-family="sans-serif" font-size="13" lengthAdjust="spacing" textLength="23.0356" x="727.5574" y="1195.3892">0..*</text><text fill="#4C4F69" font-family="sans-serif" font-size="13" lengthAdjust="spacing" textLength="23.0356" x="727.5574" y="1281.5863">0..*</text></g><!--link WorkspaceRepo to WorkspaceRepo--><g class="link" data-entity-1="WorkspaceRepo" data-entity-2="WorkspaceRepo" data-source-line="200" data-uid="lnk20" id="link_WorkspaceRepo_WorkspaceRepo"><path codeLine="200" d="M1528,121.3669 C1547.88,123.0769 1562.74,131.2069 1562.74,145.7669 C1562.74,160.3369 1547.88,168.4669 1528,170.1769" fill="none" id="WorkspaceRepo-WorkspaceRepo" style="stroke:#6C6F85;stroke-width:1;"/></g><!--link FolderRepo to FolderRepoGetManyParams--><g class="link" data-entity-1="FolderRepo" data-entity-2="FolderRepoGetManyParams" data-source-line="201" data-uid="lnk21" id="link_FolderRepo_FolderRepoGetManyParams"><path codeLine="201" d="M1171.97,247.6969 C1157.01,268.0069 1141.61,288.8969 1127.7,307.7769" fill="none" id="FolderRepo-FolderRepoGetManyParams" style="stroke:#6C6F85;stroke-width:1;"/></g><!--link FolderRepo to FolderRepoGetRecursiveChildrenParams--><g class="link" data-entity-1="FolderRepo" data-entity-2="FolderRepoGetRecursiveChildrenParams" data-source-line="202" data-uid="lnk22" id="link_FolderRepo_FolderRepoGetRecursiveChildrenParams"><path codeLine="202" d="M1320.28,247.6969 C1339.64,274.1369 1359.74,301.5669 1376.35,324.2469" fill="none" id="FolderRepo-FolderRepoGetRecursiveChildrenParams" style="stroke:#6C6F85;stroke-width:1;"/></g><!--link NoteRepo to NoteRepoGetManyParams--><g class="link" data-entity-1="NoteRepo" data-entity-2="NoteRepoGetManyParams" data-source-line="203" data-uid="lnk23" id="link_NoteRepo_NoteRepoGetManyParams"><path codeLine="203" d="M797.35,231.1969 C797.35,256.4769 797.35,283.8869 797.35,307.9869" fill="none" id="NoteRepo-NoteRepoGetManyParams" style="stroke:#6C6F85;stroke-width:1;"/></g><!--SRC=[pLTBR-Cs4BxhLt3T7kAWQyY9dyLs0ITn6WFT9B2Jvb3qG54ZMpKj6XILh5liV-_m8OcoapHTT87c46i-pdppv5XMgU90heK2SY4sDCs2uDttKkJmH1L8yXDfVHUp4HsEMeWdd6xIR2c8nUFXoEBRD5iJywTneCC1YpI-eSKZLFXeT3g6HECIObBhnoTXSZgs-bA8hE8PzFhzKyCFbAqg_GGFGiE_0yx5KyMJZA0RQtmf0R9AlnVIyCJeAw2yzjiTZa_6nc- -tddnX3tQXxx1wNQxIYLO_2GS9v71ENs4BCRo67nuCXecnc_42_3uOJ18-jRlPrNZFTPB1jPl4UcZhiNxh9yCXnuUMdp01id8y8X7a9pkJfnVDap6fnxkU4PibD2kXpkUCQDX55f-cL06ZeUoA8p0mnrFn5Z8c8Sx7iRYCAOcNvfx-KAIT6s-6vhfgQhw2AxlJ1QvglkEZ83p4-JhDDjIIJSaecozbAB8udF1XIJ6WtSUGq8BhYv5ffo2hfEdO6oPa1asfplm3XYdUQxj5cg7eKM2nxxZYPJYoL6MrVUEjnWNNOArbS0KpPOSWaCDybUWqplRpyDMn9u9YQDJ-R8LDoTUMkRc15-2_GnUuZTrUftz2YYU75YMlJKw4wLa6XKAzYkCaRp3ugSPa3binIp3vQ3DZZAwWJP9IvcqDD0YD2VwWNpuS3JxWPW5qJQM7pzMH0kGZoc3VyjLBQTsoU1nJhDYutW07v-Xc295kSVQHjyp_vNY3Rw9_i0EEnPRzKEQ1TBOzTEsLiIQUMIJ9UwX9KOw5-8jTBY5shKHqLOUcoxUhHw4Dp2P_MVhJOmDyWIcD7UIvYk8pz2JdQJxwyNjz7nsEPjU6FdsVdvxivZQvybyUdsdUzzCvK78TOu33oL96fEYIEFE_VtCifXWSfobR6dad1TBNyOrZvUOuppEBlPCO-2W89ueSgpI3NJky9yv0DovYlps-rH_1WQQWtPqr3R2XJ5qmgtO6hqSvOFuhUSt1vyo_4xovASo_OFO4qDybOAaagrsvB8f6nrbEq2ENIlyf74j2Ludcx-IxGBK3EDoqYVSz7V2kdEGeNVFSyYLa5LjGE8wGbg-Uwrc_btOIwGi7Iucr6-KmJ8vt17FSbFsPpgXtpk-kW-ABdM5_35B_mHIu08PzBn-7BH956efqEONt4fvVPP_k_wWT8VHrj828tsvTwXmuyVuBLhgqYkh7-r8jHiCG1Mfxn_Q7cnhe-xGaiLWkgcDa6rk-KEgLkUhbCSu7CqiV0i7FM_pN1ptsnZ7ILFeeku5T4Mpc8ErhDOMQNLRvBZJwU13ftFSSlUK_4YmOmhVWVF08KRn_NlpkNS7K7j5cug6CJICveNQupEoEplGuhh7GL1lU8rhwMTGdsYsCs1UflJmulh14SQ9R69LK_VQQwIRZE_gcRuKqjRIGb_yY6oQ_-EOvi0AcQUFK4vBCy33k3B6YzXieN_oLezQbQQ6IsfqVhPRu1US6s0ZLxiFfTb5u_ny1MojvUddD5VLJi2V57PCcoxh91l-V7xTZbewA4Hzv7N9Ot2UoqUFRI9Xmlaig-nggdB3vtvILK87MPG3_RKvN4gnQMp8_oWRVokOjoMywmqWgEklprwu1gzflJ2OGLaIRV3iVVyR]--></g></svg>