<svg xmlns="http://www.w3.org/2000/svg" xmlns:xlink="http://www.w3.org/1999/xlink" contentStyleType="text/css" data-diagram-type="CLASS" height="897px" preserveAspectRatio="none" style="width:1936px;height:897px;background:#EFF1F5;" version="1.1" viewBox="0 0 1936 897" width="1936px" zoomAndPan="magnify"><title>Document</title><defs/><g><rect fill="#EFF1F5" height="897" style="stroke:none;stroke-width:1;" width="1936" x="0" y="0"/><g class="title" data-source-line="1"><text fill="#4C4F69" font-family="sans-serif" font-size="14" font-weight="bold" lengthAdjust="spacing" textLength="80.2471" x="920.8765" y="22.9951">Document</text></g><!--cluster Document--><g class="cluster" data-entity="Document" data-source-line="55" data-uid="ent0002" id="cluster_Document"><rect fill="#E6E9EF" height="847.19" rx="8" ry="8" style="stroke:#BCC0CC;stroke-width:1;" width="1923" x="7" y="44.2969"/><path d="M97.2471,44.2969 L97.2471,53.5938 L87.2471,63.5938 L7,63.5938" fill="none" style="stroke:#BCC0CC;stroke-width:1;"/><text fill="#4C4F69" font-family="sans-serif" font-size="14" font-weight="bold" lengthAdjust="spacing" textLength="80.2471" x="10" y="58.292">Document</text></g><!--class DocumentEntity--><g class="entity" data-entity="DocumentEntity" data-source-line="56" data-uid="ent0003" id="entity_DocumentEntity"><rect fill="#EFF1F5" height="121.4531" rx="8" ry="8" style="stroke:#BCC0CC;stroke-width:0.5;" width="194.5605" x="32.72" y="95.5969"/><rect fill="#CCD0DA" height="40.2656" rx="8" ry="8" style="stroke:#CCD0DA;stroke-width:0.5;" width="194.5605" x="32.72" y="95.5969"/><rect fill="#CCD0DA" height="8" style="stroke:#CCD0DA;stroke-width:0.5;" width="194.5605" x="32.72" y="127.8625"/><rect fill="none" height="121.4531" rx="8" ry="8" style="stroke:#BCC0CC;stroke-width:0.5;" width="194.5605" x="32.72" y="95.5969"/><ellipse cx="63.6831" cy="115.7297" fill="#04A5E5" rx="11" ry="11" style="stroke:#181818;stroke-width:1;"/><path d="M66.6519,121.3703 Q66.0738,121.6672 65.4331,121.8078 Q64.7925,121.9641 64.0894,121.9641 Q61.5894,121.9641 60.2613,120.3234 Q58.9488,118.6672 58.9488,115.5422 Q58.9488,112.4172 60.2613,110.7609 Q61.5894,109.1047 64.0894,109.1047 Q64.7925,109.1047 65.4331,109.2609 Q66.0894,109.4172 66.6519,109.7141 L66.6519,112.4328 Q66.0269,111.8547 65.4331,111.5891 Q64.8394,111.3078 64.2144,111.3078 Q62.8706,111.3078 62.1831,112.3859 Q61.4956,113.4484 61.4956,115.5422 Q61.4956,117.6359 62.1831,118.7141 Q62.8706,119.7766 64.2144,119.7766 Q64.8394,119.7766 65.4331,119.5109 Q66.0269,119.2297 66.6519,118.6516 L66.6519,121.3703 Z " fill="#4C4F69"/><text fill="#4C4F69" font-family="sans-serif" font-size="12" font-style="italic" lengthAdjust="spacing" textLength="49.7168" x="119.9156" y="111.7355">&#171;Entity&#187;</text><text fill="#4C4F69" font-family="sans-serif" font-size="14" font-weight="bold" lengthAdjust="spacing" textLength="127.0869" x="81.2305" y="127.5607">DocumentEntity</text><line style="stroke:#BCC0CC;stroke-width:0.5;" x1="33.72" x2="226.2805" y1="135.8625" y2="135.8625"/><text fill="#4C4F69" font-family="sans-serif" font-size="14" lengthAdjust="spacing" textLength="62.1318" x="38.72" y="152.8576">id: string</text><text fill="#4C4F69" font-family="sans-serif" font-size="14" lengthAdjust="spacing" textLength="83.4053" x="38.72" y="169.1545">data: Buffer</text><text fill="#4C4F69" font-family="sans-serif" font-size="14" lengthAdjust="spacing" textLength="126.4375" x="38.72" y="185.4514">modified: boolean</text><text fill="#4C4F69" font-family="sans-serif" font-size="14" lengthAdjust="spacing" textLength="182.5605" x="38.72" y="201.7482">revisions: RevisionEntity[]</text><line style="stroke:#BCC0CC;stroke-width:0.5;" x1="33.72" x2="226.2805" y1="209.05" y2="209.05"/></g><!--class RevisionEntity--><g class="entity" data-entity="RevisionEntity" data-source-line="63" data-uid="ent0004" id="entity_RevisionEntity"><rect fill="#EFF1F5" height="154.0469" rx="8" ry="8" style="stroke:#BCC0CC;stroke-width:0.5;" width="246.042" x="261.98" y="79.2969"/><rect fill="#CCD0DA" height="40.2656" rx="8" ry="8" style="stroke:#CCD0DA;stroke-width:0.5;" width="246.042" x="261.98" y="79.2969"/><rect fill="#CCD0DA" height="8" style="stroke:#CCD0DA;stroke-width:0.5;" width="246.042" x="261.98" y="111.5625"/><rect fill="none" height="154.0469" rx="8" ry="8" style="stroke:#BCC0CC;stroke-width:0.5;" width="246.042" x="261.98" y="79.2969"/><ellipse cx="323.8726" cy="99.4297" fill="#04A5E5" rx="11" ry="11" style="stroke:#181818;stroke-width:1;"/><path d="M326.8413,105.0703 Q326.2632,105.3672 325.6226,105.5078 Q324.982,105.6641 324.2788,105.6641 Q321.7788,105.6641 320.4507,104.0234 Q319.1382,102.3672 319.1382,99.2422 Q319.1382,96.1172 320.4507,94.4609 Q321.7788,92.8047 324.2788,92.8047 Q324.982,92.8047 325.6226,92.9609 Q326.2788,93.1172 326.8413,93.4141 L326.8413,96.1328 Q326.2163,95.5547 325.6226,95.2891 Q325.0288,95.0078 324.4038,95.0078 Q323.0601,95.0078 322.3726,96.0859 Q321.6851,97.1484 321.6851,99.2422 Q321.6851,101.3359 322.3726,102.4141 Q323.0601,103.4766 324.4038,103.4766 Q325.0288,103.4766 325.6226,103.2109 Q326.2163,102.9297 326.8413,102.3516 L326.8413,105.0703 Z " fill="#4C4F69"/><text fill="#4C4F69" font-family="sans-serif" font-size="12" font-style="italic" lengthAdjust="spacing" textLength="49.7168" x="376.3926" y="95.4355">&#171;Entity&#187;</text><text fill="#4C4F69" font-family="sans-serif" font-size="14" font-weight="bold" lengthAdjust="spacing" textLength="113.7568" x="344.3726" y="111.2607">RevisionEntity</text><line style="stroke:#BCC0CC;stroke-width:0.5;" x1="262.98" x2="507.022" y1="119.5625" y2="119.5625"/><text fill="#4C4F69" font-family="sans-serif" font-size="14" lengthAdjust="spacing" textLength="62.1318" x="267.98" y="136.5576">id: string</text><text fill="#4C4F69" font-family="sans-serif" font-size="14" lengthAdjust="spacing" textLength="193.2041" x="267.98" y="152.8545">document: DocumentEntity</text><text fill="#4C4F69" font-family="sans-serif" font-size="14" lengthAdjust="spacing" textLength="128.2012" x="267.98" y="169.1514">name: string | null</text><text fill="#4C4F69" font-family="sans-serif" font-size="14" lengthAdjust="spacing" textLength="234.042" x="267.98" y="185.4482">content: @blocknote/core.Block[]</text><text fill="#4C4F69" font-family="sans-serif" font-size="14" lengthAdjust="spacing" textLength="111.3301" x="267.98" y="201.7451">createdAt: Date</text><text fill="#4C4F69" font-family="sans-serif" font-size="14" lengthAdjust="spacing" textLength="149.8301" x="267.98" y="218.042">deletedAt: Date | null</text><line style="stroke:#BCC0CC;stroke-width:0.5;" x1="262.98" x2="507.022" y1="225.3438" y2="225.3438"/></g><!--class AttachmentUploadUrl--><g class="entity" data-entity="AttachmentUploadUrl" data-source-line="72" data-uid="ent0005" id="entity_AttachmentUploadUrl"><rect fill="#EFF1F5" height="88.8594" rx="8" ry="8" style="stroke:#BCC0CC;stroke-width:0.5;" width="203.0215" x="543.49" y="111.8969"/><rect fill="#CCD0DA" height="40.2656" rx="8" ry="8" style="stroke:#CCD0DA;stroke-width:0.5;" width="203.0215" x="543.49" y="111.8969"/><rect fill="#CCD0DA" height="8" style="stroke:#CCD0DA;stroke-width:0.5;" width="203.0215" x="543.49" y="144.1625"/><rect fill="none" height="88.8594" rx="8" ry="8" style="stroke:#BCC0CC;stroke-width:0.5;" width="203.0215" x="543.49" y="111.8969"/><ellipse cx="558.49" cy="132.0297" fill="#DD7878" rx="11" ry="11" style="stroke:#181818;stroke-width:1;"/><path d="M559.3338,138.7797 L556.8806,138.7797 L556.8806,128.5297 L553.74,128.5297 L553.74,126.3891 L562.4744,126.3891 L562.4744,128.5297 L559.3338,128.5297 L559.3338,138.7797 Z " fill="#4C4F69"/><text fill="#4C4F69" font-family="sans-serif" font-size="12" font-style="italic" lengthAdjust="spacing" textLength="44.1152" x="635.9431" y="128.0355">&#171;Type&#187;</text><text fill="#4C4F69" font-family="sans-serif" font-size="14" font-weight="bold" lengthAdjust="spacing" textLength="171.0215" x="572.49" y="143.8607">AttachmentUploadUrl</text><line style="stroke:#BCC0CC;stroke-width:0.5;" x1="544.49" x2="745.5115" y1="152.1625" y2="152.1625"/><text fill="#4C4F69" font-family="sans-serif" font-size="14" lengthAdjust="spacing" textLength="116.9287" x="549.49" y="169.1576">uploadUrl: string</text><text fill="#4C4F69" font-family="sans-serif" font-size="14" lengthAdjust="spacing" textLength="111.3711" x="549.49" y="185.4545">publicUrl: string</text><line style="stroke:#BCC0CC;stroke-width:0.5;" x1="544.49" x2="745.5115" y1="192.7563" y2="192.7563"/></g><!--class PaginatedRevisions--><g class="entity" data-entity="PaginatedRevisions" data-source-line="77" data-uid="ent0006" id="entity_PaginatedRevisions"><rect fill="#EFF1F5" height="121.4531" rx="8" ry="8" style="stroke:#BCC0CC;stroke-width:0.5;" width="194.5605" x="781.72" y="95.5969"/><rect fill="#CCD0DA" height="40.2656" rx="8" ry="8" style="stroke:#CCD0DA;stroke-width:0.5;" width="194.5605" x="781.72" y="95.5969"/><rect fill="#CCD0DA" height="8" style="stroke:#CCD0DA;stroke-width:0.5;" width="194.5605" x="781.72" y="127.8625"/><rect fill="none" height="121.4531" rx="8" ry="8" style="stroke:#BCC0CC;stroke-width:0.5;" width="194.5605" x="781.72" y="95.5969"/><ellipse cx="799.9416" cy="115.7297" fill="#DD7878" rx="11" ry="11" style="stroke:#181818;stroke-width:1;"/><path d="M800.7854,122.4797 L798.3323,122.4797 L798.3323,112.2297 L795.1916,112.2297 L795.1916,110.0891 L803.926,110.0891 L803.926,112.2297 L800.7854,112.2297 L800.7854,122.4797 Z " fill="#4C4F69"/><text fill="#4C4F69" font-family="sans-serif" font-size="12" font-style="italic" lengthAdjust="spacing" textLength="44.1152" x="870.3006" y="111.7355">&#171;Type&#187;</text><text fill="#4C4F69" font-family="sans-serif" font-size="14" font-weight="bold" lengthAdjust="spacing" textLength="155.4014" x="814.6575" y="127.5607">PaginatedRevisions</text><line style="stroke:#BCC0CC;stroke-width:0.5;" x1="782.72" x2="975.2805" y1="135.8625" y2="135.8625"/><text fill="#4C4F69" font-family="sans-serif" font-size="14" lengthAdjust="spacing" textLength="182.5605" x="787.72" y="152.8576">revisions: RevisionEntity[]</text><text fill="#4C4F69" font-family="sans-serif" font-size="14" lengthAdjust="spacing" textLength="98.7725" x="787.72" y="169.1545">page: number</text><text fill="#4C4F69" font-family="sans-serif" font-size="14" lengthAdjust="spacing" textLength="94.6025" x="787.72" y="185.4514">limit: number</text><text fill="#4C4F69" font-family="sans-serif" font-size="14" lengthAdjust="spacing" textLength="95.8193" x="787.72" y="201.7482">total: number</text><line style="stroke:#BCC0CC;stroke-width:0.5;" x1="782.72" x2="975.2805" y1="209.05" y2="209.05"/></g><!--class OutgoingLinksAndTags--><g class="entity" data-entity="OutgoingLinksAndTags" data-source-line="84" data-uid="ent0007" id="entity_OutgoingLinksAndTags"><rect fill="#EFF1F5" height="88.8594" rx="8" ry="8" style="stroke:#BCC0CC;stroke-width:0.5;" width="214.4922" x="22.75" y="334.0869"/><rect fill="#CCD0DA" height="40.2656" rx="8" ry="8" style="stroke:#CCD0DA;stroke-width:0.5;" width="214.4922" x="22.75" y="334.0869"/><rect fill="#CCD0DA" height="8" style="stroke:#CCD0DA;stroke-width:0.5;" width="214.4922" x="22.75" y="366.3525"/><rect fill="none" height="88.8594" rx="8" ry="8" style="stroke:#BCC0CC;stroke-width:0.5;" width="214.4922" x="22.75" y="334.0869"/><ellipse cx="37.75" cy="354.2197" fill="#DD7878" rx="11" ry="11" style="stroke:#181818;stroke-width:1;"/><path d="M38.5938,360.9697 L36.1406,360.9697 L36.1406,350.7197 L33,350.7197 L33,348.5791 L41.7344,348.5791 L41.7344,350.7197 L38.5938,350.7197 L38.5938,360.9697 Z " fill="#4C4F69"/><text fill="#4C4F69" font-family="sans-serif" font-size="12" font-style="italic" lengthAdjust="spacing" textLength="44.1152" x="120.9385" y="350.2255">&#171;Type&#187;</text><text fill="#4C4F69" font-family="sans-serif" font-size="14" font-weight="bold" lengthAdjust="spacing" textLength="182.4922" x="51.75" y="366.0507">OutgoingLinksAndTags</text><line style="stroke:#BCC0CC;stroke-width:0.5;" x1="23.75" x2="236.2422" y1="374.3525" y2="374.3525"/><text fill="#4C4F69" font-family="sans-serif" font-size="14" lengthAdjust="spacing" textLength="90.5283" x="28.75" y="391.3476">tags: string[]</text><text fill="#4C4F69" font-family="sans-serif" font-size="14" lengthAdjust="spacing" textLength="171.2881" x="28.75" y="407.6445">outgoingLinkIds: string[]</text><line style="stroke:#BCC0CC;stroke-width:0.5;" x1="23.75" x2="236.2422" y1="414.9463" y2="414.9463"/></g><!--class DocumentService--><g class="entity" data-entity="DocumentService" data-source-line="89" data-uid="ent0008" id="entity_DocumentService"><rect fill="#EFF1F5" height="170.3438" rx="8" ry="8" style="stroke:#BCC0CC;stroke-width:0.5;" width="648.4941" x="271.75" y="293.3469"/><rect fill="#CCD0DA" height="40.2656" rx="8" ry="8" style="stroke:#CCD0DA;stroke-width:0.5;" width="648.4941" x="271.75" y="293.3469"/><rect fill="#CCD0DA" height="8" style="stroke:#CCD0DA;stroke-width:0.5;" width="648.4941" x="271.75" y="325.6125"/><rect fill="none" height="170.3438" rx="8" ry="8" style="stroke:#BCC0CC;stroke-width:0.5;" width="648.4941" x="271.75" y="293.3469"/><ellipse cx="522.5229" cy="313.4797" fill="#DC8A78" rx="11" ry="11" style="stroke:#181818;stroke-width:1;"/><path d="M525.4917,319.1203 Q524.9136,319.4172 524.2729,319.5578 Q523.6323,319.7141 522.9292,319.7141 Q520.4292,319.7141 519.1011,318.0734 Q517.7886,316.4172 517.7886,313.2922 Q517.7886,310.1672 519.1011,308.5109 Q520.4292,306.8547 522.9292,306.8547 Q523.6323,306.8547 524.2729,307.0109 Q524.9292,307.1672 525.4917,307.4641 L525.4917,310.1828 Q524.8667,309.6047 524.2729,309.3391 Q523.6792,309.0578 523.0542,309.0578 Q521.7104,309.0578 521.0229,310.1359 Q520.3354,311.1984 520.3354,313.2922 Q520.3354,315.3859 521.0229,316.4641 Q521.7104,317.5266 523.0542,317.5266 Q523.6792,317.5266 524.2729,317.2609 Q524.8667,316.9797 525.4917,316.4016 L525.4917,319.1203 Z " fill="#4C4F69"/><text fill="#4C4F69" font-family="sans-serif" font-size="12" font-style="italic" lengthAdjust="spacing" textLength="59.0332" x="582.7305" y="309.4855">&#171;Service&#187;</text><text fill="#4C4F69" font-family="sans-serif" font-size="14" font-weight="bold" lengthAdjust="spacing" textLength="138.4482" x="543.0229" y="325.3107">DocumentService</text><line style="stroke:#BCC0CC;stroke-width:0.5;" x1="272.75" x2="919.2441" y1="333.6125" y2="333.6125"/><line style="stroke:#BCC0CC;stroke-width:0.5;" x1="272.75" x2="919.2441" y1="341.6125" y2="341.6125"/><rect fill="#F24D5C" height="6" style="stroke:#C82930;stroke-width:1;" width="6" x="279.75" y="352.2609"/><text fill="#4C4F69" font-family="sans-serif" font-size="14" lengthAdjust="spacing" textLength="283.9102" x="291.75" y="358.6076">toYDoc(entity: DocumentEntity): yjs.Doc</text><rect fill="#F24D5C" height="6" style="stroke:#C82930;stroke-width:1;" width="6" x="279.75" y="368.5578"/><text fill="#4C4F69" font-family="sans-serif" font-size="14" lengthAdjust="spacing" textLength="622.4941" x="291.75" y="374.9045">bufferToBlockNote(data: Buffer, editor: ServerBlockNoteEditor): @blocknote/core.Block[]</text><rect fill="#F24D5C" height="6" style="stroke:#C82930;stroke-width:1;" width="6" x="279.75" y="384.8547"/><text fill="#4C4F69" font-family="sans-serif" font-size="14" lengthAdjust="spacing" textLength="613.9219" x="291.75" y="391.2014">extractTagsAndOutgoingLinkIds(editor: ServerBlockNoteEditor): OutgoingLinksAndTags</text><ellipse cx="282.75" cy="404.1516" fill="#84BE84" rx="3" ry="3" style="stroke:#038048;stroke-width:1;"/><text fill="#4C4F69" font-family="sans-serif" font-size="14" lengthAdjust="spacing" textLength="371.1846" x="291.75" y="407.4982">commitDocument(documentId: string, userId: string)</text><ellipse cx="282.75" cy="420.4484" fill="#84BE84" rx="3" ry="3" style="stroke:#038048;stroke-width:1;"/><text fill="#4C4F69" font-family="sans-serif" font-size="14" lengthAdjust="spacing" textLength="580.4258" x="291.75" y="423.7951">getAttachmentUploadUrl(documentId: string, userId: string): AttachmentUploadUrl</text><ellipse cx="282.75" cy="436.7453" fill="#84BE84" rx="3" ry="3" style="stroke:#038048;stroke-width:1;"/><text fill="#4C4F69" font-family="sans-serif" font-size="14" lengthAdjust="spacing" textLength="279.0225" x="291.75" y="440.092">updateDataById(id: string, data: Buffer)</text><ellipse cx="282.75" cy="453.0422" fill="#84BE84" rx="3" ry="3" style="stroke:#038048;stroke-width:1;"/><text fill="#4C4F69" font-family="sans-serif" font-size="14" lengthAdjust="spacing" textLength="288.6611" x="291.75" y="456.3889">getById(id: string): DocumentEntity | null</text></g><!--class RevisionService--><g class="entity" data-entity="RevisionService" data-source-line="99" data-uid="ent0009" id="entity_RevisionService"><rect fill="#EFF1F5" height="121.4531" rx="8" ry="8" style="stroke:#BCC0CC;stroke-width:0.5;" width="730.7236" x="955.64" y="317.7869"/><rect fill="#CCD0DA" height="40.2656" rx="8" ry="8" style="stroke:#CCD0DA;stroke-width:0.5;" width="730.7236" x="955.64" y="317.7869"/><rect fill="#CCD0DA" height="8" style="stroke:#CCD0DA;stroke-width:0.5;" width="730.7236" x="955.64" y="350.0525"/><rect fill="none" height="121.4531" rx="8" ry="8" style="stroke:#BCC0CC;stroke-width:0.5;" width="730.7236" x="955.64" y="317.7869"/><ellipse cx="1254.1927" cy="337.9197" fill="#DC8A78" rx="11" ry="11" style="stroke:#181818;stroke-width:1;"/><path d="M1257.1615,343.5603 Q1256.5834,343.8572 1255.9427,343.9978 Q1255.3021,344.1541 1254.599,344.1541 Q1252.099,344.1541 1250.7709,342.5134 Q1249.4584,340.8572 1249.4584,337.7322 Q1249.4584,334.6072 1250.7709,332.9509 Q1252.099,331.2947 1254.599,331.2947 Q1255.3021,331.2947 1255.9427,331.4509 Q1256.599,331.6072 1257.1615,331.9041 L1257.1615,334.6228 Q1256.5365,334.0447 1255.9427,333.7791 Q1255.349,333.4978 1254.724,333.4978 Q1253.3802,333.4978 1252.6927,334.5759 Q1252.0052,335.6384 1252.0052,337.7322 Q1252.0052,339.8259 1252.6927,340.9041 Q1253.3802,341.9666 1254.724,341.9666 Q1255.349,341.9666 1255.9427,341.7009 Q1256.5365,341.4197 1257.1615,340.8416 L1257.1615,343.5603 Z " fill="#4C4F69"/><text fill="#4C4F69" font-family="sans-serif" font-size="12" font-style="italic" lengthAdjust="spacing" textLength="59.0332" x="1307.7352" y="333.9255">&#171;Service&#187;</text><text fill="#4C4F69" font-family="sans-serif" font-size="14" font-weight="bold" lengthAdjust="spacing" textLength="125.1182" x="1274.6927" y="349.7507">RevisionService</text><line style="stroke:#BCC0CC;stroke-width:0.5;" x1="956.64" x2="1685.3636" y1="358.0525" y2="358.0525"/><line style="stroke:#BCC0CC;stroke-width:0.5;" x1="956.64" x2="1685.3636" y1="366.0525" y2="366.0525"/><ellipse cx="966.64" cy="379.7009" fill="#84BE84" rx="3" ry="3" style="stroke:#038048;stroke-width:1;"/><text fill="#4C4F69" font-family="sans-serif" font-size="14" lengthAdjust="spacing" textLength="319.7646" x="975.64" y="383.0476">getRevision(revisionId: string): RevisionEntity</text><ellipse cx="966.64" cy="395.9978" fill="#84BE84" rx="3" ry="3" style="stroke:#038048;stroke-width:1;"/><text fill="#4C4F69" font-family="sans-serif" font-size="14" lengthAdjust="spacing" textLength="704.7236" x="975.64" y="399.3445">getRevisionsByDocumentId(documentId: string, page: number, limit: number): PaginatedRevisions[]</text><ellipse cx="966.64" cy="412.2947" fill="#84BE84" rx="3" ry="3" style="stroke:#038048;stroke-width:1;"/><text fill="#4C4F69" font-family="sans-serif" font-size="14" lengthAdjust="spacing" textLength="378.7725" x="975.64" y="415.6414">renameRevision(revisionId: string, name: string | null)</text><ellipse cx="966.64" cy="428.5916" fill="#84BE84" rx="3" ry="3" style="stroke:#038048;stroke-width:1;"/><text fill="#4C4F69" font-family="sans-serif" font-size="14" lengthAdjust="spacing" textLength="231.7041" x="975.64" y="431.9382">deleteRevision(revisionId: string)</text></g><!--class UserNotePermission--><g class="entity" data-entity="UserNotePermission" data-source-line="106" data-uid="ent0010" id="entity_UserNotePermission"><rect fill="#EFF1F5" height="105.1563" rx="8" ry="8" style="stroke:#BCC0CC;stroke-width:0.5;" width="192.7197" x="1721.64" y="325.9369"/><rect fill="#CCD0DA" height="40.2656" rx="8" ry="8" style="stroke:#CCD0DA;stroke-width:0.5;" width="192.7197" x="1721.64" y="325.9369"/><rect fill="#CCD0DA" height="8" style="stroke:#CCD0DA;stroke-width:0.5;" width="192.7197" x="1721.64" y="358.2025"/><rect fill="none" height="105.1563" rx="8" ry="8" style="stroke:#BCC0CC;stroke-width:0.5;" width="192.7197" x="1721.64" y="325.9369"/><ellipse cx="1736.64" cy="346.0697" fill="#FE640B" rx="11" ry="11" style="stroke:#181818;stroke-width:1;"/><path d="M1740.7494,352.0697 L1733.0306,352.0697 L1733.0306,339.6791 L1740.7494,339.6791 L1740.7494,341.8353 L1735.4838,341.8353 L1735.4838,344.5072 L1740.2494,344.5072 L1740.2494,346.6634 L1735.4838,346.6634 L1735.4838,349.9134 L1740.7494,349.9134 L1740.7494,352.0697 Z " fill="#4C4F69"/><text fill="#4C4F69" font-family="sans-serif" font-size="12" font-style="italic" lengthAdjust="spacing" textLength="49.166" x="1806.4169" y="342.0755">&#171;Enum&#187;</text><text fill="#4C4F69" font-family="sans-serif" font-size="14" font-weight="bold" lengthAdjust="spacing" textLength="160.7197" x="1750.64" y="357.9007">UserNotePermission</text><line style="stroke:#BCC0CC;stroke-width:0.5;" x1="1722.64" x2="1913.3597" y1="366.2025" y2="366.2025"/><text fill="#4C4F69" font-family="sans-serif" font-size="14" lengthAdjust="spacing" textLength="31.835" x="1727.64" y="383.1976">read</text><text fill="#4C4F69" font-family="sans-serif" font-size="14" lengthAdjust="spacing" textLength="35.1982" x="1727.64" y="399.4945">write</text><text fill="#4C4F69" font-family="sans-serif" font-size="14" lengthAdjust="spacing" textLength="44.1055" x="1727.64" y="415.7914">delete</text><line style="stroke:#BCC0CC;stroke-width:0.5;" x1="1722.64" x2="1913.3597" y1="423.0931" y2="423.0931"/></g><!--class WorkspaceItemPermission--><g class="entity" data-entity="WorkspaceItemPermission" data-source-line="112" data-uid="ent0011" id="entity_WorkspaceItemPermission"><rect fill="#EFF1F5" height="105.1563" rx="8" ry="8" style="stroke:#BCC0CC;stroke-width:0.5;" width="241.9521" x="23.02" y="556.2869"/><rect fill="#CCD0DA" height="40.2656" rx="8" ry="8" style="stroke:#CCD0DA;stroke-width:0.5;" width="241.9521" x="23.02" y="556.2869"/><rect fill="#CCD0DA" height="8" style="stroke:#CCD0DA;stroke-width:0.5;" width="241.9521" x="23.02" y="588.5525"/><rect fill="none" height="105.1563" rx="8" ry="8" style="stroke:#BCC0CC;stroke-width:0.5;" width="241.9521" x="23.02" y="556.2869"/><ellipse cx="38.02" cy="576.4197" fill="#DD7878" rx="11" ry="11" style="stroke:#181818;stroke-width:1;"/><path d="M38.8638,583.1697 L36.4106,583.1697 L36.4106,572.9197 L33.27,572.9197 L33.27,570.7791 L42.0044,570.7791 L42.0044,572.9197 L38.8638,572.9197 L38.8638,583.1697 Z " fill="#4C4F69"/><text fill="#4C4F69" font-family="sans-serif" font-size="12" font-style="italic" lengthAdjust="spacing" textLength="44.1152" x="134.9385" y="572.4255">&#171;Type&#187;</text><text fill="#4C4F69" font-family="sans-serif" font-size="14" font-weight="bold" lengthAdjust="spacing" textLength="209.9521" x="52.02" y="588.2507">WorkspaceItemPermission</text><line style="stroke:#BCC0CC;stroke-width:0.5;" x1="24.02" x2="263.9721" y1="596.5525" y2="596.5525"/><text fill="#4C4F69" font-family="sans-serif" font-size="14" lengthAdjust="spacing" textLength="126.0957" x="29.02" y="613.5476">canRead: boolean</text><text fill="#4C4F69" font-family="sans-serif" font-size="14" lengthAdjust="spacing" textLength="127.8799" x="29.02" y="629.8445">canWrite: boolean</text><text fill="#4C4F69" font-family="sans-serif" font-size="14" lengthAdjust="spacing" textLength="136.2881" x="29.02" y="646.1414">canDelete: boolean</text><line style="stroke:#BCC0CC;stroke-width:0.5;" x1="24.02" x2="263.9721" y1="653.4431" y2="653.4431"/></g><!--class AuthorizationService--><g class="entity" data-entity="AuthorizationService" data-source-line="118" data-uid="ent0012" id="entity_AuthorizationService"><rect fill="#EFF1F5" height="121.4531" rx="8" ry="8" style="stroke:#BCC0CC;stroke-width:0.5;" width="735.7002" x="300.15" y="548.1369"/><rect fill="#CCD0DA" height="40.2656" rx="8" ry="8" style="stroke:#CCD0DA;stroke-width:0.5;" width="735.7002" x="300.15" y="548.1369"/><rect fill="#CCD0DA" height="8" style="stroke:#CCD0DA;stroke-width:0.5;" width="735.7002" x="300.15" y="580.4025"/><rect fill="none" height="121.4531" rx="8" ry="8" style="stroke:#BCC0CC;stroke-width:0.5;" width="735.7002" x="300.15" y="548.1369"/><ellipse cx="580.9225" cy="568.2697" fill="#DC8A78" rx="11" ry="11" style="stroke:#181818;stroke-width:1;"/><path d="M583.8912,573.9103 Q583.3131,574.2072 582.6725,574.3478 Q582.0318,574.5041 581.3287,574.5041 Q578.8287,574.5041 577.5006,572.8634 Q576.1881,571.2072 576.1881,568.0822 Q576.1881,564.9572 577.5006,563.3009 Q578.8287,561.6447 581.3287,561.6447 Q582.0318,561.6447 582.6725,561.8009 Q583.3287,561.9572 583.8912,562.2541 L583.8912,564.9728 Q583.2662,564.3947 582.6725,564.1291 Q582.0787,563.8478 581.4537,563.8478 Q580.11,563.8478 579.4225,564.9259 Q578.735,565.9884 578.735,568.0822 Q578.735,570.1759 579.4225,571.2541 Q580.11,572.3166 581.4537,572.3166 Q582.0787,572.3166 582.6725,572.0509 Q583.2662,571.7697 583.8912,571.1916 L583.8912,573.9103 Z " fill="#4C4F69"/><text fill="#4C4F69" font-family="sans-serif" font-size="12" font-style="italic" lengthAdjust="spacing" textLength="59.0332" x="654.7335" y="564.2755">&#171;Service&#187;</text><text fill="#4C4F69" font-family="sans-serif" font-size="14" font-weight="bold" lengthAdjust="spacing" textLength="165.6553" x="601.4225" y="580.1007">AuthorizationService</text><line style="stroke:#BCC0CC;stroke-width:0.5;" x1="301.15" x2="1034.8502" y1="588.4025" y2="588.4025"/><line style="stroke:#BCC0CC;stroke-width:0.5;" x1="301.15" x2="1034.8502" y1="596.4025" y2="596.4025"/><rect fill="#F24D5C" height="6" style="stroke:#C82930;stroke-width:1;" width="6" x="308.15" y="607.0509"/><text fill="#4C4F69" font-family="sans-serif" font-size="14" lengthAdjust="spacing" textLength="679.0957" x="320.15" y="613.3976">toWorkspaceItemPermissionPb(permissions: UserNotePermission): pb.WorkspaceItemPermission</text><ellipse cx="311.15" cy="626.3478" fill="#84BE84" rx="3" ry="3" style="stroke:#038048;stroke-width:1;"/><text fill="#4C4F69" font-family="sans-serif" font-size="14" lengthAdjust="spacing" textLength="709.7002" x="320.15" y="629.6945">hasNotePermission(memberId: string, documentId: string, permission: UserNotePermission): boolean</text><ellipse cx="311.15" cy="642.6447" fill="#84BE84" rx="3" ry="3" style="stroke:#038048;stroke-width:1;"/><text fill="#4C4F69" font-family="sans-serif" font-size="14" lengthAdjust="spacing" textLength="681.748" x="320.15" y="645.9914">getWorkspaceItemPermission(memberId: string, workspaceId: string): WorkspaceItemPermission</text><ellipse cx="311.15" cy="658.9416" fill="#84BE84" rx="3" ry="3" style="stroke:#038048;stroke-width:1;"/><text fill="#4C4F69" font-family="sans-serif" font-size="14" lengthAdjust="spacing" textLength="640.5684" x="320.15" y="662.2882">getUserNotePermissions(memberId: string, documentId: string): WorkspaceItemPermission</text></g><!--class NoteModel--><g class="entity" data-entity="NoteModel" data-source-line="125" data-uid="ent0013" id="entity_NoteModel"><rect fill="#EFF1F5" height="170.3438" rx="8" ry="8" style="stroke:#BCC0CC;stroke-width:0.5;" width="180.6768" x="1070.66" y="523.6869"/><rect fill="#CCD0DA" height="40.2656" rx="8" ry="8" style="stroke:#CCD0DA;stroke-width:0.5;" width="180.6768" x="1070.66" y="523.6869"/><rect fill="#CCD0DA" height="8" style="stroke:#CCD0DA;stroke-width:0.5;" width="180.6768" x="1070.66" y="555.9525"/><rect fill="none" height="170.3438" rx="8" ry="8" style="stroke:#BCC0CC;stroke-width:0.5;" width="180.6768" x="1070.66" y="523.6869"/><ellipse cx="1114.1401" cy="543.8197" fill="#DD7878" rx="11" ry="11" style="stroke:#181818;stroke-width:1;"/><path d="M1114.9838,550.5697 L1112.5307,550.5697 L1112.5307,540.3197 L1109.3901,540.3197 L1109.3901,538.1791 L1118.1245,538.1791 L1118.1245,540.3197 L1114.9838,540.3197 L1114.9838,550.5697 Z " fill="#4C4F69"/><text fill="#4C4F69" font-family="sans-serif" font-size="12" font-style="italic" lengthAdjust="spacing" textLength="44.1152" x="1155.1052" y="539.8255">&#171;Type&#187;</text><text fill="#4C4F69" font-family="sans-serif" font-size="14" font-weight="bold" lengthAdjust="spacing" textLength="85.3877" x="1134.469" y="555.6507">NoteModel</text><line style="stroke:#BCC0CC;stroke-width:0.5;" x1="1071.66" x2="1250.3368" y1="563.9525" y2="563.9525"/><text fill="#4C4F69" font-family="sans-serif" font-size="14" lengthAdjust="spacing" textLength="62.1318" x="1076.66" y="580.9476">id: string</text><text fill="#4C4F69" font-family="sans-serif" font-size="14" lengthAdjust="spacing" textLength="89.0586" x="1076.66" y="597.2445">name: string</text><text fill="#4C4F69" font-family="sans-serif" font-size="14" lengthAdjust="spacing" textLength="85.8115" x="1076.66" y="613.5414">icon?: string</text><text fill="#4C4F69" font-family="sans-serif" font-size="14" lengthAdjust="spacing" textLength="103.0107" x="1076.66" y="629.8382">folderId: string</text><text fill="#4C4F69" font-family="sans-serif" font-size="14" lengthAdjust="spacing" textLength="90.5283" x="1076.66" y="646.1351">tags: string[]</text><text fill="#4C4F69" font-family="sans-serif" font-size="14" lengthAdjust="spacing" textLength="123.3408" x="1076.66" y="662.432">updatedAt?: Date</text><text fill="#4C4F69" font-family="sans-serif" font-size="14" lengthAdjust="spacing" textLength="168.6768" x="1076.66" y="678.7289">trashed?: TrashedModel</text><line style="stroke:#BCC0CC;stroke-width:0.5;" x1="1071.66" x2="1250.3368" y1="686.0306" y2="686.0306"/></g><!--class TrashedModel--><g class="entity" data-entity="TrashedModel" data-source-line="135" data-uid="ent0014" id="entity_TrashedModel"><rect fill="#EFF1F5" height="88.8594" rx="8" ry="8" style="stroke:#BCC0CC;stroke-width:0.5;" width="170.4229" x="1286.79" y="564.4369"/><rect fill="#CCD0DA" height="40.2656" rx="8" ry="8" style="stroke:#CCD0DA;stroke-width:0.5;" width="170.4229" x="1286.79" y="564.4369"/><rect fill="#CCD0DA" height="8" style="stroke:#CCD0DA;stroke-width:0.5;" width="170.4229" x="1286.79" y="596.7025"/><rect fill="none" height="88.8594" rx="8" ry="8" style="stroke:#BCC0CC;stroke-width:0.5;" width="170.4229" x="1286.79" y="564.4369"/><ellipse cx="1313.8679" cy="584.5697" fill="#DD7878" rx="11" ry="11" style="stroke:#181818;stroke-width:1;"/><path d="M1314.7117,591.3197 L1312.2586,591.3197 L1312.2586,581.0697 L1309.1179,581.0697 L1309.1179,578.9291 L1317.8523,578.9291 L1317.8523,581.0697 L1314.7117,581.0697 L1314.7117,591.3197 Z " fill="#4C4F69"/><text fill="#4C4F69" font-family="sans-serif" font-size="12" font-style="italic" lengthAdjust="spacing" textLength="44.1152" x="1364.2858" y="580.5755">&#171;Type&#187;</text><text fill="#4C4F69" font-family="sans-serif" font-size="14" font-weight="bold" lengthAdjust="spacing" textLength="111.583" x="1330.5519" y="596.4007">TrashedModel</text><line style="stroke:#BCC0CC;stroke-width:0.5;" x1="1287.79" x2="1456.2129" y1="604.7025" y2="604.7025"/><text fill="#4C4F69" font-family="sans-serif" font-size="14" lengthAdjust="spacing" textLength="158.4229" x="1292.79" y="621.6976">by: 'purpose' | 'parent'</text><text fill="#4C4F69" font-family="sans-serif" font-size="14" lengthAdjust="spacing" textLength="56.6973" x="1292.79" y="637.9945">at: Date</text><line style="stroke:#BCC0CC;stroke-width:0.5;" x1="1287.79" x2="1456.2129" y1="645.2963" y2="645.2963"/></g><!--class WorkspaceModel--><g class="entity" data-entity="WorkspaceModel" data-source-line="140" data-uid="ent0015" id="entity_WorkspaceModel"><rect fill="#EFF1F5" height="105.1563" rx="8" ry="8" style="stroke:#BCC0CC;stroke-width:0.5;" width="166.7363" x="60.63" y="762.1869"/><rect fill="#CCD0DA" height="40.2656" rx="8" ry="8" style="stroke:#CCD0DA;stroke-width:0.5;" width="166.7363" x="60.63" y="762.1869"/><rect fill="#CCD0DA" height="8" style="stroke:#CCD0DA;stroke-width:0.5;" width="166.7363" x="60.63" y="794.4525"/><rect fill="none" height="105.1563" rx="8" ry="8" style="stroke:#BCC0CC;stroke-width:0.5;" width="166.7363" x="60.63" y="762.1869"/><ellipse cx="75.63" cy="782.3197" fill="#DD7878" rx="11" ry="11" style="stroke:#181818;stroke-width:1;"/><path d="M76.4738,789.0697 L74.0206,789.0697 L74.0206,778.8197 L70.88,778.8197 L70.88,776.6791 L79.6144,776.6791 L79.6144,778.8197 L76.4738,778.8197 L76.4738,789.0697 Z " fill="#4C4F69"/><text fill="#4C4F69" font-family="sans-serif" font-size="12" font-style="italic" lengthAdjust="spacing" textLength="44.1152" x="134.9405" y="778.3255">&#171;Type&#187;</text><text fill="#4C4F69" font-family="sans-serif" font-size="14" font-weight="bold" lengthAdjust="spacing" textLength="134.7363" x="89.63" y="794.1507">WorkspaceModel</text><line style="stroke:#BCC0CC;stroke-width:0.5;" x1="61.63" x2="226.3663" y1="802.4525" y2="802.4525"/><text fill="#4C4F69" font-family="sans-serif" font-size="14" lengthAdjust="spacing" textLength="62.1318" x="66.63" y="819.4476">id: string</text><text fill="#4C4F69" font-family="sans-serif" font-size="14" lengthAdjust="spacing" textLength="89.0586" x="66.63" y="835.7445">name: string</text><text fill="#4C4F69" font-family="sans-serif" font-size="14" lengthAdjust="spacing" textLength="78.2988" x="66.63" y="852.0414">slug: string</text><line style="stroke:#BCC0CC;stroke-width:0.5;" x1="61.63" x2="226.3663" y1="859.3431" y2="859.3431"/></g><!--class NoteService--><g class="entity" data-entity="NoteService" data-source-line="146" data-uid="ent0016" id="entity_NoteService"><rect fill="#EFF1F5" height="121.4531" rx="8" ry="8" style="stroke:#BCC0CC;stroke-width:0.5;" width="596.9033" x="262.55" y="754.0369"/><rect fill="#CCD0DA" height="40.2656" rx="8" ry="8" style="stroke:#CCD0DA;stroke-width:0.5;" width="596.9033" x="262.55" y="754.0369"/><rect fill="#CCD0DA" height="8" style="stroke:#CCD0DA;stroke-width:0.5;" width="596.9033" x="262.55" y="786.3025"/><rect fill="none" height="121.4531" rx="8" ry="8" style="stroke:#BCC0CC;stroke-width:0.5;" width="596.9033" x="262.55" y="754.0369"/><ellipse cx="508.8898" cy="774.1697" fill="#DC8A78" rx="11" ry="11" style="stroke:#181818;stroke-width:1;"/><path d="M511.8586,779.8103 Q511.2805,780.1072 510.6398,780.2478 Q509.9992,780.4041 509.2961,780.4041 Q506.7961,780.4041 505.468,778.7634 Q504.1555,777.1072 504.1555,773.9822 Q504.1555,770.8572 505.468,769.2009 Q506.7961,767.5447 509.2961,767.5447 Q509.9992,767.5447 510.6398,767.7009 Q511.2961,767.8572 511.8586,768.1541 L511.8586,770.8728 Q511.2336,770.2947 510.6398,770.0291 Q510.0461,769.7478 509.4211,769.7478 Q508.0773,769.7478 507.3898,770.8259 Q506.7023,771.8884 506.7023,773.9822 Q506.7023,776.0759 507.3898,777.1541 Q508.0773,778.2166 509.4211,778.2166 Q510.0461,778.2166 510.6398,777.9509 Q511.2336,777.6697 511.8586,777.0916 L511.8586,779.8103 Z " fill="#4C4F69"/><text fill="#4C4F69" font-family="sans-serif" font-size="12" font-style="italic" lengthAdjust="spacing" textLength="59.0332" x="547.7351" y="770.1755">&#171;Service&#187;</text><text fill="#4C4F69" font-family="sans-serif" font-size="14" font-weight="bold" lengthAdjust="spacing" textLength="95.7236" x="529.3898" y="786.0007">NoteService</text><line style="stroke:#BCC0CC;stroke-width:0.5;" x1="263.55" x2="858.4533" y1="794.3025" y2="794.3025"/><line style="stroke:#BCC0CC;stroke-width:0.5;" x1="263.55" x2="858.4533" y1="802.3025" y2="802.3025"/><ellipse cx="273.55" cy="815.9509" fill="#84BE84" rx="3" ry="3" style="stroke:#038048;stroke-width:1;"/><text fill="#4C4F69" font-family="sans-serif" font-size="14" lengthAdjust="spacing" textLength="570.9033" x="282.55" y="819.2976">getNoteById(noteId: string, userId: string, excludeTrashed?: boolean): NoteModel</text><ellipse cx="273.55" cy="832.2478" fill="#84BE84" rx="3" ry="3" style="stroke:#038048;stroke-width:1;"/><text fill="#4C4F69" font-family="sans-serif" font-size="14" lengthAdjust="spacing" textLength="251.624" x="282.55" y="835.5945">getNoteName(noteId: string): string</text><ellipse cx="273.55" cy="848.5447" fill="#84BE84" rx="3" ry="3" style="stroke:#038048;stroke-width:1;"/><text fill="#4C4F69" font-family="sans-serif" font-size="14" lengthAdjust="spacing" textLength="486.5479" x="282.55" y="851.8914">getWorkspaceByNote(userId: string, noteId: string): WorkspaceModel</text><rect fill="#F24D5C" height="6" style="stroke:#C82930;stroke-width:1;" width="6" x="270.55" y="861.8416"/><text fill="#4C4F69" font-family="sans-serif" font-size="14" lengthAdjust="spacing" textLength="350.5332" x="282.55" y="868.1882">toTrashedModel(trashed: Trashed): TrashedModel</text></g><!--class HocuspocusService--><g class="entity" data-entity="HocuspocusService" data-source-line="153" data-uid="ent0017" id="entity_HocuspocusService"><rect fill="#EFF1F5" height="88.8594" rx="8" ry="8" style="stroke:#BCC0CC;stroke-width:0.5;" width="417.4053" x="894.3" y="770.3269"/><rect fill="#CCD0DA" height="40.2656" rx="8" ry="8" style="stroke:#CCD0DA;stroke-width:0.5;" width="417.4053" x="894.3" y="770.3269"/><rect fill="#CCD0DA" height="8" style="stroke:#CCD0DA;stroke-width:0.5;" width="417.4053" x="894.3" y="802.5925"/><rect fill="none" height="88.8594" rx="8" ry="8" style="stroke:#BCC0CC;stroke-width:0.5;" width="417.4053" x="894.3" y="770.3269"/><ellipse cx="1022.5661" cy="790.4597" fill="#DC8A78" rx="11" ry="11" style="stroke:#181818;stroke-width:1;"/><path d="M1025.5349,796.1003 Q1024.9567,796.3972 1024.3161,796.5378 Q1023.6755,796.6941 1022.9724,796.6941 Q1020.4724,796.6941 1019.1442,795.0534 Q1017.8317,793.3972 1017.8317,790.2722 Q1017.8317,787.1472 1019.1442,785.4909 Q1020.4724,783.8347 1022.9724,783.8347 Q1023.6755,783.8347 1024.3161,783.9909 Q1024.9724,784.1472 1025.5349,784.4441 L1025.5349,787.1628 Q1024.9099,786.5847 1024.3161,786.3191 Q1023.7224,786.0378 1023.0974,786.0378 Q1021.7536,786.0378 1021.0661,787.1159 Q1020.3786,788.1784 1020.3786,790.2722 Q1020.3786,792.3659 1021.0661,793.4441 Q1021.7536,794.5066 1023.0974,794.5066 Q1023.7224,794.5066 1024.3161,794.2409 Q1024.9099,793.9597 1025.5349,793.3816 L1025.5349,796.1003 Z " fill="#4C4F69"/><text fill="#4C4F69" font-family="sans-serif" font-size="12" font-style="italic" lengthAdjust="spacing" textLength="59.0332" x="1089.736" y="786.4655">&#171;Service&#187;</text><text fill="#4C4F69" font-family="sans-serif" font-size="14" font-weight="bold" lengthAdjust="spacing" textLength="152.373" x="1043.0661" y="802.2907">HocuspocusService</text><line style="stroke:#BCC0CC;stroke-width:0.5;" x1="895.3" x2="1310.7053" y1="810.5925" y2="810.5925"/><line style="stroke:#BCC0CC;stroke-width:0.5;" x1="895.3" x2="1310.7053" y1="818.5925" y2="818.5925"/><ellipse cx="905.3" cy="832.2409" fill="#84BE84" rx="3" ry="3" style="stroke:#038048;stroke-width:1;"/><text fill="#4C4F69" font-family="sans-serif" font-size="14" lengthAdjust="spacing" textLength="360.7734" x="914.3" y="835.5876">onRoleChanged(workspaceId: string, userId: string)</text><ellipse cx="905.3" cy="848.5378" fill="#84BE84" rx="3" ry="3" style="stroke:#038048;stroke-width:1;"/><text fill="#4C4F69" font-family="sans-serif" font-size="14" lengthAdjust="spacing" textLength="391.4053" x="914.3" y="851.8845">onMemberRemoved(workspaceId: string, userId: string)</text></g><!--class StorageService--><g class="entity" data-entity="StorageService" data-source-line="158" data-uid="ent0018" id="entity_StorageService"><rect fill="#EFF1F5" height="72.5625" rx="8" ry="8" style="stroke:#BCC0CC;stroke-width:0.5;" width="555.6621" x="1347.17" y="778.4769"/><rect fill="#CCD0DA" height="40.2656" rx="8" ry="8" style="stroke:#CCD0DA;stroke-width:0.5;" width="555.6621" x="1347.17" y="778.4769"/><rect fill="#CCD0DA" height="8" style="stroke:#CCD0DA;stroke-width:0.5;" width="555.6621" x="1347.17" y="810.7425"/><rect fill="none" height="72.5625" rx="8" ry="8" style="stroke:#BCC0CC;stroke-width:0.5;" width="555.6621" x="1347.17" y="778.4769"/><ellipse cx="1560.5196" cy="798.6097" fill="#DC8A78" rx="11" ry="11" style="stroke:#181818;stroke-width:1;"/><path d="M1563.4884,804.2503 Q1562.9102,804.5472 1562.2696,804.6878 Q1561.629,804.8441 1560.9259,804.8441 Q1558.4259,804.8441 1557.0977,803.2034 Q1555.7852,801.5472 1555.7852,798.4222 Q1555.7852,795.2972 1557.0977,793.6409 Q1558.4259,791.9847 1560.9259,791.9847 Q1561.629,791.9847 1562.2696,792.1409 Q1562.9259,792.2972 1563.4884,792.5941 L1563.4884,795.3128 Q1562.8634,794.7347 1562.2696,794.4691 Q1561.6759,794.1878 1561.0509,794.1878 Q1559.7071,794.1878 1559.0196,795.2659 Q1558.3321,796.3284 1558.3321,798.4222 Q1558.3321,800.5159 1559.0196,801.5941 Q1559.7071,802.6566 1561.0509,802.6566 Q1561.6759,802.6566 1562.2696,802.3909 Q1562.8634,802.1097 1563.4884,801.5316 L1563.4884,804.2503 Z " fill="#4C4F69"/><text fill="#4C4F69" font-family="sans-serif" font-size="12" font-style="italic" lengthAdjust="spacing" textLength="59.0332" x="1611.7345" y="794.6155">&#171;Service&#187;</text><text fill="#4C4F69" font-family="sans-serif" font-size="14" font-weight="bold" lengthAdjust="spacing" textLength="120.4629" x="1581.0196" y="810.4407">StorageService</text><line style="stroke:#BCC0CC;stroke-width:0.5;" x1="1348.17" x2="1901.8321" y1="818.7425" y2="818.7425"/><line style="stroke:#BCC0CC;stroke-width:0.5;" x1="1348.17" x2="1901.8321" y1="826.7425" y2="826.7425"/><ellipse cx="1358.17" cy="840.3909" fill="#84BE84" rx="3" ry="3" style="stroke:#038048;stroke-width:1;"/><text fill="#4C4F69" font-family="sans-serif" font-size="14" lengthAdjust="spacing" textLength="529.6621" x="1367.17" y="843.7376">generateAttachmentPresignedUploadUrl(key: string): AttachmentUploadUrl</text></g><!--SRC=[dLTPRzms47xVNy6u1RoBEExws1DfKbz133I9uGD1KVI18aThTIbIe2WxczR_lKFgMEfOhrC_6Aivlhbd91CP0UHSiIm6QNgzLpzhbS8ZDQ39hsJd9ywcT3BTGNeeQ1p9XI8vdK-cEJs9v9AuFqi7EXcpmD9ZcZr0HPzEZsOGMhe6JjRo_70O7iroUQsKh736nwFHaSC7okuh-H0PGuU_0Y7KOuKJJk60M_f20yXA_dX8XuTEtW0LQxi7azdXpDbDbolFd-4n7S78qMcIt4SQSlhXS1O6ZYxe0qYEwN7qoU5q4ZgxWSZ0muVnE1pbTh-PDVsO7OVZt6uMMDP1JX-nKJYPUFHXJX-pSJXrEEe1jA2hmy8kcuIp8uzUu4pPDAG77ht0cJ4w38OvlWufWmA7ic0OW4SlS0B6Xenvz0A7CJxarCLBKozU2CE3FDwOIjjILHsXg3lJMMhMTKT4mFxffSj89bJJc0IKBHTQPPAVAQ4qSHOyFeUGPi9yKD8K0ZPFde3JPKfBBCx1s6CmGTFKwjsO5ReMAC4zxedMwh50B9FliHDqYouWLzN039KB0Rss1FcdPwCxROQH9oJdAOsTKzdA4-uuNbHkS7fFlMO0c_1Tcfv7_mWKEItDihHEviGO7GMPWMQ2qPDNcFj80ha1_H0nw4iQmw3mQiS-x12QLbjatrB8sxVzipsoNYU3KllTkmhlGfh8h7u43gTrKAXvEBUhvCLEtI9AkSi6JhFcK1ONG80_dyEvG1otcmPE2q5wPIFibC8rJLJwWCL4SqKbY-XBVluuA9ZsB-9pac9LvA8YSMhed9ncOGYw8iQAHs44A1qe9O3AYgFX8KeZ9TCvkIv-vcR-_Cl9O6qzJ-eYspmft9wJUW2LW4rKgKN-9J8Jek8nx36d-riW55jAPU0Nd5pOFxMFXNDEK0Cs3p-nPl37sZe8yEW-VX6JwmbiQgoGTUuk4OhoEotyiBAIs8ekoG8HiIR7XxwYYqXQtygifJxojiGx6zWhS_Gx3hnQYYYEJ8jgbA6YHlLT-PAPXK8VVyTJd9v8VaiNDMSCFfTnUFQLftR9cnA5WNBaoo8Nppxy6tJl3-JtmKNOR8Z1dAp-JlUHw6a4heDlbQltPon_t-_iFG8yCahFdNdSNANKXICFjlVD6uAhIrDcR2um9L_giVQtuNUbj09_ZVqROvdAEFlbB5nMOx97iXJq-ddWAI_0TFJbIq3cf4FHGyuIp2BWGD3JrINlHnwIdzw6CmtPGRE07SDLTaNPsnrTuQ1BVh-SXremzSderanFL-TLOZfpv8_HNdr-q4PxJBqkUOrpQjVKCsxkTUqnFu7v9dekqFgcnGDpXrMrtNO5EevIArrV7PHN3uywQcszrln_LNgPul61ImDnDoYZyXfnsnS26L-jZKxEkRDNPpKwu2Gpzqf7twdfRWEx73RuTnNqa-e1rqz7MkOa2VOtg7irkATfNR4VWws_NyRErgaKDbXlviIrvWP_Ecm-Lf9-ss-F1usqtKbV5DGMVBzjBFmdXJsrvTBx0x2MmnF-laKDyTNQzt3R2SeN5fxnzutxZhixlGUEvDlybtEq5OBFzAC8y0hj9fbEyErp5uTs5z-ZCKsxbG3rNoWwP-b_PoOLsQBhhQ6S69lsJVlIyjmwjfTjyo70-_YDYOp3RPMcebEn_5LPsz2VqTy6zA3bVxt7JrVkEZVjjq3gUQkDlr-aVb7Oggw3pHKk4_OHcpnDxB_Ej2bvZQ6VtUDt6V1-nyWzTukL_EI6wXfY_63-0VM6ZpVusc2_4hlhYb-as6lhstsb8OqM4lZw-YzXzO8p_zHx-Wy0]--></g></svg>