<?plantuml 1.2026.1?><svg xmlns="http://www.w3.org/2000/svg" xmlns:xlink="http://www.w3.org/1999/xlink" contentStyleType="text/css" data-diagram-type="CLASS" height="684px" preserveAspectRatio="none" style="width:1560px;height:684px;background:#EFF1F5;" version="1.1" viewBox="0 0 1560 684" width="1560px" zoomAndPan="magnify"><title>Document</title><defs/><g><rect fill="#EFF1F5" height="684" style="stroke:none;stroke-width:1;" width="1560" x="0" y="0"/><g class="title" data-source-line="1"><text fill="#4C4F69" font-family="sans-serif" font-size="14" font-weight="bold" lengthAdjust="spacing" textLength="80.2471" x="732.8765" y="22.9951">Document</text></g><!--cluster Document--><g class="cluster" data-qualified-name="Document" data-source-line="56" id="ent0002"><rect fill="#E6E9EF" height="634.55" rx="8" ry="8" style="stroke:#BCC0CC;stroke-width:1;" width="1547" x="7" y="44.2969"/><path d="M97.2471,44.2969 L97.2471,53.5938 L87.2471,63.5938 L7,63.5938" fill="none" style="stroke:#BCC0CC;stroke-width:1;"/><text fill="#4C4F69" font-family="sans-serif" font-size="14" font-weight="bold" lengthAdjust="spacing" textLength="80.2471" x="10" y="58.292">Document</text></g><!--class DocumentEntity--><g class="entity" data-qualified-name="Document.DocumentEntity" data-source-line="57" id="ent0003"><rect fill="#EFF1F5" height="88.8594" rx="8" ry="8" style="stroke:#BCC0CC;stroke-width:0.5;" width="159.0869" x="673.46" y="549.5469"/><rect fill="#CCD0DA" height="40.2656" rx="8" ry="8" style="stroke:#CCD0DA;stroke-width:0.5;" width="159.0869" x="673.46" y="549.5469"/><rect fill="#CCD0DA" height="8" style="stroke:#CCD0DA;stroke-width:0.5;" width="159.0869" x="673.46" y="581.8125"/><rect fill="none" height="88.8594" rx="8" ry="8" style="stroke:#BCC0CC;stroke-width:0.5;" width="159.0869" x="673.46" y="549.5469"/><ellipse cx="688.46" cy="569.6797" fill="#04A5E5" rx="11" ry="11" style="stroke:#181818;stroke-width:1;"/><path d="M691.4288,575.3203 Q690.8506,575.6172 690.21,575.7578 Q689.5694,575.9141 688.8663,575.9141 Q686.3663,575.9141 685.0381,574.2734 Q683.7256,572.6172 683.7256,569.4922 Q683.7256,566.3672 685.0381,564.7109 Q686.3663,563.0547 688.8663,563.0547 Q689.5694,563.0547 690.21,563.2109 Q690.8663,563.3672 691.4288,563.6641 L691.4288,566.3828 Q690.8038,565.8047 690.21,565.5391 Q689.6163,565.2578 688.9913,565.2578 Q687.6475,565.2578 686.96,566.3359 Q686.2725,567.3984 686.2725,569.4922 Q686.2725,571.5859 686.96,572.6641 Q687.6475,573.7266 688.9913,573.7266 Q689.6163,573.7266 690.21,573.4609 Q690.8038,573.1797 691.4288,572.6016 L691.4288,575.3203 Z " fill="#4C4F69"/><text fill="#4C4F69" font-family="sans-serif" font-size="12" font-style="italic" lengthAdjust="spacing" textLength="49.7168" x="741.1451" y="565.6855">&#171;Entity&#187;</text><text fill="#4C4F69" font-family="sans-serif" font-size="14" font-weight="bold" lengthAdjust="spacing" textLength="127.0869" x="702.46" y="581.5107">DocumentEntity</text><line style="stroke:#BCC0CC;stroke-width:0.5;" x1="674.46" x2="831.5469" y1="589.8125" y2="589.8125"/><text fill="#4C4F69" font-family="sans-serif" font-size="14" lengthAdjust="spacing" textLength="62.1318" x="679.46" y="606.8076">id: string</text><text fill="#4C4F69" font-family="sans-serif" font-size="14" lengthAdjust="spacing" textLength="83.4053" x="679.46" y="623.1045">data: Buffer</text><line style="stroke:#BCC0CC;stroke-width:0.5;" x1="674.46" x2="831.5469" y1="630.4063" y2="630.4063"/></g><!--class RevisionEntity--><g class="entity" data-qualified-name="Document.RevisionEntity" data-source-line="62" id="ent0004"><rect fill="#EFF1F5" height="137.75" rx="8" ry="8" style="stroke:#BCC0CC;stroke-width:0.5;" width="145.7568" x="186.12" y="525.0969"/><rect fill="#CCD0DA" height="40.2656" rx="8" ry="8" style="stroke:#CCD0DA;stroke-width:0.5;" width="145.7568" x="186.12" y="525.0969"/><rect fill="#CCD0DA" height="8" style="stroke:#CCD0DA;stroke-width:0.5;" width="145.7568" x="186.12" y="557.3625"/><rect fill="none" height="137.75" rx="8" ry="8" style="stroke:#BCC0CC;stroke-width:0.5;" width="145.7568" x="186.12" y="525.0969"/><ellipse cx="201.12" cy="545.2297" fill="#04A5E5" rx="11" ry="11" style="stroke:#181818;stroke-width:1;"/><path d="M204.0888,550.8703 Q203.5106,551.1672 202.87,551.3078 Q202.2294,551.4641 201.5263,551.4641 Q199.0263,551.4641 197.6981,549.8234 Q196.3856,548.1672 196.3856,545.0422 Q196.3856,541.9172 197.6981,540.2609 Q199.0263,538.6047 201.5263,538.6047 Q202.2294,538.6047 202.87,538.7609 Q203.5263,538.9172 204.0888,539.2141 L204.0888,541.9328 Q203.4638,541.3547 202.87,541.0891 Q202.2763,540.8078 201.6513,540.8078 Q200.3075,540.8078 199.62,541.8859 Q198.9325,542.9484 198.9325,545.0422 Q198.9325,547.1359 199.62,548.2141 Q200.3075,549.2766 201.6513,549.2766 Q202.2763,549.2766 202.87,549.0109 Q203.4638,548.7297 204.0888,548.1516 L204.0888,550.8703 Z " fill="#4C4F69"/><text fill="#4C4F69" font-family="sans-serif" font-size="12" font-style="italic" lengthAdjust="spacing" textLength="49.7168" x="247.14" y="541.2355">&#171;Entity&#187;</text><text fill="#4C4F69" font-family="sans-serif" font-size="14" font-weight="bold" lengthAdjust="spacing" textLength="113.7568" x="215.12" y="557.0607">RevisionEntity</text><line style="stroke:#BCC0CC;stroke-width:0.5;" x1="187.12" x2="330.8768" y1="565.3625" y2="565.3625"/><text fill="#4C4F69" font-family="sans-serif" font-size="14" lengthAdjust="spacing" textLength="62.1318" x="192.12" y="582.3576">id: string</text><text fill="#4C4F69" font-family="sans-serif" font-size="14" lengthAdjust="spacing" textLength="96.4893" x="192.12" y="598.6545">name: string?</text><text fill="#4C4F69" font-family="sans-serif" font-size="14" lengthAdjust="spacing" textLength="83.4053" x="192.12" y="614.9514">data: Buffer</text><text fill="#4C4F69" font-family="sans-serif" font-size="14" lengthAdjust="spacing" textLength="133.0068" x="192.12" y="631.2482">documentId: string</text><text fill="#4C4F69" font-family="sans-serif" font-size="14" lengthAdjust="spacing" textLength="111.3301" x="192.12" y="647.5451">createdAt: Date</text><line style="stroke:#BCC0CC;stroke-width:0.5;" x1="187.12" x2="330.8768" y1="654.8469" y2="654.8469"/></g><!--class DocumentModel--><g class="entity" data-qualified-name="Document.DocumentModel" data-source-line="70" id="ent0005"><rect fill="#EFF1F5" height="88.8594" rx="8" ry="8" style="stroke:#BCC0CC;stroke-width:0.5;" width="246.042" x="1010.98" y="128.1869"/><rect fill="#CCD0DA" height="40.2656" rx="8" ry="8" style="stroke:#CCD0DA;stroke-width:0.5;" width="246.042" x="1010.98" y="128.1869"/><rect fill="#CCD0DA" height="8" style="stroke:#CCD0DA;stroke-width:0.5;" width="246.042" x="1010.98" y="160.4525"/><rect fill="none" height="88.8594" rx="8" ry="8" style="stroke:#BCC0CC;stroke-width:0.5;" width="246.042" x="1010.98" y="128.1869"/><ellipse cx="1065.6948" cy="148.3197" fill="#DF8E1D" rx="11" ry="11" style="stroke:#181818;stroke-width:1;"/><path d="M1068.6636,153.9603 Q1068.0855,154.2572 1067.4448,154.3978 Q1066.8042,154.5541 1066.1011,154.5541 Q1063.6011,154.5541 1062.273,152.9134 Q1060.9605,151.2572 1060.9605,148.1322 Q1060.9605,145.0072 1062.273,143.3509 Q1063.6011,141.6947 1066.1011,141.6947 Q1066.8042,141.6947 1067.4448,141.8509 Q1068.1011,142.0072 1068.6636,142.3041 L1068.6636,145.0228 Q1068.0386,144.4447 1067.4448,144.1791 Q1066.8511,143.8978 1066.2261,143.8978 Q1064.8823,143.8978 1064.1948,144.9759 Q1063.5073,146.0384 1063.5073,148.1322 Q1063.5073,150.2259 1064.1948,151.3041 Q1064.8823,152.3666 1066.2261,152.3666 Q1066.8511,152.3666 1067.4448,152.1009 Q1068.0386,151.8197 1068.6636,151.2416 L1068.6636,153.9603 Z " fill="#4C4F69"/><text fill="#4C4F69" font-family="sans-serif" font-size="12" font-style="italic" lengthAdjust="spacing" textLength="50.7129" x="1124.8946" y="144.3255">&#171;Model&#187;</text><text fill="#4C4F69" font-family="sans-serif" font-size="14" font-weight="bold" lengthAdjust="spacing" textLength="128.1123" x="1086.1948" y="160.1507">DocumentModel</text><line style="stroke:#BCC0CC;stroke-width:0.5;" x1="1011.98" x2="1256.022" y1="168.4525" y2="168.4525"/><text fill="#4C4F69" font-family="sans-serif" font-size="14" lengthAdjust="spacing" textLength="62.1318" x="1016.98" y="185.4476">id: string</text><text fill="#4C4F69" font-family="sans-serif" font-size="14" lengthAdjust="spacing" textLength="234.042" x="1016.98" y="201.7445">content: @blocknote/core.Block[]</text><line style="stroke:#BCC0CC;stroke-width:0.5;" x1="1011.98" x2="1256.022" y1="209.0463" y2="209.0463"/></g><!--class RevisionModel--><g class="entity" data-qualified-name="Document.RevisionModel" data-source-line="75" id="ent0006"><rect fill="#EFF1F5" height="137.75" rx="8" ry="8" style="stroke:#BCC0CC;stroke-width:0.5;" width="246.042" x="1291.98" y="103.7469"/><rect fill="#CCD0DA" height="40.2656" rx="8" ry="8" style="stroke:#CCD0DA;stroke-width:0.5;" width="246.042" x="1291.98" y="103.7469"/><rect fill="#CCD0DA" height="8" style="stroke:#CCD0DA;stroke-width:0.5;" width="246.042" x="1291.98" y="136.0125"/><rect fill="none" height="137.75" rx="8" ry="8" style="stroke:#BCC0CC;stroke-width:0.5;" width="246.042" x="1291.98" y="103.7469"/><ellipse cx="1353.3599" cy="123.8797" fill="#DF8E1D" rx="11" ry="11" style="stroke:#181818;stroke-width:1;"/><path d="M1356.3286,129.5203 Q1355.7505,129.8172 1355.1099,129.9578 Q1354.4693,130.1141 1353.7661,130.1141 Q1351.2661,130.1141 1349.938,128.4734 Q1348.6255,126.8172 1348.6255,123.6922 Q1348.6255,120.5672 1349.938,118.9109 Q1351.2661,117.2547 1353.7661,117.2547 Q1354.4693,117.2547 1355.1099,117.4109 Q1355.7661,117.5672 1356.3286,117.8641 L1356.3286,120.5828 Q1355.7036,120.0047 1355.1099,119.7391 Q1354.5161,119.4578 1353.8911,119.4578 Q1352.5474,119.4578 1351.8599,120.5359 Q1351.1724,121.5984 1351.1724,123.6922 Q1351.1724,125.7859 1351.8599,126.8641 Q1352.5474,127.9266 1353.8911,127.9266 Q1354.5161,127.9266 1355.1099,127.6609 Q1355.7036,127.3797 1356.3286,126.8016 L1356.3286,129.5203 Z " fill="#4C4F69"/><text fill="#4C4F69" font-family="sans-serif" font-size="12" font-style="italic" lengthAdjust="spacing" textLength="50.7129" x="1405.8946" y="119.8855">&#171;Model&#187;</text><text fill="#4C4F69" font-family="sans-serif" font-size="14" font-weight="bold" lengthAdjust="spacing" textLength="114.7822" x="1373.8599" y="135.7107">RevisionModel</text><line style="stroke:#BCC0CC;stroke-width:0.5;" x1="1292.98" x2="1537.022" y1="144.0125" y2="144.0125"/><text fill="#4C4F69" font-family="sans-serif" font-size="14" lengthAdjust="spacing" textLength="62.1318" x="1297.98" y="161.0076">id: string</text><text fill="#4C4F69" font-family="sans-serif" font-size="14" lengthAdjust="spacing" textLength="96.4893" x="1297.98" y="177.3045">name: string?</text><text fill="#4C4F69" font-family="sans-serif" font-size="14" lengthAdjust="spacing" textLength="234.042" x="1297.98" y="193.6014">content: @blocknote/core.Block[]</text><text fill="#4C4F69" font-family="sans-serif" font-size="14" lengthAdjust="spacing" textLength="133.0068" x="1297.98" y="209.8982">documentId: string</text><text fill="#4C4F69" font-family="sans-serif" font-size="14" lengthAdjust="spacing" textLength="111.3301" x="1297.98" y="226.1951">createdAt: Date</text><line style="stroke:#BCC0CC;stroke-width:0.5;" x1="1292.98" x2="1537.022" y1="233.4969" y2="233.4969"/></g><!--class AttachmentUploadUrl--><g class="entity" data-qualified-name="Document.AttachmentUploadUrl" data-source-line="83" id="ent0007"><rect fill="#EFF1F5" height="88.8594" rx="8" ry="8" style="stroke:#BCC0CC;stroke-width:0.5;" width="203.0215" x="1032.49" y="351.0869"/><rect fill="#CCD0DA" height="40.2656" rx="8" ry="8" style="stroke:#CCD0DA;stroke-width:0.5;" width="203.0215" x="1032.49" y="351.0869"/><rect fill="#CCD0DA" height="8" style="stroke:#CCD0DA;stroke-width:0.5;" width="203.0215" x="1032.49" y="383.3525"/><rect fill="none" height="88.8594" rx="8" ry="8" style="stroke:#BCC0CC;stroke-width:0.5;" width="203.0215" x="1032.49" y="351.0869"/><ellipse cx="1047.49" cy="371.2197" fill="#DD7878" rx="11" ry="11" style="stroke:#181818;stroke-width:1;"/><path d="M1048.3338,377.9697 L1045.8806,377.9697 L1045.8806,367.7197 L1042.74,367.7197 L1042.74,365.5791 L1051.4744,365.5791 L1051.4744,367.7197 L1048.3338,367.7197 L1048.3338,377.9697 Z " fill="#4C4F69"/><text fill="#4C4F69" font-family="sans-serif" font-size="12" font-style="italic" lengthAdjust="spacing" textLength="44.1152" x="1124.9431" y="367.2255">&#171;Type&#187;</text><text fill="#4C4F69" font-family="sans-serif" font-size="14" font-weight="bold" lengthAdjust="spacing" textLength="171.0215" x="1061.49" y="383.0507">AttachmentUploadUrl</text><line style="stroke:#BCC0CC;stroke-width:0.5;" x1="1033.49" x2="1234.5115" y1="391.3525" y2="391.3525"/><text fill="#4C4F69" font-family="sans-serif" font-size="14" lengthAdjust="spacing" textLength="62.1318" x="1038.49" y="408.3476">id: string</text><text fill="#4C4F69" font-family="sans-serif" font-size="14" lengthAdjust="spacing" textLength="67.874" x="1038.49" y="424.6445">url: string</text><line style="stroke:#BCC0CC;stroke-width:0.5;" x1="1033.49" x2="1234.5115" y1="431.9462" y2="431.9462"/></g><!--class TagModel--><g class="entity" data-qualified-name="Document.TagModel" data-source-line="88" id="ent0008"><rect fill="#EFF1F5" height="88.8594" rx="8" ry="8" style="stroke:#BCC0CC;stroke-width:0.5;" width="108.8838" x="1270.56" y="351.0869"/><rect fill="#CCD0DA" height="40.2656" rx="8" ry="8" style="stroke:#CCD0DA;stroke-width:0.5;" width="108.8838" x="1270.56" y="351.0869"/><rect fill="#CCD0DA" height="8" style="stroke:#CCD0DA;stroke-width:0.5;" width="108.8838" x="1270.56" y="383.3525"/><rect fill="none" height="88.8594" rx="8" ry="8" style="stroke:#BCC0CC;stroke-width:0.5;" width="108.8838" x="1270.56" y="351.0869"/><ellipse cx="1285.56" cy="371.2197" fill="#DD7878" rx="11" ry="11" style="stroke:#181818;stroke-width:1;"/><path d="M1286.4038,377.9697 L1283.9506,377.9697 L1283.9506,367.7197 L1280.81,367.7197 L1280.81,365.5791 L1289.5444,365.5791 L1289.5444,367.7197 L1286.4038,367.7197 L1286.4038,377.9697 Z " fill="#4C4F69"/><text fill="#4C4F69" font-family="sans-serif" font-size="12" font-style="italic" lengthAdjust="spacing" textLength="44.1152" x="1315.9443" y="367.2255">&#171;Type&#187;</text><text fill="#4C4F69" font-family="sans-serif" font-size="14" font-weight="bold" lengthAdjust="spacing" textLength="76.8838" x="1299.56" y="383.0507">TagModel</text><line style="stroke:#BCC0CC;stroke-width:0.5;" x1="1271.56" x2="1378.4438" y1="391.3525" y2="391.3525"/><text fill="#4C4F69" font-family="sans-serif" font-size="14" lengthAdjust="spacing" textLength="62.1318" x="1276.56" y="408.3476">id: string</text><text fill="#4C4F69" font-family="sans-serif" font-size="14" lengthAdjust="spacing" textLength="89.0586" x="1276.56" y="424.6445">name: string</text><line style="stroke:#BCC0CC;stroke-width:0.5;" x1="1271.56" x2="1378.4438" y1="431.9462" y2="431.9462"/></g><!--class DocumentRepository--><g class="entity" data-qualified-name="Document.DocumentRepository" data-source-line="93" id="ent0009"><rect fill="#EFF1F5" height="88.8594" rx="8" ry="8" style="stroke:#BCC0CC;stroke-width:0.5;" width="334.3555" x="585.82" y="351.0869"/><rect fill="#CCD0DA" height="40.2656" rx="8" ry="8" style="stroke:#CCD0DA;stroke-width:0.5;" width="334.3555" x="585.82" y="351.0869"/><rect fill="#CCD0DA" height="8" style="stroke:#CCD0DA;stroke-width:0.5;" width="334.3555" x="585.82" y="383.3525"/><rect fill="none" height="88.8594" rx="8" ry="8" style="stroke:#BCC0CC;stroke-width:0.5;" width="334.3555" x="585.82" y="351.0869"/><ellipse cx="665.9304" cy="371.2197" fill="#EA76CB" rx="11" ry="11" style="stroke:#181818;stroke-width:1;"/><path d="M661.8522,366.9853 L661.8522,364.8291 L669.2429,364.8291 L669.2429,366.9853 L666.7741,366.9853 L666.7741,375.0634 L669.2429,375.0634 L669.2429,377.2197 L661.8522,377.2197 L661.8522,375.0634 L664.321,375.0634 L664.321,366.9853 L661.8522,366.9853 Z " fill="#4C4F69"/><text fill="#4C4F69" font-family="sans-serif" font-size="12" font-style="italic" lengthAdjust="spacing" textLength="102.9023" x="717.7966" y="367.2255">&#171;Repo Interface&#187;</text><text fill="#4C4F69" font-family="sans-serif" font-size="14" font-style="italic" font-weight="bold" lengthAdjust="spacing" textLength="165.6348" x="686.4304" y="383.0507">DocumentRepository</text><line style="stroke:#BCC0CC;stroke-width:0.5;" x1="586.82" x2="919.1755" y1="391.3525" y2="391.3525"/><line style="stroke:#BCC0CC;stroke-width:0.5;" x1="586.82" x2="919.1755" y1="399.3525" y2="399.3525"/><text fill="#4C4F69" font-family="sans-serif" font-size="14" lengthAdjust="spacing" textLength="238.4922" x="591.82" y="416.3476">Save(document: DocumentEntity)</text><text fill="#4C4F69" font-family="sans-serif" font-size="14" lengthAdjust="spacing" textLength="322.3555" x="591.82" y="432.6445">GetById(documentId: string): DocumentEntity</text></g><!--class RevisionRepository--><g class="entity" data-qualified-name="Document.RevisionRepository" data-source-line="98" id="ent0010"><rect fill="#EFF1F5" height="105.1563" rx="8" ry="8" style="stroke:#BCC0CC;stroke-width:0.5;" width="404.417" x="56.79" y="342.9369"/><rect fill="#CCD0DA" height="40.2656" rx="8" ry="8" style="stroke:#CCD0DA;stroke-width:0.5;" width="404.417" x="56.79" y="342.9369"/><rect fill="#CCD0DA" height="8" style="stroke:#CCD0DA;stroke-width:0.5;" width="404.417" x="56.79" y="375.2025"/><rect fill="none" height="105.1563" rx="8" ry="8" style="stroke:#BCC0CC;stroke-width:0.5;" width="404.417" x="56.79" y="342.9369"/><ellipse cx="178.5962" cy="363.0697" fill="#EA76CB" rx="11" ry="11" style="stroke:#181818;stroke-width:1;"/><path d="M174.518,358.8353 L174.518,356.6791 L181.9087,356.6791 L181.9087,358.8353 L179.4399,358.8353 L179.4399,366.9134 L181.9087,366.9134 L181.9087,369.0697 L174.518,369.0697 L174.518,366.9134 L176.9868,366.9134 L176.9868,358.8353 L174.518,358.8353 Z " fill="#4C4F69"/><text fill="#4C4F69" font-family="sans-serif" font-size="12" font-style="italic" lengthAdjust="spacing" textLength="102.9023" x="223.7973" y="359.0755">&#171;Repo Interface&#187;</text><text fill="#4C4F69" font-family="sans-serif" font-size="14" font-style="italic" font-weight="bold" lengthAdjust="spacing" textLength="152.3047" x="199.0962" y="374.9007">RevisionRepository</text><line style="stroke:#BCC0CC;stroke-width:0.5;" x1="57.79" x2="460.207" y1="383.2025" y2="383.2025"/><line style="stroke:#BCC0CC;stroke-width:0.5;" x1="57.79" x2="460.207" y1="391.2025" y2="391.2025"/><text fill="#4C4F69" font-family="sans-serif" font-size="14" lengthAdjust="spacing" textLength="209.6309" x="62.79" y="408.1976">Save(revision: RevisionEntity)</text><text fill="#4C4F69" font-family="sans-serif" font-size="14" lengthAdjust="spacing" textLength="293.4941" x="62.79" y="424.4945">GetById(revisionId: string): RevisionEntity</text><text fill="#4C4F69" font-family="sans-serif" font-size="14" lengthAdjust="spacing" textLength="392.417" x="62.79" y="440.7914">GetByDocumentId(documentId: string): RevisionEntity[]</text></g><!--class DocumentService--><g class="entity" data-qualified-name="Document.DocumentService" data-source-line="104" id="ent0011"><rect fill="#EFF1F5" height="186.6406" rx="8" ry="8" style="stroke:#BCC0CC;stroke-width:0.5;" width="446.2119" x="529.89" y="79.2969"/><rect fill="#CCD0DA" height="40.2656" rx="8" ry="8" style="stroke:#CCD0DA;stroke-width:0.5;" width="446.2119" x="529.89" y="79.2969"/><rect fill="#CCD0DA" height="8" style="stroke:#CCD0DA;stroke-width:0.5;" width="446.2119" x="529.89" y="111.5625"/><rect fill="none" height="186.6406" rx="8" ry="8" style="stroke:#BCC0CC;stroke-width:0.5;" width="446.2119" x="529.89" y="79.2969"/><ellipse cx="679.5218" cy="99.4297" fill="#DC8A78" rx="11" ry="11" style="stroke:#181818;stroke-width:1;"/><path d="M682.4906,105.0703 Q681.9125,105.3672 681.2718,105.5078 Q680.6312,105.6641 679.9281,105.6641 Q677.4281,105.6641 676.1,104.0234 Q674.7875,102.3672 674.7875,99.2422 Q674.7875,96.1172 676.1,94.4609 Q677.4281,92.8047 679.9281,92.8047 Q680.6312,92.8047 681.2718,92.9609 Q681.9281,93.1172 682.4906,93.4141 L682.4906,96.1328 Q681.8656,95.5547 681.2718,95.2891 Q680.6781,95.0078 680.0531,95.0078 Q678.7093,95.0078 678.0218,96.0859 Q677.3343,97.1484 677.3343,99.2422 Q677.3343,101.3359 678.0218,102.4141 Q678.7093,103.4766 680.0531,103.4766 Q680.6781,103.4766 681.2718,103.2109 Q681.8656,102.9297 682.4906,102.3516 L682.4906,105.0703 Z " fill="#4C4F69"/><text fill="#4C4F69" font-family="sans-serif" font-size="12" font-style="italic" lengthAdjust="spacing" textLength="59.0332" x="739.7294" y="95.4355">&#171;Service&#187;</text><text fill="#4C4F69" font-family="sans-serif" font-size="14" font-weight="bold" lengthAdjust="spacing" textLength="138.4482" x="700.0218" y="111.2607">DocumentService</text><line style="stroke:#BCC0CC;stroke-width:0.5;" x1="530.89" x2="975.1019" y1="119.5625" y2="119.5625"/><text fill="#4C4F69" font-family="sans-serif" font-size="14" lengthAdjust="spacing" textLength="302.4766" x="535.89" y="136.5576">documentRepository: DocumentRepository</text><text fill="#4C4F69" font-family="sans-serif" font-size="14" lengthAdjust="spacing" textLength="233.3242" x="535.89" y="152.8545">blockNoteEditor: BlockNoteEditor</text><text fill="#4C4F69" font-family="sans-serif" font-size="14" lengthAdjust="spacing" textLength="276.2881" x="535.89" y="169.1514">attachmentService: AttachmentService</text><line style="stroke:#BCC0CC;stroke-width:0.5;" x1="530.89" x2="975.1019" y1="176.4531" y2="176.4531"/><text fill="#4C4F69" font-family="sans-serif" font-size="14" lengthAdjust="spacing" textLength="182.2871" x="535.89" y="193.4482">extractTags(): TagModel[]</text><text fill="#4C4F69" font-family="sans-serif" font-size="14" lengthAdjust="spacing" textLength="234.5752" x="535.89" y="209.7451">extractOutgoingLinkIds(): string[]</text><text fill="#4C4F69" font-family="sans-serif" font-size="14" lengthAdjust="spacing" textLength="434.2119" x="535.89" y="226.042">CreateDocument(name: string, data: Buffer): DocumentEntity</text><text fill="#4C4F69" font-family="sans-serif" font-size="14" lengthAdjust="spacing" textLength="363.9795" x="535.89" y="242.3389">GetDocument(documentId: string): DocumentEntity</text><text fill="#4C4F69" font-family="sans-serif" font-size="14" lengthAdjust="spacing" textLength="347.5732" x="535.89" y="258.6357">GetAttachmentUploadUrl(): AttachmentUploadUrl</text></g><!--class RevisionService--><g class="entity" data-qualified-name="Document.RevisionService" data-source-line="116" id="ent0012"><rect fill="#EFF1F5" height="105.1563" rx="8" ry="8" style="stroke:#BCC0CC;stroke-width:0.5;" width="472.0107" x="22.99" y="120.0469"/><rect fill="#CCD0DA" height="40.2656" rx="8" ry="8" style="stroke:#CCD0DA;stroke-width:0.5;" width="472.0107" x="22.99" y="120.0469"/><rect fill="#CCD0DA" height="8" style="stroke:#CCD0DA;stroke-width:0.5;" width="472.0107" x="22.99" y="152.3125"/><rect fill="none" height="105.1563" rx="8" ry="8" style="stroke:#BCC0CC;stroke-width:0.5;" width="472.0107" x="22.99" y="120.0469"/><ellipse cx="192.1863" cy="140.1797" fill="#DC8A78" rx="11" ry="11" style="stroke:#181818;stroke-width:1;"/><path d="M195.155,145.8203 Q194.5769,146.1172 193.9363,146.2578 Q193.2957,146.4141 192.5925,146.4141 Q190.0925,146.4141 188.7644,144.7734 Q187.4519,143.1172 187.4519,139.9922 Q187.4519,136.8672 188.7644,135.2109 Q190.0925,133.5547 192.5925,133.5547 Q193.2957,133.5547 193.9363,133.7109 Q194.5925,133.8672 195.155,134.1641 L195.155,136.8828 Q194.53,136.3047 193.9363,136.0391 Q193.3425,135.7578 192.7175,135.7578 Q191.3738,135.7578 190.6863,136.8359 Q189.9988,137.8984 189.9988,139.9922 Q189.9988,142.0859 190.6863,143.1641 Q191.3738,144.2266 192.7175,144.2266 Q193.3425,144.2266 193.9363,143.9609 Q194.53,143.6797 195.155,143.1016 L195.155,145.8203 Z " fill="#4C4F69"/><text fill="#4C4F69" font-family="sans-serif" font-size="12" font-style="italic" lengthAdjust="spacing" textLength="59.0332" x="245.7288" y="136.1855">&#171;Service&#187;</text><text fill="#4C4F69" font-family="sans-serif" font-size="14" font-weight="bold" lengthAdjust="spacing" textLength="125.1182" x="212.6863" y="152.0107">RevisionService</text><line style="stroke:#BCC0CC;stroke-width:0.5;" x1="23.99" x2="494.0007" y1="160.3125" y2="160.3125"/><text fill="#4C4F69" font-family="sans-serif" font-size="14" lengthAdjust="spacing" textLength="273.6152" x="28.99" y="177.3076">revisionRepository: RevisionRepository</text><line style="stroke:#BCC0CC;stroke-width:0.5;" x1="23.99" x2="494.0007" y1="184.6094" y2="184.6094"/><text fill="#4C4F69" font-family="sans-serif" font-size="14" lengthAdjust="spacing" textLength="322.8887" x="28.99" y="201.6045">GetRevision(revisionId: string): RevisionModel</text><text fill="#4C4F69" font-family="sans-serif" font-size="14" lengthAdjust="spacing" textLength="460.0107" x="28.99" y="217.9014">GetRevisionsByDocumentId(documentId: string): RevisionModel[]</text></g><!--link DocumentService to DocumentRepository--><g class="link" data-entity-1="ent0011" data-entity-2="ent0009" data-link-type="dependency" data-source-line="123" id="lnk13"><path codeLine="123" d="M753,266.3369 C753,295.6269 753,320.6069 753,344.7769" fill="none" id="DocumentService-to-DocumentRepository" style="stroke:#6C6F85;stroke-width:1;stroke-dasharray:7,7;"/><polygon fill="#6C6F85" points="753,350.7769,757,341.7769,753,345.7769,749,341.7769,753,350.7769" style="stroke:#6C6F85;stroke-width:1;"/><text fill="#4C4F69" font-family="sans-serif" font-size="13" lengthAdjust="spacing" textLength="29.7832" x="754" y="309.0038">uses</text></g><!--link RevisionService to RevisionRepository--><g class="link" data-entity-1="ent0012" data-entity-2="ent0010" data-link-type="dependency" data-source-line="124" id="lnk14"><path codeLine="124" d="M259,225.6869 C259,261.0269 259,301.5369 259,336.7969" fill="none" id="RevisionService-to-RevisionRepository" style="stroke:#6C6F85;stroke-width:1;stroke-dasharray:7,7;"/><polygon fill="#6C6F85" points="259,342.7969,263,333.7969,259,337.7969,255,333.7969,259,342.7969" style="stroke:#6C6F85;stroke-width:1;"/><text fill="#4C4F69" font-family="sans-serif" font-size="13" lengthAdjust="spacing" textLength="29.7832" x="260" y="309.0038">uses</text></g><!--link DocumentRepository to DocumentEntity--><g class="link" data-entity-1="ent0009" data-entity-2="ent0003" data-link-type="dependency" data-source-line="125" id="lnk15"><path codeLine="125" d="M753,440.1169 C753,472.5569 753,510.6569 753,543.1569" fill="none" id="DocumentRepository-to-DocumentEntity" style="stroke:#6C6F85;stroke-width:1;stroke-dasharray:7,7;"/><polygon fill="#6C6F85" points="753,549.1569,757,540.1569,753,544.1569,749,540.1569,753,549.1569" style="stroke:#6C6F85;stroke-width:1;"/><text fill="#4C4F69" font-family="sans-serif" font-size="13" lengthAdjust="spacing" textLength="59.8584" x="754" y="491.1638">manages</text></g><!--link RevisionRepository to RevisionEntity--><g class="link" data-entity-1="ent0010" data-entity-2="ent0004" data-link-type="dependency" data-source-line="126" id="lnk16"><path codeLine="126" d="M259,448.3869 C259,471.8069 259,493.7869 259,518.8669" fill="none" id="RevisionRepository-to-RevisionEntity" style="stroke:#6C6F85;stroke-width:1;stroke-dasharray:7,7;"/><polygon fill="#6C6F85" points="259,524.8669,263,515.8669,259,519.8669,255,515.8669,259,524.8669" style="stroke:#6C6F85;stroke-width:1;"/><text fill="#4C4F69" font-family="sans-serif" font-size="13" lengthAdjust="spacing" textLength="59.8584" x="260" y="491.1638">manages</text></g><?plantuml-src dLRRZjis47ttLp1k7smWsCfUNsGZtNOlIMkWIO7ivgde0qME7C6oQ52KjqQHV--8DrEMlF7MJwipCsTkX-IgJEL07WIhjb2eNk_DZrAKy4mLIF8pwV_0MKpdSH_nDAVRh5WBOd0-Zms-oueDqRyQ1pgViQJ6jxJQWyVZ-7e1QOrBuEJepyTHUhqm_bA8mlFC9jFfjUO7ohvw_nGDaUO_G9wBPy-JnZ3YDRwM08NtdqGq6cj_1JG_vXtD5-E5pbjk3a4zqOHEOQfnkjjzpIGOV1mjqaJZETr3mN4y6f-FutcgyoPv1G4_p6RfrEJzHntn2PkaCvEtIchJoE1JDatdym2F33vZipJMF68FCgU7iStBvkdYEi0jJypYb8u2tF8i68sIoF3Bb3AmF9GbKG81RdaInYB60jpoCCOZJdM_j0pwXJGTcNwtjAWbvVS8TkzCLgKwxXqP0VNJApTPiQEIRab2sMOjHLNmUv4BINI6mCuXfLMkFeX2MOTwJe63ZcL25hYSqImmi9oMPHttg0vOMY9o7bXlfHJFbj4DFp3li2ow1XCgWIbQh7FejJt8lxswkxlJDin0Z4r8L8xFPGQkBK5N-k3qllLE6pZ7hyVqClllGD7IYdIhrJwtIiaigHIS3XWhUOEppmeWds4dLWNU3NNOeA1R69BCVPD-3VG9BVrzSbKZvDsxmUejqHV5K5CGpt5puxaVGUuppsewVe7n7XdzLJLqqG7V-q9bwl0QEhm9XZOiu7awx2ukwWbPt3qvr941qKV18NzDFUQ66vf09EeveVMTUoCMmpwWM32bLOgTWBERpw4rrh-CBqc9Mo_M7k9KqIMvgz8Kf0Pn-m7NPzXdPIQAYxZgNXpuo_aC6hGrhjeiJ0AkcD-g9Nd0FyAYp4HTV_hhEoKnr3QwBiclIIxOfX0AVi8R0wxkwi-__cwpkuulOUzk-AAS_ty8MfzuUF6Lh8E_x791-HVvlLehcJUmaEs9hb_RRiZHl2NSUcgqp9IG3TayuciwS8qloObMlTjleEuEApveZsXu6dI-4hVA5ogHrcL9JfJUgiHvDYff1ZLZ7dpftLqqOvjIT7UZux3VOVcyDURZO8wOTzTI_8HIVCzh0nx89k0TgLUMJReajwTGptlZUo4fKoYWSe0zEI458hSUVrPgBR3nF_1HM77jR2OHkDvhqRic1g7StZQkaMuDsCdx-4krO-CwZbHTPGVSjIctpOvDoPOCZyiFDXNMuimlgqwFkYkil5nzuRfiI_vjEb4VkRgwQHkF7P0bgKeecnmdSsbojAVGoT6HghCKirEamF_0yDayKyavbkPv35Y-zVu3?></g></svg>