<?plantuml 1.2026.1?><svg xmlns="http://www.w3.org/2000/svg" xmlns:xlink="http://www.w3.org/1999/xlink" contentStyleType="text/css" data-diagram-type="CLASS" height="1408px" preserveAspectRatio="none" style="width:2285px;height:1408px;background:#EFF1F5;" version="1.1" viewBox="0 0 2285 1408" width="2285px" zoomAndPan="magnify"><title>Note</title><defs/><g><rect fill="#EFF1F5" height="1408" style="stroke:none;stroke-width:1;" width="2285" x="0" y="0"/><g class="title" data-source-line="1"><text fill="#4C4F69" font-family="sans-serif" font-size="14" font-weight="bold" lengthAdjust="spacing" textLength="37.5225" x="1116.7388" y="22.9951">Note</text></g><!--cluster Domain--><g class="cluster" data-qualified-name="Domain" data-source-line="57" id="ent0002"><rect fill="#E6E9EF" height="1358.28" rx="8" ry="8" style="stroke:#BCC0CC;stroke-width:1;" width="2272" x="7" y="44.2969"/><path d="M77.04,44.2969 L77.04,53.5938 L67.04,63.5938 L7,63.5938" fill="none" style="stroke:#BCC0CC;stroke-width:1;"/><text fill="#4C4F69" font-family="sans-serif" font-size="14" font-weight="bold" lengthAdjust="spacing" textLength="60.04" x="10" y="58.292">Domain</text></g><!--class TrashedBy--><g class="entity" data-qualified-name="Domain.TrashedBy" data-source-line="58" id="ent0003"><rect fill="#EFF1F5" height="105.1563" rx="8" ry="8" style="stroke:#BCC0CC;stroke-width:0.5;" width="115.5146" x="379.24" y="111.8869"/><rect fill="#CCD0DA" height="40.2656" rx="8" ry="8" style="stroke:#CCD0DA;stroke-width:0.5;" width="115.5146" x="379.24" y="111.8869"/><rect fill="#CCD0DA" height="8" style="stroke:#CCD0DA;stroke-width:0.5;" width="115.5146" x="379.24" y="144.1525"/><rect fill="none" height="105.1563" rx="8" ry="8" style="stroke:#BCC0CC;stroke-width:0.5;" width="115.5146" x="379.24" y="111.8869"/><ellipse cx="394.24" cy="132.0197" fill="#DD7878" rx="11" ry="11" style="stroke:#181818;stroke-width:1;"/><path d="M398.3494,138.0197 L390.6306,138.0197 L390.6306,125.6291 L398.3494,125.6291 L398.3494,127.7853 L393.0838,127.7853 L393.0838,130.4572 L397.8494,130.4572 L397.8494,132.6134 L393.0838,132.6134 L393.0838,135.8634 L398.3494,135.8634 L398.3494,138.0197 Z " fill="#4C4F69"/><text fill="#4C4F69" font-family="sans-serif" font-size="12" font-style="italic" lengthAdjust="spacing" textLength="49.166" x="425.4143" y="128.0255">&#171;Enum&#187;</text><text fill="#4C4F69" font-family="sans-serif" font-size="14" font-weight="bold" lengthAdjust="spacing" textLength="83.5146" x="408.24" y="143.8507">TrashedBy</text><line style="stroke:#BCC0CC;stroke-width:0.5;" x1="380.24" x2="493.7546" y1="152.1525" y2="152.1525"/><text fill="#4C4F69" font-family="sans-serif" font-size="14" lengthAdjust="spacing" textLength="92.6064" x="385.24" y="169.1476">UNSPECIFIED</text><text fill="#4C4F69" font-family="sans-serif" font-size="14" lengthAdjust="spacing" textLength="65.6113" x="385.24" y="185.4445">PURPOSE</text><text fill="#4C4F69" font-family="sans-serif" font-size="14" lengthAdjust="spacing" textLength="55.6172" x="385.24" y="201.7414">PARENT</text><line style="stroke:#BCC0CC;stroke-width:0.5;" x1="380.24" x2="493.7546" y1="209.0431" y2="209.0431"/></g><!--class Workspace--><g class="entity" data-qualified-name="Domain.Workspace" data-source-line="64" id="ent0004"><rect fill="#EFF1F5" height="170.3438" rx="8" ry="8" style="stroke:#BCC0CC;stroke-width:0.5;" width="173.875" x="23.06" y="79.2969"/><rect fill="#CCD0DA" height="40.2656" rx="8" ry="8" style="stroke:#CCD0DA;stroke-width:0.5;" width="173.875" x="23.06" y="79.2969"/><rect fill="#CCD0DA" height="8" style="stroke:#CCD0DA;stroke-width:0.5;" width="173.875" x="23.06" y="111.5625"/><rect fill="none" height="170.3438" rx="8" ry="8" style="stroke:#BCC0CC;stroke-width:0.5;" width="173.875" x="23.06" y="79.2969"/><ellipse cx="54.6344" cy="99.4297" fill="#04A5E5" rx="11" ry="11" style="stroke:#181818;stroke-width:1;"/><path d="M54.1188,99.9922 Q52.2594,99.2891 51.6032,98.5234 Q50.9625,97.7422 50.9625,96.4297 Q50.9625,94.7422 52.0407,93.7734 Q53.1188,92.8047 54.9938,92.8047 Q55.8532,92.8047 56.6969,93.0078 Q57.5563,93.1953 58.4,93.5859 L58.4,95.9766 Q57.6188,95.4141 56.7907,95.1328 Q55.9782,94.8359 55.1813,94.8359 Q54.3063,94.8359 53.8219,95.1953 Q53.3532,95.5547 53.3532,96.2109 Q53.3532,96.7266 53.6969,97.0703 Q54.0407,97.3984 55.1344,97.8047 L56.1969,98.2109 Q57.6813,98.7578 58.3844,99.6641 Q59.1032,100.5703 59.1032,101.9453 Q59.1032,103.8203 57.9938,104.7422 Q56.8844,105.6641 54.6344,105.6641 Q53.7125,105.6641 52.7907,105.4453 Q51.8688,105.2266 51.0094,104.8047 L51.0094,102.2734 Q51.9782,102.9609 52.9,103.3047 Q53.8219,103.6484 54.7125,103.6484 Q55.6188,103.6484 56.1188,103.2422 Q56.6188,102.8203 56.6188,102.0859 Q56.6188,101.5234 56.275,101.1172 Q55.9469,100.6953 55.3219,100.4453 L54.1188,99.9922 Z " fill="#4C4F69"/><text fill="#4C4F69" font-family="sans-serif" font-size="12" font-style="italic" lengthAdjust="spacing" textLength="109.043" x="70.3176" y="95.4355">&#171;Aggregate Root&#187;</text><text fill="#4C4F69" font-family="sans-serif" font-size="14" font-weight="bold" lengthAdjust="spacing" textLength="86.8711" x="81.4036" y="111.2607">Workspace</text><line style="stroke:#BCC0CC;stroke-width:0.5;" x1="24.06" x2="195.935" y1="119.5625" y2="119.5625"/><text fill="#4C4F69" font-family="sans-serif" font-size="14" lengthAdjust="spacing" textLength="87.6025" x="29.06" y="136.5576">id uuid.UUID</text><text fill="#4C4F69" font-family="sans-serif" font-size="14" lengthAdjust="spacing" textLength="84.3418" x="29.06" y="152.8545">name string</text><text fill="#4C4F69" font-family="sans-serif" font-size="14" lengthAdjust="spacing" textLength="73.582" x="29.06" y="169.1514">slug string</text><text fill="#4C4F69" font-family="sans-serif" font-size="14" lengthAdjust="spacing" textLength="161.875" x="29.06" y="185.4482">rootFolderID uuid.UUID</text><text fill="#4C4F69" font-family="sans-serif" font-size="14" lengthAdjust="spacing" textLength="150.2813" x="29.06" y="201.7451">deletedAt *time.Time</text><line style="stroke:#BCC0CC;stroke-width:0.5;" x1="24.06" x2="195.935" y1="209.0469" y2="209.0469"/><text fill="#4C4F69" font-family="sans-serif" font-size="14" lengthAdjust="spacing" textLength="153.3096" x="29.06" y="226.042">Rename(name string)</text><text fill="#4C4F69" font-family="sans-serif" font-size="14" lengthAdjust="spacing" textLength="56.9229" x="29.06" y="242.3389">Delete()</text></g><!--class Folder--><g class="entity" data-qualified-name="Domain.Folder" data-source-line="75" id="ent0005"><rect fill="#EFF1F5" height="268.125" rx="8" ry="8" style="stroke:#BCC0CC;stroke-width:0.5;" width="251.7227" x="23.14" y="558.2769"/><rect fill="#CCD0DA" height="40.2656" rx="8" ry="8" style="stroke:#CCD0DA;stroke-width:0.5;" width="251.7227" x="23.14" y="558.2769"/><rect fill="#CCD0DA" height="8" style="stroke:#CCD0DA;stroke-width:0.5;" width="251.7227" x="23.14" y="590.5425"/><rect fill="none" height="268.125" rx="8" ry="8" style="stroke:#BCC0CC;stroke-width:0.5;" width="251.7227" x="23.14" y="558.2769"/><ellipse cx="92.2298" cy="578.4097" fill="#04A5E5" rx="11" ry="11" style="stroke:#181818;stroke-width:1;"/><path d="M91.7142,578.9722 Q89.8548,578.2691 89.1986,577.5034 Q88.558,576.7222 88.558,575.4097 Q88.558,573.7222 89.6361,572.7534 Q90.7142,571.7847 92.5892,571.7847 Q93.4486,571.7847 94.2923,571.9878 Q95.1517,572.1753 95.9955,572.5659 L95.9955,574.9566 Q95.2142,574.3941 94.3861,574.1128 Q93.5736,573.8159 92.7767,573.8159 Q91.9017,573.8159 91.4173,574.1753 Q90.9486,574.5347 90.9486,575.1909 Q90.9486,575.7066 91.2923,576.0503 Q91.6361,576.3784 92.7298,576.7847 L93.7923,577.1909 Q95.2767,577.7378 95.9798,578.6441 Q96.6986,579.5503 96.6986,580.9253 Q96.6986,582.8003 95.5892,583.7222 Q94.4798,584.6441 92.2298,584.6441 Q91.308,584.6441 90.3861,584.4253 Q89.4642,584.2066 88.6048,583.7847 L88.6048,581.2534 Q89.5736,581.9409 90.4955,582.2847 Q91.4173,582.6284 92.308,582.6284 Q93.2142,582.6284 93.7142,582.2222 Q94.2142,581.8003 94.2142,581.0659 Q94.2142,580.5034 93.8705,580.0972 Q93.5423,579.6753 92.9173,579.4253 L91.7142,578.9722 Z " fill="#4C4F69"/><text fill="#4C4F69" font-family="sans-serif" font-size="12" font-style="italic" lengthAdjust="spacing" textLength="109.043" x="110.7298" y="574.4155">&#171;Aggregate Root&#187;</text><text fill="#4C4F69" font-family="sans-serif" font-size="14" font-weight="bold" lengthAdjust="spacing" textLength="50.4014" x="140.0506" y="590.2407">Folder</text><line style="stroke:#BCC0CC;stroke-width:0.5;" x1="24.14" x2="273.8627" y1="598.5425" y2="598.5425"/><text fill="#4C4F69" font-family="sans-serif" font-size="14" lengthAdjust="spacing" textLength="87.6025" x="29.14" y="615.5376">id uuid.UUID</text><text fill="#4C4F69" font-family="sans-serif" font-size="14" lengthAdjust="spacing" textLength="84.3418" x="29.14" y="631.8345">name string</text><text fill="#4C4F69" font-family="sans-serif" font-size="14" lengthAdjust="spacing" textLength="80.6641" x="29.14" y="648.1314">icon *string</text><text fill="#4C4F69" font-family="sans-serif" font-size="14" lengthAdjust="spacing" textLength="164.6846" x="29.14" y="664.4282">workspaceID uuid.UUID</text><text fill="#4C4F69" font-family="sans-serif" font-size="14" lengthAdjust="spacing" textLength="224.8066" x="29.14" y="680.7251">folderHierarchy FolderHierarchy</text><text fill="#4C4F69" font-family="sans-serif" font-size="14" lengthAdjust="spacing" textLength="121.4951" x="29.14" y="697.022">trashed *Trashed</text><line style="stroke:#BCC0CC;stroke-width:0.5;" x1="24.14" x2="273.8627" y1="704.3238" y2="704.3238"/><text fill="#4C4F69" font-family="sans-serif" font-size="14" lengthAdjust="spacing" textLength="153.3096" x="29.14" y="721.3189">Rename(name string)</text><text fill="#4C4F69" font-family="sans-serif" font-size="14" lengthAdjust="spacing" textLength="136.8418" x="29.14" y="737.6157">SetIcon(icon string)</text><text fill="#4C4F69" font-family="sans-serif" font-size="14" lengthAdjust="spacing" textLength="153.4121" x="29.14" y="753.9126">ParentID() *uuid.UUID</text><text fill="#4C4F69" font-family="sans-serif" font-size="14" lengthAdjust="spacing" textLength="89.0518" x="29.14" y="770.2095">IsRoot() bool</text><text fill="#4C4F69" font-family="sans-serif" font-size="14" lengthAdjust="spacing" textLength="239.7227" x="29.14" y="786.5064">MoveToFolder(folderID uuid.UUID)</text><text fill="#4C4F69" font-family="sans-serif" font-size="14" lengthAdjust="spacing" textLength="200.252" x="29.14" y="802.8032">Trash(trashedBy TrashedBy)</text><text fill="#4C4F69" font-family="sans-serif" font-size="14" lengthAdjust="spacing" textLength="64.9824" x="29.14" y="819.1001">Restore()</text></g><!--class FolderHierarchy--><g class="entity" data-qualified-name="Domain.FolderHierarchy" data-source-line="92" id="ent0006"><rect fill="#EFF1F5" height="105.1563" rx="8" ry="8" style="stroke:#BCC0CC;stroke-width:0.5;" width="165.4121" x="44.29" y="903.4069"/><rect fill="#CCD0DA" height="40.2656" rx="8" ry="8" style="stroke:#CCD0DA;stroke-width:0.5;" width="165.4121" x="44.29" y="903.4069"/><rect fill="#CCD0DA" height="8" style="stroke:#CCD0DA;stroke-width:0.5;" width="165.4121" x="44.29" y="935.6725"/><rect fill="none" height="105.1563" rx="8" ry="8" style="stroke:#BCC0CC;stroke-width:0.5;" width="165.4121" x="44.29" y="903.4069"/><ellipse cx="62.1486" cy="923.5397" fill="#DF8E1D" rx="11" ry="11" style="stroke:#181818;stroke-width:1;"/><path d="M61.633,924.1022 Q59.7736,923.3991 59.1174,922.6334 Q58.4768,921.8522 58.4768,920.5397 Q58.4768,918.8522 59.5549,917.8834 Q60.633,916.9147 62.508,916.9147 Q63.3674,916.9147 64.2111,917.1178 Q65.0705,917.3053 65.9143,917.6959 L65.9143,920.0866 Q65.133,919.5241 64.3049,919.2428 Q63.4924,918.9459 62.6955,918.9459 Q61.8205,918.9459 61.3361,919.3053 Q60.8674,919.6647 60.8674,920.3209 Q60.8674,920.8366 61.2111,921.1803 Q61.5549,921.5084 62.6486,921.9147 L63.7111,922.3209 Q65.1955,922.8678 65.8986,923.7741 Q66.6174,924.6803 66.6174,926.0553 Q66.6174,927.9303 65.508,928.8522 Q64.3986,929.7741 62.1486,929.7741 Q61.2268,929.7741 60.3049,929.5553 Q59.383,929.3366 58.5236,928.9147 L58.5236,926.3834 Q59.4924,927.0709 60.4143,927.4147 Q61.3361,927.7584 62.2268,927.7584 Q63.133,927.7584 63.633,927.3522 Q64.133,926.9303 64.133,926.1959 Q64.133,925.6334 63.7893,925.2272 Q63.4611,924.8053 62.8361,924.5553 L61.633,924.1022 Z " fill="#4C4F69"/><text fill="#4C4F69" font-family="sans-serif" font-size="12" font-style="italic" lengthAdjust="spacing" textLength="91.4648" x="94.5813" y="919.5455">&#171;Value Object&#187;</text><text fill="#4C4F69" font-family="sans-serif" font-size="14" font-weight="bold" lengthAdjust="spacing" textLength="127.0596" x="76.7839" y="935.3707">FolderHierarchy</text><line style="stroke:#BCC0CC;stroke-width:0.5;" x1="45.29" x2="208.7021" y1="943.6725" y2="943.6725"/><text fill="#4C4F69" font-family="sans-serif" font-size="14" lengthAdjust="spacing" textLength="142.9326" x="50.29" y="960.6676">parentID *uuid.UUID</text><line style="stroke:#BCC0CC;stroke-width:0.5;" x1="45.29" x2="208.7021" y1="967.9694" y2="967.9694"/><text fill="#4C4F69" font-family="sans-serif" font-size="14" lengthAdjust="spacing" textLength="153.4121" x="50.29" y="984.9645">ParentID() *uuid.UUID</text><text fill="#4C4F69" font-family="sans-serif" font-size="14" lengthAdjust="spacing" textLength="89.0518" x="50.29" y="1001.2614">IsRoot() bool</text></g><!--class Note--><g class="entity" data-qualified-name="Domain.Note" data-source-line="99" id="ent0007"><rect fill="#EFF1F5" height="317.0156" rx="8" ry="8" style="stroke:#BCC0CC;stroke-width:0.5;" width="326.4736" x="116.76" y="1069.5569"/><rect fill="#CCD0DA" height="40.2656" rx="8" ry="8" style="stroke:#CCD0DA;stroke-width:0.5;" width="326.4736" x="116.76" y="1069.5569"/><rect fill="#CCD0DA" height="8" style="stroke:#CCD0DA;stroke-width:0.5;" width="326.4736" x="116.76" y="1101.8225"/><rect fill="none" height="317.0156" rx="8" ry="8" style="stroke:#BCC0CC;stroke-width:0.5;" width="326.4736" x="116.76" y="1069.5569"/><ellipse cx="223.2253" cy="1089.6897" fill="#04A5E5" rx="11" ry="11" style="stroke:#181818;stroke-width:1;"/><path d="M222.7097,1090.2522 Q220.8503,1089.5491 220.1941,1088.7834 Q219.5535,1088.0022 219.5535,1086.6897 Q219.5535,1085.0022 220.6316,1084.0334 Q221.7097,1083.0647 223.5847,1083.0647 Q224.4441,1083.0647 225.2878,1083.2678 Q226.1472,1083.4553 226.991,1083.8459 L226.991,1086.2366 Q226.2097,1085.6741 225.3816,1085.3928 Q224.5691,1085.0959 223.7722,1085.0959 Q222.8972,1085.0959 222.4128,1085.4553 Q221.9441,1085.8147 221.9441,1086.4709 Q221.9441,1086.9866 222.2878,1087.3303 Q222.6316,1087.6584 223.7253,1088.0647 L224.7878,1088.4709 Q226.2722,1089.0178 226.9753,1089.9241 Q227.6941,1090.8303 227.6941,1092.2053 Q227.6941,1094.0803 226.5847,1095.0022 Q225.4753,1095.9241 223.2253,1095.9241 Q222.3035,1095.9241 221.3816,1095.7053 Q220.4597,1095.4866 219.6003,1095.0647 L219.6003,1092.5334 Q220.5691,1093.2209 221.491,1093.5647 Q222.4128,1093.9084 223.3035,1093.9084 Q224.2097,1093.9084 224.7097,1093.5022 Q225.2097,1093.0803 225.2097,1092.3459 Q225.2097,1091.7834 224.866,1091.3772 Q224.5378,1090.9553 223.9128,1090.7053 L222.7097,1090.2522 Z " fill="#4C4F69"/><text fill="#4C4F69" font-family="sans-serif" font-size="12" font-style="italic" lengthAdjust="spacing" textLength="109.043" x="241.7253" y="1085.6955">&#171;Aggregate Root&#187;</text><text fill="#4C4F69" font-family="sans-serif" font-size="14" font-weight="bold" lengthAdjust="spacing" textLength="37.5225" x="277.4856" y="1101.5207">Note</text><line style="stroke:#BCC0CC;stroke-width:0.5;" x1="117.76" x2="442.2336" y1="1109.8225" y2="1109.8225"/><text fill="#4C4F69" font-family="sans-serif" font-size="14" lengthAdjust="spacing" textLength="87.6025" x="122.76" y="1126.8176">id uuid.UUID</text><text fill="#4C4F69" font-family="sans-serif" font-size="14" lengthAdjust="spacing" textLength="84.3418" x="122.76" y="1143.1145">name string</text><text fill="#4C4F69" font-family="sans-serif" font-size="14" lengthAdjust="spacing" textLength="80.6641" x="122.76" y="1159.4114">icon *string</text><text fill="#4C4F69" font-family="sans-serif" font-size="14" lengthAdjust="spacing" textLength="85.8115" x="122.76" y="1175.7082">tags []string</text><text fill="#4C4F69" font-family="sans-serif" font-size="14" lengthAdjust="spacing" textLength="58.7207" x="122.76" y="1192.0051">size uint</text><text fill="#4C4F69" font-family="sans-serif" font-size="14" lengthAdjust="spacing" textLength="130.375" x="122.76" y="1208.302">folderID uuid.UUID</text><text fill="#4C4F69" font-family="sans-serif" font-size="14" lengthAdjust="spacing" textLength="180.1133" x="122.76" y="1224.5989">outgoingLinks uuid.UUIDs</text><text fill="#4C4F69" font-family="sans-serif" font-size="14" lengthAdjust="spacing" textLength="121.4951" x="122.76" y="1240.8957">trashed *Trashed</text><line style="stroke:#BCC0CC;stroke-width:0.5;" x1="117.76" x2="442.2336" y1="1248.1975" y2="1248.1975"/><text fill="#4C4F69" font-family="sans-serif" font-size="14" lengthAdjust="spacing" textLength="153.3096" x="122.76" y="1265.1926">Rename(name string)</text><text fill="#4C4F69" font-family="sans-serif" font-size="14" lengthAdjust="spacing" textLength="136.8418" x="122.76" y="1281.4895">SetIcon(icon string)</text><text fill="#4C4F69" font-family="sans-serif" font-size="14" lengthAdjust="spacing" textLength="153.0361" x="122.76" y="1297.7864">SetTags(tags []string)</text><text fill="#4C4F69" font-family="sans-serif" font-size="14" lengthAdjust="spacing" textLength="121.3721" x="122.76" y="1314.0832">SetSize(size uint)</text><text fill="#4C4F69" font-family="sans-serif" font-size="14" lengthAdjust="spacing" textLength="239.7227" x="122.76" y="1330.3801">MoveToFolder(folderID uuid.UUID)</text><text fill="#4C4F69" font-family="sans-serif" font-size="14" lengthAdjust="spacing" textLength="314.4736" x="122.76" y="1346.677">SetOutgoingLinks(outgoingLinks uuid.UUIDs)</text><text fill="#4C4F69" font-family="sans-serif" font-size="14" lengthAdjust="spacing" textLength="200.252" x="122.76" y="1362.9739">Trash(trashedBy TrashedBy)</text><text fill="#4C4F69" font-family="sans-serif" font-size="14" lengthAdjust="spacing" textLength="64.9824" x="122.76" y="1379.2707">Restore()</text></g><!--class Trashed--><g class="entity" data-qualified-name="Domain.Trashed" data-source-line="119" id="ent0008"><rect fill="#EFF1F5" height="88.8594" rx="8" ry="8" style="stroke:#BCC0CC;stroke-width:0.5;" width="119.4648" x="529.27" y="120.0369"/><rect fill="#CCD0DA" height="40.2656" rx="8" ry="8" style="stroke:#CCD0DA;stroke-width:0.5;" width="119.4648" x="529.27" y="120.0369"/><rect fill="#CCD0DA" height="8" style="stroke:#CCD0DA;stroke-width:0.5;" width="119.4648" x="529.27" y="152.3025"/><rect fill="none" height="88.8594" rx="8" ry="8" style="stroke:#BCC0CC;stroke-width:0.5;" width="119.4648" x="529.27" y="120.0369"/><ellipse cx="544.27" cy="140.1697" fill="#DF8E1D" rx="11" ry="11" style="stroke:#181818;stroke-width:1;"/><path d="M543.7544,140.7322 Q541.895,140.0291 541.2388,139.2634 Q540.5981,138.4822 540.5981,137.1697 Q540.5981,135.4822 541.6763,134.5134 Q542.7544,133.5447 544.6294,133.5447 Q545.4888,133.5447 546.3325,133.7478 Q547.1919,133.9353 548.0356,134.3259 L548.0356,136.7166 Q547.2544,136.1541 546.4263,135.8728 Q545.6138,135.5759 544.8169,135.5759 Q543.9419,135.5759 543.4575,135.9353 Q542.9888,136.2947 542.9888,136.9509 Q542.9888,137.4666 543.3325,137.8103 Q543.6763,138.1384 544.77,138.5447 L545.8325,138.9509 Q547.3169,139.4978 548.02,140.4041 Q548.7388,141.3103 548.7388,142.6853 Q548.7388,144.5603 547.6294,145.4822 Q546.52,146.4041 544.27,146.4041 Q543.3481,146.4041 542.4263,146.1853 Q541.5044,145.9666 540.645,145.5447 L540.645,143.0134 Q541.6138,143.7009 542.5356,144.0447 Q543.4575,144.3884 544.3481,144.3884 Q545.2544,144.3884 545.7544,143.9822 Q546.2544,143.5603 546.2544,142.8259 Q546.2544,142.2634 545.9106,141.8572 Q545.5825,141.4353 544.9575,141.1853 L543.7544,140.7322 Z " fill="#4C4F69"/><text fill="#4C4F69" font-family="sans-serif" font-size="12" font-style="italic" lengthAdjust="spacing" textLength="91.4648" x="556.27" y="136.1755">&#171;Value Object&#187;</text><text fill="#4C4F69" font-family="sans-serif" font-size="14" font-weight="bold" lengthAdjust="spacing" textLength="63.7178" x="570.1435" y="152.0007">Trashed</text><line style="stroke:#BCC0CC;stroke-width:0.5;" x1="530.27" x2="647.7348" y1="160.3025" y2="160.3025"/><text fill="#4C4F69" font-family="sans-serif" font-size="14" lengthAdjust="spacing" textLength="96.0654" x="535.27" y="177.2976">by TrashedBy</text><text fill="#4C4F69" font-family="sans-serif" font-size="14" lengthAdjust="spacing" textLength="89.291" x="535.27" y="193.5945">at time.Time</text><line style="stroke:#BCC0CC;stroke-width:0.5;" x1="530.27" x2="647.7348" y1="200.8963" y2="200.8963"/></g><!--class NoteService--><g class="entity" data-qualified-name="Domain.NoteService" data-source-line="124" id="ent0009"><rect fill="#EFF1F5" height="64.2969" rx="8" ry="8" style="stroke:#BCC0CC;stroke-width:0.5;" width="461.7705" x="684.11" y="132.3169"/><rect fill="#CCD0DA" height="32" rx="8" ry="8" style="stroke:#CCD0DA;stroke-width:0.5;" width="461.7705" x="684.11" y="132.3169"/><rect fill="#CCD0DA" height="8" style="stroke:#CCD0DA;stroke-width:0.5;" width="461.7705" x="684.11" y="156.3169"/><rect fill="none" height="64.2969" rx="8" ry="8" style="stroke:#BCC0CC;stroke-width:0.5;" width="461.7705" x="684.11" y="132.3169"/><ellipse cx="862.8834" cy="148.3169" fill="#ADD1B2" rx="11" ry="11" style="stroke:#181818;stroke-width:1;"/><path d="M865.8522,153.9575 Q865.2741,154.2544 864.6334,154.395 Q863.9928,154.5512 863.2897,154.5512 Q860.7897,154.5512 859.4616,152.9106 Q858.1491,151.2544 858.1491,148.1294 Q858.1491,145.0044 859.4616,143.3481 Q860.7897,141.6919 863.2897,141.6919 Q863.9928,141.6919 864.6334,141.8481 Q865.2897,142.0044 865.8522,142.3012 L865.8522,145.02 Q865.2272,144.4419 864.6334,144.1762 Q864.0397,143.895 863.4147,143.895 Q862.0709,143.895 861.3834,144.9731 Q860.6959,146.0356 860.6959,148.1294 Q860.6959,150.2231 861.3834,151.3012 Q862.0709,152.3637 863.4147,152.3637 Q864.0397,152.3637 864.6334,152.0981 Q865.2272,151.8169 865.8522,151.2387 L865.8522,153.9575 Z " fill="#4C4F69"/><text fill="#4C4F69" font-family="sans-serif" font-size="14" font-weight="bold" lengthAdjust="spacing" textLength="95.7236" x="883.3834" y="153.1636">NoteService</text><line style="stroke:#BCC0CC;stroke-width:0.5;" x1="685.11" x2="1144.8805" y1="164.3169" y2="164.3169"/><line style="stroke:#BCC0CC;stroke-width:0.5;" x1="685.11" x2="1144.8805" y1="172.3169" y2="172.3169"/><text fill="#4C4F69" font-family="sans-serif" font-size="14" lengthAdjust="spacing" textLength="449.7705" x="690.11" y="189.312">UpdateNoteSizeBasedOnContent(note *Note, content any) error</text></g><!--class WorkspaceRepo--><g class="entity" data-qualified-name="Domain.WorkspaceRepo" data-source-line="133" id="ent0014"><rect fill="#EFF1F5" height="121.4531" rx="8" ry="8" style="stroke:#BCC0CC;stroke-width:0.5;" width="573.5313" x="150.23" y="343.2369"/><rect fill="#CCD0DA" height="40.2656" rx="8" ry="8" style="stroke:#CCD0DA;stroke-width:0.5;" width="573.5313" x="150.23" y="343.2369"/><rect fill="#CCD0DA" height="8" style="stroke:#CCD0DA;stroke-width:0.5;" width="573.5313" x="150.23" y="375.5025"/><rect fill="none" height="121.4531" rx="8" ry="8" style="stroke:#BCC0CC;stroke-width:0.5;" width="573.5313" x="150.23" y="343.2369"/><ellipse cx="369.3526" cy="363.3697" fill="#EA76CB" rx="11" ry="11" style="stroke:#181818;stroke-width:1;"/><path d="M365.2744,359.1353 L365.2744,356.9791 L372.6651,356.9791 L372.6651,359.1353 L370.1963,359.1353 L370.1963,367.2134 L372.6651,367.2134 L372.6651,369.3697 L365.2744,369.3697 L365.2744,367.2134 L367.7432,367.2134 L367.7432,359.1353 L365.2744,359.1353 Z " fill="#4C4F69"/><text fill="#4C4F69" font-family="sans-serif" font-size="12" font-style="italic" lengthAdjust="spacing" textLength="102.9023" x="401.7945" y="359.3755">&#171;Repo Interface&#187;</text><text fill="#4C4F69" font-family="sans-serif" font-size="14" font-style="italic" font-weight="bold" lengthAdjust="spacing" textLength="126.7861" x="389.8526" y="375.2007">WorkspaceRepo</text><line style="stroke:#BCC0CC;stroke-width:0.5;" x1="151.23" x2="722.7613" y1="383.5025" y2="383.5025"/><line style="stroke:#BCC0CC;stroke-width:0.5;" x1="151.23" x2="722.7613" y1="391.5025" y2="391.5025"/><text fill="#4C4F69" font-family="sans-serif" font-size="14" lengthAdjust="spacing" textLength="561.5313" x="156.23" y="408.4976">GetBySlug(ctx context.Context, slug string, forUpdate bool) (*Workspace, error)</text><text fill="#4C4F69" font-family="sans-serif" font-size="14" lengthAdjust="spacing" textLength="456.2646" x="156.23" y="424.7945">GetIDBySlug(ctx context.Context, slug string) (*uuid.UUID, error)</text><text fill="#4C4F69" font-family="sans-serif" font-size="14" lengthAdjust="spacing" textLength="435.21" x="156.23" y="441.0914">CheckSlugExists(ctx context.Context, slug string) (bool, error)</text><text fill="#4C4F69" font-family="sans-serif" font-size="14" lengthAdjust="spacing" textLength="395.3018" x="156.23" y="457.3882">Save(ctx context.Context, workspace *Workspace) error</text></g><!--class FolderRepo--><g class="entity" data-qualified-name="Domain.FolderRepo" data-source-line="140" id="ent0015"><rect fill="#EFF1F5" height="186.6406" rx="8" ry="8" style="stroke:#BCC0CC;stroke-width:0.5;" width="799.2129" x="758.39" y="310.6369"/><rect fill="#CCD0DA" height="40.2656" rx="8" ry="8" style="stroke:#CCD0DA;stroke-width:0.5;" width="799.2129" x="758.39" y="310.6369"/><rect fill="#CCD0DA" height="8" style="stroke:#CCD0DA;stroke-width:0.5;" width="799.2129" x="758.39" y="342.9025"/><rect fill="none" height="186.6406" rx="8" ry="8" style="stroke:#BCC0CC;stroke-width:0.5;" width="799.2129" x="758.39" y="310.6369"/><ellipse cx="1104.2953" cy="330.7697" fill="#EA76CB" rx="11" ry="11" style="stroke:#181818;stroke-width:1;"/><path d="M1100.2171,326.5353 L1100.2171,324.3791 L1107.6078,324.3791 L1107.6078,326.5353 L1105.139,326.5353 L1105.139,334.6134 L1107.6078,334.6134 L1107.6078,336.7697 L1100.2171,336.7697 L1100.2171,334.6134 L1102.6859,334.6134 L1102.6859,326.5353 L1100.2171,326.5353 Z " fill="#4C4F69"/><text fill="#4C4F69" font-family="sans-serif" font-size="12" font-style="italic" lengthAdjust="spacing" textLength="102.9023" x="1122.7953" y="326.7755">&#171;Repo Interface&#187;</text><text fill="#4C4F69" font-family="sans-serif" font-size="14" font-style="italic" font-weight="bold" lengthAdjust="spacing" textLength="90.3164" x="1129.0882" y="342.6007">FolderRepo</text><line style="stroke:#BCC0CC;stroke-width:0.5;" x1="759.39" x2="1556.6029" y1="350.9025" y2="350.9025"/><line style="stroke:#BCC0CC;stroke-width:0.5;" x1="759.39" x2="1556.6029" y1="358.9025" y2="358.9025"/><text fill="#4C4F69" font-family="sans-serif" font-size="14" lengthAdjust="spacing" textLength="526.3467" x="764.39" y="375.8976">GetByID(ctx context.Context, id uuid.UUID, forUpdate bool) (*Folder, error)</text><text fill="#4C4F69" font-family="sans-serif" font-size="14" lengthAdjust="spacing" textLength="552.1523" x="764.39" y="392.1945">GetByIDs(ctx context.Context, ids uuid.UUIDs, forUpdate bool) ([]Folder, error)</text><text fill="#4C4F69" font-family="sans-serif" font-size="14" lengthAdjust="spacing" textLength="327.4141" x="764.39" y="408.4914">Save(ctx context.Context, folder *Folder) error</text><text fill="#4C4F69" font-family="sans-serif" font-size="14" lengthAdjust="spacing" textLength="376.4482" x="764.39" y="424.7882">SaveMany(ctx context.Context, folders []Folder) error</text><text fill="#4C4F69" font-family="sans-serif" font-size="14" lengthAdjust="spacing" textLength="657.9795" x="764.39" y="441.0851">AreAllInWorkspace(ctx context.Context, ids []uuid.UUID, workspaceID uuid.UUID) (bool, error)</text><text fill="#4C4F69" font-family="sans-serif" font-size="14" lengthAdjust="spacing" textLength="787.2129" x="764.39" y="457.382">GetTrashedByWorkspaceID(ctx context.Context, workspaceID uuid.UUID, trashedBy TrashedBy) ([]Folder, error)</text><text fill="#4C4F69" font-family="sans-serif" font-size="14" lengthAdjust="spacing" textLength="452.6484" x="764.39" y="473.6789">PermanentlyDeleteByID(ctx context.Context, id uuid.UUID) error</text><text fill="#4C4F69" font-family="sans-serif" font-size="14" lengthAdjust="spacing" textLength="474.5303" x="764.39" y="489.9757">PermanentlyDeleteByIDs(ctx context.Context, ids uuid.UUIDs) error</text></g><!--class NoteRepo--><g class="entity" data-qualified-name="Domain.NoteRepo" data-source-line="151" id="ent0016"><rect fill="#EFF1F5" height="186.6406" rx="8" ry="8" style="stroke:#BCC0CC;stroke-width:0.5;" width="669.9795" x="1593.01" y="310.6369"/><rect fill="#CCD0DA" height="40.2656" rx="8" ry="8" style="stroke:#CCD0DA;stroke-width:0.5;" width="669.9795" x="1593.01" y="310.6369"/><rect fill="#CCD0DA" height="8" style="stroke:#CCD0DA;stroke-width:0.5;" width="669.9795" x="1593.01" y="342.9025"/><rect fill="none" height="186.6406" rx="8" ry="8" style="stroke:#BCC0CC;stroke-width:0.5;" width="669.9795" x="1593.01" y="310.6369"/><ellipse cx="1874.2986" cy="330.7697" fill="#EA76CB" rx="11" ry="11" style="stroke:#181818;stroke-width:1;"/><path d="M1870.2204,326.5353 L1870.2204,324.3791 L1877.6111,324.3791 L1877.6111,326.5353 L1875.1423,326.5353 L1875.1423,334.6134 L1877.6111,334.6134 L1877.6111,336.7697 L1870.2204,336.7697 L1870.2204,334.6134 L1872.6892,334.6134 L1872.6892,326.5353 L1870.2204,326.5353 Z " fill="#4C4F69"/><text fill="#4C4F69" font-family="sans-serif" font-size="12" font-style="italic" lengthAdjust="spacing" textLength="102.9023" x="1892.7986" y="326.7755">&#171;Repo Interface&#187;</text><text fill="#4C4F69" font-family="sans-serif" font-size="14" font-style="italic" font-weight="bold" lengthAdjust="spacing" textLength="77.4375" x="1905.531" y="342.6007">NoteRepo</text><line style="stroke:#BCC0CC;stroke-width:0.5;" x1="1594.01" x2="2261.9895" y1="350.9025" y2="350.9025"/><line style="stroke:#BCC0CC;stroke-width:0.5;" x1="1594.01" x2="2261.9895" y1="358.9025" y2="358.9025"/><text fill="#4C4F69" font-family="sans-serif" font-size="14" lengthAdjust="spacing" textLength="515.7236" x="1599.01" y="375.8976">GetByID(ctx context.Context, id uuid.UUID, forUpdate bool) (*Note, error)</text><text fill="#4C4F69" font-family="sans-serif" font-size="14" lengthAdjust="spacing" textLength="541.5293" x="1599.01" y="392.1945">GetByIDs(ctx context.Context, ids uuid.UUIDs, forUpdate bool) ([]Note, error)</text><text fill="#4C4F69" font-family="sans-serif" font-size="14" lengthAdjust="spacing" textLength="307.6924" x="1599.01" y="408.4914">Save(ctx context.Context, note *Note) error</text><text fill="#4C4F69" font-family="sans-serif" font-size="14" lengthAdjust="spacing" textLength="356.7266" x="1599.01" y="424.7882">SaveMany(ctx context.Context, notes []Note) error</text><text fill="#4C4F69" font-family="sans-serif" font-size="14" lengthAdjust="spacing" textLength="657.9795" x="1599.01" y="441.0851">AreAllInWorkspace(ctx context.Context, ids []uuid.UUID, workspaceID uuid.UUID) (bool, error)</text><text fill="#4C4F69" font-family="sans-serif" font-size="14" lengthAdjust="spacing" textLength="617.415" x="1599.01" y="457.382">GetTrashedByWorkspaceID(ctx context.Context, workspaceID uuid.UUID) ([]Note, error)</text><text fill="#4C4F69" font-family="sans-serif" font-size="14" lengthAdjust="spacing" textLength="452.6484" x="1599.01" y="473.6789">PermanentlyDeleteByID(ctx context.Context, id uuid.UUID) error</text><text fill="#4C4F69" font-family="sans-serif" font-size="14" lengthAdjust="spacing" textLength="474.5303" x="1599.01" y="489.9757">PermanentlyDeleteByIDs(ctx context.Context, ids uuid.UUIDs) error</text></g><!--reverse link Workspace to Folder--><g class="link" data-entity-1="ent0004" data-entity-2="ent0005" data-link-type="composition" data-source-line="128" id="lnk10"><path codeLine="128" d="M84.0885,261.8025 C79.6385,281.5225 78.29,290.8369 76,310.6369 C66.48,393.0469 61.16,415.6669 76,497.2769 C79.64,517.2869 85.23,537.9169 91.73,557.9169" fill="none" id="Workspace-backto-Folder" style="stroke:#6C6F85;stroke-width:1;stroke-dasharray:7,7;"/><polygon fill="#6C6F85" points="86.73,250.0969,81.5074,255.0692,84.0885,261.8025,89.3111,256.8302,86.73,250.0969" style="stroke:#6C6F85;stroke-width:1;"/><text fill="#4C4F69" font-family="sans-serif" font-size="13" lengthAdjust="spacing" textLength="55.0278" x="77" y="408.5238">contains</text><text fill="#4C4F69" font-family="sans-serif" font-size="13" lengthAdjust="spacing" textLength="8.271" x="76.5679" y="269.5902">1</text><text fill="#4C4F69" font-family="sans-serif" font-size="13" lengthAdjust="spacing" textLength="23.0356" x="64.97" y="547.226">1..*</text></g><!--reverse link Folder to FolderHierarchy--><g class="link" data-entity-1="ent0005" data-entity-2="ent0006" data-link-type="composition" data-source-line="129" id="lnk11"><path codeLine="129" d="M136.768,838.805 C134.498,865.895 133.23,880.8669 131.37,902.9969" fill="none" id="Folder-backto-FolderHierarchy" style="stroke:#6C6F85;stroke-width:1;"/><polygon fill="#6C6F85" points="137.77,826.8469,133.283,832.4919,136.768,838.805,141.255,833.1599,137.77,826.8469" style="stroke:#6C6F85;stroke-width:1;"/><text fill="#4C4F69" font-family="sans-serif" font-size="13" lengthAdjust="spacing" textLength="22.9785" x="135" y="869.4738">has</text><text fill="#4C4F69" font-family="sans-serif" font-size="13" lengthAdjust="spacing" textLength="8.271" x="128.9444" y="846.6834">1</text><text fill="#4C4F69" font-family="sans-serif" font-size="13" lengthAdjust="spacing" textLength="8.271" x="123.4353" y="892.3222">1</text></g><!--reverse link Folder to Note--><g class="link" data-entity-1="ent0005" data-entity-2="ent0007" data-link-type="composition" data-source-line="130" id="lnk12"><path codeLine="130" d="M206.9672,838.168 C215.8772,863.318 220.35,878.3069 227,903.4069 C241.14,956.7969 252.18,1016.1969 260.43,1069.3869" fill="none" id="Folder-backto-Note" style="stroke:#6C6F85;stroke-width:1;stroke-dasharray:7,7;"/><polygon fill="#6C6F85" points="202.96,826.8569,201.1932,833.8482,206.9672,838.168,208.734,831.1767,202.96,826.8569" style="stroke:#6C6F85;stroke-width:1;"/><text fill="#4C4F69" font-family="sans-serif" font-size="13" lengthAdjust="spacing" textLength="55.0278" x="251" y="960.5538">contains</text><text fill="#4C4F69" font-family="sans-serif" font-size="13" lengthAdjust="spacing" textLength="8.271" x="197.543" y="846.25">1</text><text fill="#4C4F69" font-family="sans-serif" font-size="13" lengthAdjust="spacing" textLength="23.0356" x="235.9261" y="1058.4077">0..*</text></g><!--link Note to Note--><g class="link" data-entity-1="ent0007" data-entity-2="ent0007" data-link-type="association" data-source-line="131" id="lnk13"><path codeLine="131" d="M443.7,1197.1069 C464.51,1202.5169 478.24,1212.8369 478.24,1228.0669 C478.24,1243.2969 464.51,1253.6169 443.7,1259.0269" fill="none" id="Note-Note" style="stroke:#6C6F85;stroke-width:1;stroke-dasharray:7,7;"/><text fill="#4C4F69" font-family="sans-serif" font-size="13" lengthAdjust="spacing" textLength="29.7642" x="484.24" y="1232.6338">links</text><text fill="#4C4F69" font-family="sans-serif" font-size="13" lengthAdjust="spacing" textLength="23.0356" x="451.0921" y="1192.5541">0..*</text><text fill="#4C4F69" font-family="sans-serif" font-size="13" lengthAdjust="spacing" textLength="23.0356" x="451.0921" y="1257.0864">0..*</text></g><?plantuml-src rLVVRzis47xtNy5wUv2Cr92J-5VH5N0IfpMmDa6Sh0z57oZgv6YHHOEYadX3__STIPcYRQbDWmpO_91Ot_6-uzrzFCeoaIcGJrn2g_NgLy5pUA0I1FcDj7-9s8WEHst4uvGkasp1YS6ZuSZWgoIx8_gZSA330GiLlgJ5FLXyD3eQGwnm0H6fraU7GNmqDki5vvdb6Hpt-qUQ7oYxjUjZD0IQVmrfoXyiJpo2NgJmXG38xFhZW0Q7Uhq4cbPnUyFnuLZ7pU_Mpdw2Ozg7liRfQdMR233uOJ2EGusdz1wo2CkZyU7XQ1Zhk65QWCCFWq7SDt4VPOKVi-DuOE8MeJBr3Dvd_NWuTF30u0CsY4UQXz-3IEdwi8pBXl7uoC5BdX4RnRJdu2NFcD4W30o_Y2c3aeUoC0Z1mKkUaB60CGSlUHYBWeZgV6dkv0jnt3FvBcccv6Jx26NVcIXoMVKT6G7rqyhlacn51LsIaBAxXU155ftob0kY8pZs269QfFASPx9SeEhaBD2-Z8iCczCRE0QMqZnNVdEvngs5F8tSm1CX-4D9kQc-OrxXlkW2ZAy09ccsIA6rluBytLBfdUpcOIfYR5oWT6miKt5jSTBI9wVrhRMRGHE_hjFtsJy0HSkUvwQtUir4If64XOJT2kDENc7namp85QpuBCFXeDoyZ2x19ydccRGLq2Oq9sTyIPEigvx9sxVUx83eEU5h0c8Pthspp7CGzmc3PvBReULlY6g3JBDYMH83Vctcd2BdPk3vsirX-OFYKRy8_qGfb6IcFOriSsGpuyetpiHuEvoJ1Swj1MPmnVbFiEBmyYjVefoHjBKHPDkuEDxeU8w2mgAKQj8bkHOqluNe1CaCgZutd-QNqzFP-MnwPh7BcwlBY_cqUfvSJJzTwqTKYLRHLYAVkRZBSJVW4YSHAOeawjxSp2fcdLME2imM5ilJOh6BuIM18o15DS_EQcWYI452D96a8vCbTA_nJyjQhq25yPnOlhMTQK_FRqx6X7rM9Wd3gwsp0pviYbERIQoZVKX0KC5kr-Hy-zckawPtf5CsyMdPpa7ES4-UtjYkyP8AoEJipFD9PtzZirnNmySvobEBViJxvfgRJNhnNeCgShrDJsuKHohjEHlF9HSxlN1FtKujt9QiohsxEtzsOhKoK2zABoS2IHSv-V9rL_d9Nq0A77uxSgXL2Y_aWgFtxpXXyygU_viIGUCrxjpRslwMUOufU3OF_-U5WXmNRcPUKvulgwtIn-rmw31Pa4fIJHY7gvpQIYNbLUGERmTsH-qgGdLf6nRi1E_pw28xnMiOrUfb29EECXuGPZ12CnGzu7kBS4ENCUpG9UrUctIwtIv-wNOxxSq2KtpoHjCXaBlUfL6xldwj_szPgedqXjpIHbSTDN2ZgWmQOcfJkRh9BrLTDtbkluNOT1Nijkqzo9Fr7EyGZyb7Kxf7sJqr_m_Ss-K0ZvSmJT27toTUnz8Uc4BxBk_ix8dCYiagTO_fz1ROdUAPFYQvp9_2fhQtnpF7toJrplQE8HtdBjvJpdP5JHzhoucpipQEEmJhgcaewqgfEFCcKlUOrz1--Th0srmGCt58PtEPLwNO-7t4m_KzNpNlwhqd0YPfEijifPlJ-lBLALVjYq1Jhx5aTXXzhXn_q7wN-O3KJSZlLFCI1Fw6mRcJhirRqjDqi5kUMfedjVw7YbKpuaNrQiRjIwkrbhLPgzNa_pcTAZybiJhF_ub6cylr7nFZjty0?></g></svg>